<?xml version="1.0" encoding="UTF-8" standalone="no"?>
<!DOCTYPE svg PUBLIC "-//W3C//DTD SVG 1.1//EN"
 "http://www.w3.org/Graphics/SVG/1.1/DTD/svg11.dtd">
<!-- Generated by graphviz version 2.38.0 (20140413.2041)
 -->
<!-- Title: Mask::showWindow Pages: 1 -->
<svg width="304pt" height="218pt"
 viewBox="0.00 0.00 304.00 218.00" xmlns="http://www.w3.org/2000/svg" xmlns:xlink="http://www.w3.org/1999/xlink">
<g id="graph0" class="graph" transform="scale(1 1) rotate(0) translate(4 214)">
<title>Mask::showWindow</title>
<polygon fill="white" stroke="none" points="-4,4 -4,-214 300,-214 300,4 -4,4"/>
<!-- Node1 -->
<g id="node1" class="node"><title>Node1</title>
<polygon fill="#bfbfbf" stroke="black" points="0,-95.5 0,-114.5 107,-114.5 107,-95.5 0,-95.5"/>
<text text-anchor="middle" x="53.5" y="-102.5" font-family="Helvetica,sans-Serif" font-size="10.00">Mask::showWindow</text>
</g>
<!-- Node2 -->
<g id="node2" class="node"><title>Node2</title>
<g id="a_node2"><a xlink:href="class_mask.html#a418768a985b64d7d79ffe206c8e3152b" target="_top" xlink:title="Handles the change trackbar event for the low hue trackbar. ">
<polygon fill="white" stroke="black" points="145,-190.5 145,-209.5 294,-209.5 294,-190.5 145,-190.5"/>
<text text-anchor="middle" x="219.5" y="-197.5" font-family="Helvetica,sans-Serif" font-size="10.00">Mask::onLowHTreshTrackbar</text>
</a>
</g>
</g>
<!-- Node1&#45;&gt;Node2 -->
<g id="edge1" class="edge"><title>Node1&#45;&gt;Node2</title>
<path fill="none" stroke="midnightblue" d="M62.7597,-114.531C77.3117,-130.707 109.194,-163.484 143,-181 147.534,-183.349 152.374,-185.419 157.332,-187.24"/>
<polygon fill="midnightblue" stroke="midnightblue" points="156.366,-190.608 166.959,-190.445 158.577,-183.966 156.366,-190.608"/>
</g>
<!-- Node3 -->
<g id="node3" class="node"><title>Node3</title>
<g id="a_node3"><a xlink:href="class_mask.html#a031f51174e376d4071375baf7129fad2" target="_top" xlink:title="Handles the change trackbar event for the high hue trackbar. ">
<polygon fill="white" stroke="black" points="143,-152.5 143,-171.5 296,-171.5 296,-152.5 143,-152.5"/>
<text text-anchor="middle" x="219.5" y="-159.5" font-family="Helvetica,sans-Serif" font-size="10.00">Mask::onHighHTreshTrackbar</text>
</a>
</g>
</g>
<!-- Node1&#45;&gt;Node3 -->
<g id="edge2" class="edge"><title>Node1&#45;&gt;Node3</title>
<path fill="none" stroke="midnightblue" d="M74.1813,-114.525C91.8866,-122.833 118.765,-134.805 143,-143 150.211,-145.438 157.904,-147.723 165.517,-149.805"/>
<polygon fill="midnightblue" stroke="midnightblue" points="164.87,-153.254 175.432,-152.419 166.655,-146.485 164.87,-153.254"/>
</g>
<!-- Node4 -->
<g id="node4" class="node"><title>Node4</title>
<g id="a_node4"><a xlink:href="class_mask.html#acf24eedd986e3f2ce31b700412114097" target="_top" xlink:title="Handles the change trackbar event for the low saturation trackbar. ">
<polygon fill="white" stroke="black" points="145,-114.5 145,-133.5 294,-133.5 294,-114.5 145,-114.5"/>
<text text-anchor="middle" x="219.5" y="-121.5" font-family="Helvetica,sans-Serif" font-size="10.00">Mask::onLowSTreshTrackbar</text>
</a>
</g>
</g>
<!-- Node1&#45;&gt;Node4 -->
<g id="edge3" class="edge"><title>Node1&#45;&gt;Node4</title>
<path fill="none" stroke="midnightblue" d="M107.293,-111.116C116.095,-112.136 125.414,-113.216 134.762,-114.299"/>
<polygon fill="midnightblue" stroke="midnightblue" points="134.559,-117.798 144.895,-115.473 135.364,-110.845 134.559,-117.798"/>
</g>
<!-- Node5 -->
<g id="node5" class="node"><title>Node5</title>
<g id="a_node5"><a xlink:href="class_mask.html#a9051c37f02e41e42699fdcd67e55f027" target="_top" xlink:title="Handles the change trackbar event for the high saturation trackbar. ">
<polygon fill="white" stroke="black" points="143.5,-76.5 143.5,-95.5 295.5,-95.5 295.5,-76.5 143.5,-76.5"/>
<text text-anchor="middle" x="219.5" y="-83.5" font-family="Helvetica,sans-Serif" font-size="10.00">Mask::onHighSTreshTrackbar</text>
</a>
</g>
</g>
<!-- Node1&#45;&gt;Node5 -->
<g id="edge4" class="edge"><title>Node1&#45;&gt;Node5</title>
<path fill="none" stroke="midnightblue" d="M107.293,-98.8837C115.661,-97.9142 124.496,-96.8907 133.38,-95.8614"/>
<polygon fill="midnightblue" stroke="midnightblue" points="133.878,-99.3273 143.409,-94.6996 133.072,-92.3738 133.878,-99.3273"/>
</g>
<!-- Node6 -->
<g id="node6" class="node"><title>Node6</title>
<g id="a_node6"><a xlink:href="class_mask.html#a2bcbab640374e6a719ed4584a4845dfb" target="_top" xlink:title="Handles the change trackbar event for the low value trackbar. ">
<polygon fill="white" stroke="black" points="145,-38.5 145,-57.5 294,-57.5 294,-38.5 145,-38.5"/>
<text text-anchor="middle" x="219.5" y="-45.5" font-family="Helvetica,sans-Serif" font-size="10.00">Mask::onLowVTreshTrackbar</text>
</a>
</g>
</g>
<!-- Node1&#45;&gt;Node6 -->
<g id="edge5" class="edge"><title>Node1&#45;&gt;Node6</title>
<path fill="none" stroke="midnightblue" d="M74.1813,-95.4752C91.8866,-87.1674 118.765,-75.1945 143,-67 150.211,-64.5617 157.904,-62.2766 165.517,-60.1954"/>
<polygon fill="midnightblue" stroke="midnightblue" points="166.655,-63.515 175.432,-57.5811 164.87,-56.7464 166.655,-63.515"/>
</g>
<!-- Node7 -->
<g id="node7" class="node"><title>Node7</title>
<g id="a_node7"><a xlink:href="class_mask.html#a160c56278711e34a1accfedbc875ef41" target="_top" xlink:title="Handles the change trackbar event for the high value trackbar. ">
<polygon fill="white" stroke="black" points="143.5,-0.5 143.5,-19.5 295.5,-19.5 295.5,-0.5 143.5,-0.5"/>
<text text-anchor="middle" x="219.5" y="-7.5" font-family="Helvetica,sans-Serif" font-size="10.00">Mask::onHighVTreshTrackbar</text>
</a>
</g>
</g>
<!-- Node1&#45;&gt;Node7 -->
<g id="edge6" class="edge"><title>Node1&#45;&gt;Node7</title>
<path fill="none" stroke="midnightblue" d="M62.7597,-95.4694C77.3117,-79.2927 109.194,-46.5161 143,-29 147.534,-26.6507 152.374,-24.581 157.332,-22.7596"/>
<polygon fill="midnightblue" stroke="midnightblue" points="158.577,-26.034 166.959,-19.5545 156.366,-19.3923 158.577,-26.034"/>
</g>
</g>
</svg>
