<?xml version="1.0" encoding="UTF-8" standalone="no"?>
<!DOCTYPE svg PUBLIC "-//W3C//DTD SVG 1.1//EN"
 "http://www.w3.org/Graphics/SVG/1.1/DTD/svg11.dtd">
<!-- Generated by graphviz version 2.44.0 ()
 -->
<!-- Title: SerialCom::publishError Pages: 1 -->
<svg width="483pt" height="66pt"
 viewBox="0.00 0.00 483.00 66.00" xmlns="http://www.w3.org/2000/svg" xmlns:xlink="http://www.w3.org/1999/xlink">
<g id="graph0" class="graph" transform="scale(1 1) rotate(0) translate(4 62)">
<title>SerialCom::publishError</title>
<polygon fill="white" stroke="transparent" points="-4,4 -4,-62 479,-62 479,4 -4,4"/>
<!-- Node1 -->
<g id="node1" class="node">
<title>Node1</title>
<g id="a_node1"><a xlink:title="shows a error message on the console">
<polygon fill="#bfbfbf" stroke="black" points="358,-19.5 358,-38.5 475,-38.5 475,-19.5 358,-19.5"/>
<text text-anchor="middle" x="416.5" y="-26.5" font-family="Helvetica,sans-Serif" font-size="10.00">SerialCom::publishError</text>
</a>
</g>
</g>
<!-- Node2 -->
<g id="node2" class="node">
<title>Node2</title>
<g id="a_node2"><a xlink:href="classSerialCom.html#acf9ed461d5505333d9322d743facc7f8" target="_top" xlink:title="Constructor.">
<polygon fill="white" stroke="black" points="211,-38.5 211,-57.5 322,-57.5 322,-38.5 211,-38.5"/>
<text text-anchor="middle" x="266.5" y="-45.5" font-family="Helvetica,sans-Serif" font-size="10.00">SerialCom::SerialCom</text>
</a>
</g>
</g>
<!-- Node1&#45;&gt;Node2 -->
<g id="edge1" class="edge">
<title>Node1&#45;&gt;Node2</title>
<path fill="none" stroke="midnightblue" d="M347.89,-37.68C339.32,-38.78 330.65,-39.89 322.32,-40.96"/>
<polygon fill="midnightblue" stroke="midnightblue" points="348.38,-41.15 357.86,-36.4 347.49,-34.2 348.38,-41.15"/>
</g>
<!-- Node5 -->
<g id="node5" class="node">
<title>Node5</title>
<g id="a_node5"><a xlink:href="classSerialCom.html#a21ffd47b01f7337633a46bdb4ff47841" target="_top" xlink:title="Sends a message(command) to the Arduino Uno.">
<polygon fill="white" stroke="black" points="81,-0.5 81,-19.5 168,-19.5 168,-0.5 81,-0.5"/>
<text text-anchor="middle" x="124.5" y="-7.5" font-family="Helvetica,sans-Serif" font-size="10.00">SerialCom::write</text>
</a>
</g>
</g>
<!-- Node1&#45;&gt;Node5 -->
<g id="edge4" class="edge">
<title>Node1&#45;&gt;Node5</title>
<path fill="none" stroke="midnightblue" d="M347.77,-24.56C292.37,-20.93 215.7,-15.91 168.42,-12.81"/>
<polygon fill="midnightblue" stroke="midnightblue" points="347.65,-28.06 357.86,-25.22 348.11,-21.08 347.65,-28.06"/>
</g>
<!-- Node3 -->
<g id="node3" class="node">
<title>Node3</title>
<g id="a_node3"><a xlink:href="classSerialCom.html#a386d2a4649e3a00b9b2f6e6cef921bbd" target="_top" xlink:title="Creates a object if there isn&#39;t one already.">
<polygon fill="white" stroke="black" points="74,-38.5 74,-57.5 175,-57.5 175,-38.5 74,-38.5"/>
<text text-anchor="middle" x="124.5" y="-45.5" font-family="Helvetica,sans-Serif" font-size="10.00">SerialCom::initialize</text>
</a>
</g>
</g>
<!-- Node2&#45;&gt;Node3 -->
<g id="edge2" class="edge">
<title>Node2&#45;&gt;Node3</title>
<path fill="none" stroke="midnightblue" d="M200.88,-48C192.21,-48 183.44,-48 175.08,-48"/>
<polygon fill="midnightblue" stroke="midnightblue" points="200.97,-51.5 210.97,-48 200.97,-44.5 200.97,-51.5"/>
</g>
<!-- Node4 -->
<g id="node4" class="node">
<title>Node4</title>
<g id="a_node4"><a xlink:href="group__main.html#ga51af30a60f9f02777c6396b8247e356f" target="_top" xlink:title="Main function.">
<polygon fill="white" stroke="black" points="0,-19.5 0,-38.5 38,-38.5 38,-19.5 0,-19.5"/>
<text text-anchor="middle" x="19" y="-26.5" font-family="Helvetica,sans-Serif" font-size="10.00">main</text>
</a>
</g>
</g>
<!-- Node3&#45;&gt;Node4 -->
<g id="edge3" class="edge">
<title>Node3&#45;&gt;Node4</title>
<path fill="none" stroke="midnightblue" d="M63.81,-37.04C54.6,-35.35 45.74,-33.73 38.42,-32.38"/>
<polygon fill="midnightblue" stroke="midnightblue" points="63.4,-40.53 73.87,-38.89 64.67,-33.64 63.4,-40.53"/>
</g>
<!-- Node5&#45;&gt;Node4 -->
<g id="edge5" class="edge">
<title>Node5&#45;&gt;Node4</title>
<path fill="none" stroke="midnightblue" d="M70.92,-19.65C59.1,-21.82 47.34,-23.98 38.1,-25.68"/>
<polygon fill="midnightblue" stroke="midnightblue" points="71.6,-23.09 80.81,-17.84 70.34,-16.2 71.6,-23.09"/>
</g>
</g>
</svg>
