<?xml version="1.0" encoding="UTF-8" standalone="no"?>
<!DOCTYPE svg PUBLIC "-//W3C//DTD SVG 1.1//EN"
 "http://www.w3.org/Graphics/SVG/1.1/DTD/svg11.dtd">
<!-- Generated by graphviz version 2.38.0 (20140413.2041)
 -->
<!-- Title: PanTiltController::home Pages: 1 -->
<svg width="544pt" height="39pt"
 viewBox="0.00 0.00 544.00 39.00" xmlns="http://www.w3.org/2000/svg" xmlns:xlink="http://www.w3.org/1999/xlink">
<g id="graph0" class="graph" transform="scale(1 1) rotate(0) translate(4 35)">
<title>PanTiltController::home</title>
<polygon fill="white" stroke="none" points="-4,4 -4,-35 540,-35 540,4 -4,4"/>
<!-- Node1 -->
<g id="node1" class="node"><title>Node1</title>
<polygon fill="#bfbfbf" stroke="black" points="0,-6 0,-25 128,-25 128,-6 0,-6"/>
<text text-anchor="middle" x="64" y="-13" font-family="Helvetica,sans-Serif" font-size="10.00">PanTiltController::home</text>
</g>
<!-- Node2 -->
<g id="node2" class="node"><title>Node2</title>
<g id="a_node2"><a xlink:href="class_pan_tilt_controller.html#aadda5450b8681c8fc4b1aa627686ab78" target="_top" xlink:title="attaches the pin number to the servo&#39;s and homes the servo&#39;s ">
<polygon fill="white" stroke="black" points="164,-0.5 164,-30.5 264,-30.5 264,-0.5 164,-0.5"/>
<text text-anchor="start" x="172" y="-18.5" font-family="Helvetica,sans-Serif" font-size="10.00">PanTiltController::</text>
<text text-anchor="middle" x="214" y="-7.5" font-family="Helvetica,sans-Serif" font-size="10.00">initServos</text>
</a>
</g>
</g>
<!-- Node1&#45;&gt;Node2 -->
<g id="edge1" class="edge"><title>Node1&#45;&gt;Node2</title>
<path fill="none" stroke="midnightblue" d="M138.333,-15.5C146.999,-15.5 155.677,-15.5 163.892,-15.5"/>
<polygon fill="midnightblue" stroke="midnightblue" points="138.195,-12.0001 128.195,-15.5 138.195,-19.0001 138.195,-12.0001"/>
</g>
<!-- Node3 -->
<g id="node3" class="node"><title>Node3</title>
<g id="a_node3"><a xlink:href="class_pan_tilt_controller.html#a9bf2969c6d318aab4c3508c60a87f8d3" target="_top" xlink:title="constructor of the class ">
<polygon fill="white" stroke="black" points="300,-0.5 300,-30.5 400,-30.5 400,-0.5 300,-0.5"/>
<text text-anchor="start" x="308" y="-18.5" font-family="Helvetica,sans-Serif" font-size="10.00">PanTiltController::</text>
<text text-anchor="middle" x="350" y="-7.5" font-family="Helvetica,sans-Serif" font-size="10.00">PanTiltController</text>
</a>
</g>
</g>
<!-- Node2&#45;&gt;Node3 -->
<g id="edge2" class="edge"><title>Node2&#45;&gt;Node3</title>
<path fill="none" stroke="midnightblue" d="M274.398,-15.5C282.909,-15.5 291.586,-15.5 299.87,-15.5"/>
<polygon fill="midnightblue" stroke="midnightblue" points="274.136,-12.0001 264.136,-15.5 274.136,-19.0001 274.136,-12.0001"/>
</g>
<!-- Node4 -->
<g id="node4" class="node"><title>Node4</title>
<g id="a_node4"><a xlink:href="class_pan_tilt_controller.html#ab6b65c6e12ebbd0ccf007f6c457e5f1a" target="_top" xlink:title="Creates a object if there isn&#39;t one already. ">
<polygon fill="white" stroke="black" points="436,-0.5 436,-30.5 536,-30.5 536,-0.5 436,-0.5"/>
<text text-anchor="start" x="444" y="-18.5" font-family="Helvetica,sans-Serif" font-size="10.00">PanTiltController::</text>
<text text-anchor="middle" x="486" y="-7.5" font-family="Helvetica,sans-Serif" font-size="10.00">initialize</text>
</a>
</g>
</g>
<!-- Node3&#45;&gt;Node4 -->
<g id="edge3" class="edge"><title>Node3&#45;&gt;Node4</title>
<path fill="none" stroke="midnightblue" d="M410.398,-15.5C418.909,-15.5 427.586,-15.5 435.87,-15.5"/>
<polygon fill="midnightblue" stroke="midnightblue" points="410.136,-12.0001 400.136,-15.5 410.136,-19.0001 410.136,-12.0001"/>
</g>
</g>
</svg>
