<?xml version="1.0" encoding="UTF-8" standalone="no"?>
<!DOCTYPE svg PUBLIC "-//W3C//DTD SVG 1.1//EN"
 "http://www.w3.org/Graphics/SVG/1.1/DTD/svg11.dtd">
<!-- Generated by graphviz version 2.38.0 (20140413.2041)
 -->
<!-- Title: PipeLineAction Pages: 1 -->
<!--zoomable 446 -->
<svg id="main" version="1.1" xmlns="http://www.w3.org/2000/svg" xmlns:xlink="http://www.w3.org/1999/xlink" xml:space="preserve" onload="init(evt)">
<style type="text/css"><![CDATA[
.edge:hover path { stroke: red; }
.edge:hover polygon { stroke: red; fill: red; }
]]></style>
<script type="text/javascript"><![CDATA[
var edges = document.getElementsByTagName('g');
if (edges && edges.length) {
  for (var i=0;i<edges.length;i++) {
    if (edges[i].id.substr(0,4)=='edge') {
      edges[i].setAttribute('class','edge');
    }
  }
}
]]></script>
        <defs>
                <circle id="rim" cx="0" cy="0" r="7"/>
                <circle id="rim2" cx="0" cy="0" r="3.5"/>
                <g id="zoomPlus">
                        <use xlink:href="#rim" fill="#404040">
                                <set attributeName="fill" to="#808080" begin="zoomplus.mouseover" end="zoomplus.mouseout"/>
                        </use>
                        <path d="M-4,0h8M0,-4v8" fill="none" stroke="white" stroke-width="1.5" pointer-events="none"/>
                </g>
                <g id="zoomMin">
                        <use xlink:href="#rim" fill="#404040">
                                <set attributeName="fill" to="#808080" begin="zoomminus.mouseover" end="zoomminus.mouseout"/>
                        </use>
                        <path d="M-4,0h8" fill="none" stroke="white" stroke-width="1.5" pointer-events="none"/>
                </g>
                <g id="dirArrow">
                        <path fill="none" stroke="white" stroke-width="1.5" d="M0,-3.0v7 M-2.5,-0.5L0,-3.0L2.5,-0.5"/>
                </g>
               <g id="resetDef">
                       <use xlink:href="#rim2" fill="#404040">
                               <set attributeName="fill" to="#808080" begin="reset.mouseover" end="reset.mouseout"/>
                       </use>
               </g>
        </defs>

<script type="text/javascript">
var viewWidth = 655;
var viewHeight = 446;
var sectionId = 'dynsection-0';
</script>
<script xlink:href="svgpan.js"/>
<svg id="graph" class="graph">
<g id="viewport">
<title>PipeLineAction</title>
<polygon fill="white" stroke="none" points="-4,4 -4,-442 651,-442 651,4 -4,4"/>
<!-- Node1 -->
<g id="node1" class="node"><title>Node1</title>
<polygon fill="#bfbfbf" stroke="black" points="238,-292.5 238,-437.5 343,-437.5 343,-292.5 238,-292.5"/>
<text text-anchor="middle" x="290.5" y="-425.5" font-family="Helvetica,sans-Serif" font-size="10.00">PipeLineAction</text>
<polyline fill="none" stroke="black" points="238,-418.5 343,-418.5 "/>
<text text-anchor="start" x="246" y="-406.5" font-family="Helvetica,sans-Serif" font-size="10.00"># img</text>
<text text-anchor="start" x="246" y="-395.5" font-family="Helvetica,sans-Serif" font-size="10.00"># show</text>
<text text-anchor="start" x="246" y="-384.5" font-family="Helvetica,sans-Serif" font-size="10.00"># name</text>
<polyline fill="none" stroke="black" points="238,-377.5 343,-377.5 "/>
<text text-anchor="start" x="246" y="-365.5" font-family="Helvetica,sans-Serif" font-size="10.00">+ PipeLineAction()</text>
<text text-anchor="start" x="246" y="-354.5" font-family="Helvetica,sans-Serif" font-size="10.00">+ PipeLineAction()</text>
<text text-anchor="start" x="246" y="-343.5" font-family="Helvetica,sans-Serif" font-size="10.00">+ setAction()</text>
<text text-anchor="start" x="246" y="-332.5" font-family="Helvetica,sans-Serif" font-size="10.00">+ getAction()</text>
<text text-anchor="start" x="246" y="-321.5" font-family="Helvetica,sans-Serif" font-size="10.00">+ showWindow()</text>
<text text-anchor="start" x="246" y="-310.5" font-family="Helvetica,sans-Serif" font-size="10.00">+ hideWindow()</text>
<text text-anchor="start" x="246" y="-299.5" font-family="Helvetica,sans-Serif" font-size="10.00">+ getName()</text>
</g>
<!-- Node2 -->
<g id="node2" class="node"><title>Node2</title>
<g id="a_node2"><a xlink:href="class_blur.html" target="_top" xlink:title="Child&#45;classe, implements OpenCV&#39;s GaussianBlur. ">
<polygon fill="white" stroke="black" points="0,-66.5 0,-189.5 95,-189.5 95,-66.5 0,-66.5"/>
<text text-anchor="middle" x="47.5" y="-177.5" font-family="Helvetica,sans-Serif" font-size="10.00">Blur</text>
<polyline fill="none" stroke="black" points="0,-170.5 95,-170.5 "/>
<text text-anchor="start" x="8" y="-158.5" font-family="Helvetica,sans-Serif" font-size="10.00">&#45; maxValue</text>
<text text-anchor="start" x="8" y="-147.5" font-family="Helvetica,sans-Serif" font-size="10.00">&#45; slider</text>
<text text-anchor="start" x="8" y="-136.5" font-family="Helvetica,sans-Serif" font-size="10.00">&#45; sigma</text>
<text text-anchor="start" x="8" y="-125.5" font-family="Helvetica,sans-Serif" font-size="10.00">&#45; kernelSize</text>
<polyline fill="none" stroke="black" points="0,-118.5 95,-118.5 "/>
<text text-anchor="start" x="8" y="-106.5" font-family="Helvetica,sans-Serif" font-size="10.00">+ Blur()</text>
<text text-anchor="start" x="8" y="-95.5" font-family="Helvetica,sans-Serif" font-size="10.00">+ setAction()</text>
<text text-anchor="start" x="8" y="-84.5" font-family="Helvetica,sans-Serif" font-size="10.00">+ showWindow()</text>
<text text-anchor="start" x="8" y="-73.5" font-family="Helvetica,sans-Serif" font-size="10.00">+ onChange()</text>
</a>
</g>
</g>
<!-- Node1&#45;&gt;Node2 -->
<g id="edge1" class="edge"><title>Node1&#45;&gt;Node2</title>
<path fill="none" stroke="midnightblue" d="M228.276,-340.11C188.262,-322.1 137.569,-293.98 103.5,-256 86.6048,-237.166 74.1482,-212.416 65.3314,-189.773"/>
<polygon fill="none" stroke="midnightblue" points="227.117,-343.424 237.68,-344.247 229.936,-337.017 227.117,-343.424"/>
</g>
<!-- Node3 -->
<g id="node3" class="node"><title>Node3</title>
<g id="a_node3"><a xlink:href="class_contour.html" target="_top" xlink:title="Child&#45;classe, implements OpenCV&#39;s contour finding. ">
<polygon fill="white" stroke="black" points="113,-44.5 113,-211.5 208,-211.5 208,-44.5 113,-44.5"/>
<text text-anchor="middle" x="160.5" y="-199.5" font-family="Helvetica,sans-Serif" font-size="10.00">Contour</text>
<polyline fill="none" stroke="black" points="113,-192.5 208,-192.5 "/>
<text text-anchor="start" x="121" y="-180.5" font-family="Helvetica,sans-Serif" font-size="10.00">&#45; contours</text>
<text text-anchor="start" x="121" y="-169.5" font-family="Helvetica,sans-Serif" font-size="10.00">&#45; polylines</text>
<text text-anchor="start" x="121" y="-158.5" font-family="Helvetica,sans-Serif" font-size="10.00">&#45; green</text>
<text text-anchor="start" x="121" y="-147.5" font-family="Helvetica,sans-Serif" font-size="10.00">&#45; red</text>
<text text-anchor="start" x="121" y="-136.5" font-family="Helvetica,sans-Serif" font-size="10.00">&#45; accuracyMax</text>
<text text-anchor="start" x="121" y="-125.5" font-family="Helvetica,sans-Serif" font-size="10.00">&#45; areaMax</text>
<text text-anchor="start" x="121" y="-114.5" font-family="Helvetica,sans-Serif" font-size="10.00">&#45; accuracy</text>
<text text-anchor="start" x="121" y="-103.5" font-family="Helvetica,sans-Serif" font-size="10.00">&#45; area</text>
<polyline fill="none" stroke="black" points="113,-96.5 208,-96.5 "/>
<text text-anchor="start" x="121" y="-84.5" font-family="Helvetica,sans-Serif" font-size="10.00">+ Contour()</text>
<text text-anchor="start" x="121" y="-73.5" font-family="Helvetica,sans-Serif" font-size="10.00">+ setAction()</text>
<text text-anchor="start" x="121" y="-62.5" font-family="Helvetica,sans-Serif" font-size="10.00">+ getAction()</text>
<text text-anchor="start" x="121" y="-51.5" font-family="Helvetica,sans-Serif" font-size="10.00">+ showWindow()</text>
</a>
</g>
</g>
<!-- Node1&#45;&gt;Node3 -->
<g id="edge2" class="edge"><title>Node1&#45;&gt;Node3</title>
<path fill="none" stroke="midnightblue" d="M234.214,-283.989C228.338,-274.694 222.643,-265.234 217.5,-256 209.681,-241.959 202.077,-226.643 195.106,-211.662"/>
<polygon fill="none" stroke="midnightblue" points="231.307,-285.938 239.651,-292.468 237.2,-282.16 231.307,-285.938"/>
</g>
<!-- Node4 -->
<g id="node4" class="node"><title>Node4</title>
<g id="a_node4"><a xlink:href="class_convert_color_space.html" target="_top" xlink:title="Child&#45;classe, converts from BGR to HSV color space. ">
<polygon fill="white" stroke="black" points="226.5,-88.5 226.5,-167.5 354.5,-167.5 354.5,-88.5 226.5,-88.5"/>
<text text-anchor="middle" x="290.5" y="-155.5" font-family="Helvetica,sans-Serif" font-size="10.00">ConvertColorSpace</text>
<polyline fill="none" stroke="black" points="226.5,-148.5 354.5,-148.5 "/>
<text text-anchor="middle" x="290.5" y="-136.5" font-family="Helvetica,sans-Serif" font-size="10.00"> </text>
<polyline fill="none" stroke="black" points="226.5,-129.5 354.5,-129.5 "/>
<text text-anchor="start" x="234.5" y="-117.5" font-family="Helvetica,sans-Serif" font-size="10.00">+ ConvertColorSpace()</text>
<text text-anchor="start" x="234.5" y="-106.5" font-family="Helvetica,sans-Serif" font-size="10.00">+ setAction()</text>
<text text-anchor="start" x="234.5" y="-95.5" font-family="Helvetica,sans-Serif" font-size="10.00">+ showWindow()</text>
</a>
</g>
</g>
<!-- Node1&#45;&gt;Node4 -->
<g id="edge3" class="edge"><title>Node1&#45;&gt;Node4</title>
<path fill="none" stroke="midnightblue" d="M290.5,-281.953C290.5,-243.112 290.5,-198.569 290.5,-167.608"/>
<polygon fill="none" stroke="midnightblue" points="287,-282.215 290.5,-292.215 294,-282.215 287,-282.215"/>
</g>
<!-- Node5 -->
<g id="node5" class="node"><title>Node5</title>
<g id="a_node5"><a xlink:href="class_mask.html" target="_top" xlink:title="Child&#45;classe, applies a mask to the input matrix. ">
<polygon fill="white" stroke="black" points="373,-0.5 373,-255.5 510,-255.5 510,-0.5 373,-0.5"/>
<text text-anchor="middle" x="441.5" y="-243.5" font-family="Helvetica,sans-Serif" font-size="10.00">Mask</text>
<polyline fill="none" stroke="black" points="373,-236.5 510,-236.5 "/>
<text text-anchor="start" x="381" y="-224.5" font-family="Helvetica,sans-Serif" font-size="10.00">&#45; maxValueH</text>
<text text-anchor="start" x="381" y="-213.5" font-family="Helvetica,sans-Serif" font-size="10.00">&#45; maxValue</text>
<text text-anchor="start" x="381" y="-202.5" font-family="Helvetica,sans-Serif" font-size="10.00">&#45; maxValuePixel</text>
<text text-anchor="start" x="381" y="-191.5" font-family="Helvetica,sans-Serif" font-size="10.00">&#45; lowH</text>
<text text-anchor="start" x="381" y="-180.5" font-family="Helvetica,sans-Serif" font-size="10.00">&#45; lowS</text>
<text text-anchor="start" x="381" y="-169.5" font-family="Helvetica,sans-Serif" font-size="10.00">&#45; lowV</text>
<text text-anchor="start" x="381" y="-158.5" font-family="Helvetica,sans-Serif" font-size="10.00">&#45; highH</text>
<text text-anchor="start" x="381" y="-147.5" font-family="Helvetica,sans-Serif" font-size="10.00">&#45; highS</text>
<text text-anchor="start" x="381" y="-136.5" font-family="Helvetica,sans-Serif" font-size="10.00">&#45; highV</text>
<text text-anchor="start" x="381" y="-125.5" font-family="Helvetica,sans-Serif" font-size="10.00">&#45; pixelSize</text>
<polyline fill="none" stroke="black" points="373,-118.5 510,-118.5 "/>
<text text-anchor="start" x="381" y="-106.5" font-family="Helvetica,sans-Serif" font-size="10.00">+ Mask()</text>
<text text-anchor="start" x="381" y="-95.5" font-family="Helvetica,sans-Serif" font-size="10.00">+ Mask()</text>
<text text-anchor="start" x="381" y="-84.5" font-family="Helvetica,sans-Serif" font-size="10.00">+ setAction()</text>
<text text-anchor="start" x="381" y="-73.5" font-family="Helvetica,sans-Serif" font-size="10.00">+ showWindow()</text>
<text text-anchor="start" x="381" y="-62.5" font-family="Helvetica,sans-Serif" font-size="10.00">&#45; onLowHTreshTrackbar()</text>
<text text-anchor="start" x="381" y="-51.5" font-family="Helvetica,sans-Serif" font-size="10.00">&#45; onHighHTreshTrackbar()</text>
<text text-anchor="start" x="381" y="-40.5" font-family="Helvetica,sans-Serif" font-size="10.00">&#45; onLowSTreshTrackbar()</text>
<text text-anchor="start" x="381" y="-29.5" font-family="Helvetica,sans-Serif" font-size="10.00">&#45; onHighSTreshTrackbar()</text>
<text text-anchor="start" x="381" y="-18.5" font-family="Helvetica,sans-Serif" font-size="10.00">&#45; onLowVTreshTrackbar()</text>
<text text-anchor="start" x="381" y="-7.5" font-family="Helvetica,sans-Serif" font-size="10.00">&#45; onHighVTreshTrackbar()</text>
</a>
</g>
</g>
<!-- Node1&#45;&gt;Node5 -->
<g id="edge4" class="edge"><title>Node1&#45;&gt;Node5</title>
<path fill="none" stroke="midnightblue" d="M345.315,-283.737C351.508,-274.424 357.679,-265.029 363.5,-256 366.584,-251.215 369.714,-246.315 372.86,-241.355"/>
<polygon fill="none" stroke="midnightblue" points="342.27,-281.993 339.631,-292.254 348.093,-285.879 342.27,-281.993"/>
</g>
<!-- Node6 -->
<g id="node6" class="node"><title>Node6</title>
<g id="a_node6"><a xlink:href="class_moment.html" target="_top" xlink:title="Child&#45;classe, implements OpenCV&#39;s center of mass finding. ">
<polygon fill="white" stroke="black" points="528,-61 528,-195 647,-195 647,-61 528,-61"/>
<text text-anchor="middle" x="587.5" y="-183" font-family="Helvetica,sans-Serif" font-size="10.00">Moment</text>
<polyline fill="none" stroke="black" points="528,-176 647,-176 "/>
<text text-anchor="start" x="536" y="-164" font-family="Helvetica,sans-Serif" font-size="10.00">&#45; m</text>
<text text-anchor="start" x="536" y="-153" font-family="Helvetica,sans-Serif" font-size="10.00">&#45; center</text>
<text text-anchor="start" x="536" y="-142" font-family="Helvetica,sans-Serif" font-size="10.00">&#45; areaMax</text>
<text text-anchor="start" x="536" y="-131" font-family="Helvetica,sans-Serif" font-size="10.00">&#45; area</text>
<polyline fill="none" stroke="black" points="528,-124 647,-124 "/>
<text text-anchor="start" x="536" y="-112" font-family="Helvetica,sans-Serif" font-size="10.00">+ Moment()</text>
<text text-anchor="start" x="536" y="-101" font-family="Helvetica,sans-Serif" font-size="10.00">+ setAction()</text>
<text text-anchor="start" x="536" y="-90" font-family="Helvetica,sans-Serif" font-size="10.00">+ getAction()</text>
<text text-anchor="start" x="536" y="-79" font-family="Helvetica,sans-Serif" font-size="10.00">+ getCenterOfMass()</text>
<text text-anchor="start" x="536" y="-68" font-family="Helvetica,sans-Serif" font-size="10.00">+ showWindow()</text>
</a>
</g>
</g>
<!-- Node1&#45;&gt;Node6 -->
<g id="edge5" class="edge"><title>Node1&#45;&gt;Node6</title>
<path fill="none" stroke="midnightblue" d="M353.077,-346.524C403.056,-329.959 472.303,-300.853 519.5,-256 537.267,-239.115 551.396,-216.547 562.069,-195.12"/>
<polygon fill="none" stroke="midnightblue" points="351.787,-343.262 343.35,-349.671 353.942,-349.923 351.787,-343.262"/>
</g>
</g>
</svg>
        <g id="navigator" transform="translate(0 0)" fill="#404254">
                <rect fill="#f2f5e9" fill-opacity="0.5" stroke="#606060" stroke-width=".5" x="0" y="0" width="60" height="60"/>
                <use id="zoomplus" xlink:href="#zoomPlus" x="17" y="9" onmousedown="handleZoom(evt,'in')"/>
                <use id="zoomminus" xlink:href="#zoomMin" x="42" y="9" onmousedown="handleZoom(evt,'out')"/>
                <use id="reset" xlink:href="#resetDef" x="30" y="36" onmousedown="handleReset()"/>
                <g id="arrowUp" xlink:href="#dirArrow" transform="translate(30 24)" onmousedown="handlePan(0,-1)">
                  <use xlink:href="#rim" fill="#404040">
                        <set attributeName="fill" to="#808080" begin="arrowUp.mouseover" end="arrowUp.mouseout"/>
                  </use>
                  <path fill="none" stroke="white" stroke-width="1.5" d="M0,-3.0v7 M-2.5,-0.5L0,-3.0L2.5,-0.5"/>
                </g>
                <g id="arrowRight" xlink:href="#dirArrow" transform="rotate(90) translate(36 -43)" onmousedown="handlePan(1,0)">
                  <use xlink:href="#rim" fill="#404040">
                        <set attributeName="fill" to="#808080" begin="arrowRight.mouseover" end="arrowRight.mouseout"/>
                  </use>
                  <path fill="none" stroke="white" stroke-width="1.5" d="M0,-3.0v7 M-2.5,-0.5L0,-3.0L2.5,-0.5"/>
                </g>
                <g id="arrowDown" xlink:href="#dirArrow" transform="rotate(180) translate(-30 -48)" onmousedown="handlePan(0,1)">
                  <use xlink:href="#rim" fill="#404040">
                        <set attributeName="fill" to="#808080" begin="arrowDown.mouseover" end="arrowDown.mouseout"/>
                  </use>
                  <path fill="none" stroke="white" stroke-width="1.5" d="M0,-3.0v7 M-2.5,-0.5L0,-3.0L2.5,-0.5"/>
                </g>
                <g id="arrowLeft" xlink:href="#dirArrow" transform="rotate(270) translate(-36 17)" onmousedown="handlePan(-1,0)">
                  <use xlink:href="#rim" fill="#404040">
                        <set attributeName="fill" to="#808080" begin="arrowLeft.mouseover" end="arrowLeft.mouseout"/>
                  </use>
                  <path fill="none" stroke="white" stroke-width="1.5" d="M0,-3.0v7 M-2.5,-0.5L0,-3.0L2.5,-0.5"/>
                </g>
        </g>
        <svg viewBox="0 0 15 15" width="100%" height="30px" preserveAspectRatio="xMaxYMin meet">
         <g id="arrow_out" transform="scale(0.3 0.3)">
          <a xlink:href="class_pipe_line_action__inherit__graph_org.svg" target="_base">
           <rect id="button" ry="5" rx="5" y="6" x="6" height="38" width="38"
                fill="#f2f5e9" fill-opacity="0.5" stroke="#606060" stroke-width="1.0"/>
           <path id="arrow"
             d="M 11.500037,31.436501 C 11.940474,20.09759 22.043105,11.32322 32.158766,21.979434 L 37.068811,17.246167 C 37.068811,17.246167 37.088388,32 37.088388,32 L 22.160133,31.978069 C 22.160133,31.978069 26.997745,27.140456 26.997745,27.140456 C 18.528582,18.264221 13.291696,25.230495 11.500037,31.436501 z"
             style="fill:#404040;"/>
          </a>
         </g>
        </svg>
</svg>
