<?xml version="1.0" encoding="UTF-8" standalone="no"?>
<!DOCTYPE svg PUBLIC "-//W3C//DTD SVG 1.1//EN"
 "http://www.w3.org/Graphics/SVG/1.1/DTD/svg11.dtd">
<!-- Generated by graphviz version 2.38.0 (20140413.2041)
 -->
<!-- Title: PanTiltController::PanTiltController Pages: 1 -->
<svg width="680pt" height="39pt"
 viewBox="0.00 0.00 680.00 39.00" xmlns="http://www.w3.org/2000/svg" xmlns:xlink="http://www.w3.org/1999/xlink">
<g id="graph0" class="graph" transform="scale(1 1) rotate(0) translate(4 35)">
<title>PanTiltController::PanTiltController</title>
<polygon fill="white" stroke="none" points="-4,4 -4,-35 676,-35 676,4 -4,4"/>
<!-- Node1 -->
<g id="node1" class="node"><title>Node1</title>
<polygon fill="#bfbfbf" stroke="black" points="0,-0.5 0,-30.5 100,-30.5 100,-0.5 0,-0.5"/>
<text text-anchor="start" x="8" y="-18.5" font-family="Helvetica,sans-Serif" font-size="10.00">PanTiltController::</text>
<text text-anchor="middle" x="50" y="-7.5" font-family="Helvetica,sans-Serif" font-size="10.00">PanTiltController</text>
</g>
<!-- Node2 -->
<g id="node2" class="node"><title>Node2</title>
<g id="a_node2"><a xlink:href="class_pan_tilt_controller.html#aadda5450b8681c8fc4b1aa627686ab78" target="_top" xlink:title="attaches the pin number to the servo&#39;s and homes the servo&#39;s ">
<polygon fill="white" stroke="black" points="136,-0.5 136,-30.5 236,-30.5 236,-0.5 136,-0.5"/>
<text text-anchor="start" x="144" y="-18.5" font-family="Helvetica,sans-Serif" font-size="10.00">PanTiltController::</text>
<text text-anchor="middle" x="186" y="-7.5" font-family="Helvetica,sans-Serif" font-size="10.00">initServos</text>
</a>
</g>
</g>
<!-- Node1&#45;&gt;Node2 -->
<g id="edge1" class="edge"><title>Node1&#45;&gt;Node2</title>
<path fill="none" stroke="midnightblue" d="M100.136,-15.5C108.42,-15.5 117.097,-15.5 125.608,-15.5"/>
<polygon fill="midnightblue" stroke="midnightblue" points="125.87,-19.0001 135.87,-15.5 125.87,-12.0001 125.87,-19.0001"/>
</g>
<!-- Node3 -->
<g id="node3" class="node"><title>Node3</title>
<g id="a_node3"><a xlink:href="class_pan_tilt_controller.html#a980df672a9acb8e59656996d293972db" target="_top" xlink:title="Homes the pan and tilt motors. ">
<polygon fill="white" stroke="black" points="272,-6 272,-25 400,-25 400,-6 272,-6"/>
<text text-anchor="middle" x="336" y="-13" font-family="Helvetica,sans-Serif" font-size="10.00">PanTiltController::home</text>
</a>
</g>
</g>
<!-- Node2&#45;&gt;Node3 -->
<g id="edge2" class="edge"><title>Node2&#45;&gt;Node3</title>
<path fill="none" stroke="midnightblue" d="M236.282,-15.5C244.502,-15.5 253.181,-15.5 261.845,-15.5"/>
<polygon fill="midnightblue" stroke="midnightblue" points="261.98,-19.0001 271.98,-15.5 261.98,-12.0001 261.98,-19.0001"/>
</g>
<!-- Node4 -->
<g id="node4" class="node"><title>Node4</title>
<g id="a_node4"><a xlink:href="class_pan_tilt_controller.html#a5a95d7d7997788f3117cdc50b44693dd" target="_top" xlink:title="Sets the position of the pan and tilt motor. ">
<polygon fill="white" stroke="black" points="436,-0.5 436,-30.5 536,-30.5 536,-0.5 436,-0.5"/>
<text text-anchor="start" x="444" y="-18.5" font-family="Helvetica,sans-Serif" font-size="10.00">PanTiltController::</text>
<text text-anchor="middle" x="486" y="-7.5" font-family="Helvetica,sans-Serif" font-size="10.00">setPosition</text>
</a>
</g>
</g>
<!-- Node3&#45;&gt;Node4 -->
<g id="edge3" class="edge"><title>Node3&#45;&gt;Node4</title>
<path fill="none" stroke="midnightblue" d="M400.195,-15.5C408.685,-15.5 417.369,-15.5 425.787,-15.5"/>
<polygon fill="midnightblue" stroke="midnightblue" points="425.892,-19.0001 435.892,-15.5 425.892,-12.0001 425.892,-19.0001"/>
</g>
<!-- Node5 -->
<g id="node5" class="node"><title>Node5</title>
<g id="a_node5"><a xlink:href="class_pan_tilt_controller.html#af1fe53e54c0254f05377bf9d2b394af7" target="_top" xlink:title="Limits an angle between 0° and 180° ">
<polygon fill="white" stroke="black" points="572,-0.5 572,-30.5 672,-30.5 672,-0.5 572,-0.5"/>
<text text-anchor="start" x="580" y="-18.5" font-family="Helvetica,sans-Serif" font-size="10.00">PanTiltController::</text>
<text text-anchor="middle" x="622" y="-7.5" font-family="Helvetica,sans-Serif" font-size="10.00">limit</text>
</a>
</g>
</g>
<!-- Node4&#45;&gt;Node5 -->
<g id="edge4" class="edge"><title>Node4&#45;&gt;Node5</title>
<path fill="none" stroke="midnightblue" d="M536.136,-15.5C544.42,-15.5 553.097,-15.5 561.608,-15.5"/>
<polygon fill="midnightblue" stroke="midnightblue" points="561.87,-19.0001 571.87,-15.5 561.87,-12.0001 561.87,-19.0001"/>
</g>
</g>
</svg>
