<?xml version="1.0" encoding="UTF-8" standalone="no"?>
<!DOCTYPE svg PUBLIC "-//W3C//DTD SVG 1.1//EN"
 "http://www.w3.org/Graphics/SVG/1.1/DTD/svg11.dtd">
<!-- Generated by graphviz version 2.44.0 ()
 -->
<!-- Title: PipeLineAction Pages: 1 -->
<!--zoomable 446 -->
<svg id="main" version="1.1" xmlns="http://www.w3.org/2000/svg" xmlns:xlink="http://www.w3.org/1999/xlink" xml:space="preserve" onload="init(evt)">
<style type="text/css"><![CDATA[
.edge:hover path { stroke: red; }
.edge:hover polygon { stroke: red; fill: red; }
]]></style>
<script type="text/javascript"><![CDATA[
var edges = document.getElementsByTagName('g');
if (edges && edges.length) {
  for (var i=0;i<edges.length;i++) {
    if (edges[i].id.substr(0,4)=='edge') {
      edges[i].setAttribute('class','edge');
    }
  }
}
]]></script>
        <defs>
                <circle id="rim" cx="0" cy="0" r="7"/>
                <circle id="rim2" cx="0" cy="0" r="3.5"/>
                <g id="zoomPlus">
                        <use xlink:href="#rim" fill="#404040">
                                <set attributeName="fill" to="#808080" begin="zoomplus.mouseover" end="zoomplus.mouseout"/>
                        </use>
                        <path d="M-4,0h8M0,-4v8" fill="none" stroke="white" stroke-width="1.5" pointer-events="none"/>
                </g>
                <g id="zoomMin">
                        <use xlink:href="#rim" fill="#404040">
                                <set attributeName="fill" to="#808080" begin="zoomminus.mouseover" end="zoomminus.mouseout"/>
                        </use>
                        <path d="M-4,0h8" fill="none" stroke="white" stroke-width="1.5" pointer-events="none"/>
                </g>
                <g id="dirArrow">
                        <path fill="none" stroke="white" stroke-width="1.5" d="M0,-3.0v7 M-2.5,-0.5L0,-3.0L2.5,-0.5"/>
                </g>
               <g id="resetDef">
                       <use xlink:href="#rim2" fill="#404040">
                               <set attributeName="fill" to="#808080" begin="reset.mouseover" end="reset.mouseout"/>
                       </use>
               </g>
        </defs>

<script type="text/javascript">
var viewWidth = 609;
var viewHeight = 446;
var sectionId = 'dynsection-0';
</script>
<script xlink:href="svgpan.js"/>
<svg id="graph" class="graph">
<g id="viewport">
<title>PipeLineAction</title>
<polygon fill="white" stroke="transparent" points="-4,4 -4,-442 605,-442 605,4 -4,4"/>
<!-- Node1 -->
<g id="node1" class="node">
<title>Node1</title>
<g id="a_node1"><a xlink:title="Base&#45;class for all OpenCV pipeline actions.">
<polygon fill="#bfbfbf" stroke="black" points="223,-292.5 223,-437.5 320,-437.5 320,-292.5 223,-292.5"/>
<text text-anchor="middle" x="271.5" y="-425.5" font-family="Helvetica,sans-Serif" font-size="10.00">PipeLineAction</text>
<polyline fill="none" stroke="black" points="223,-418.5 320,-418.5 "/>
<text text-anchor="start" x="231" y="-406.5" font-family="Helvetica,sans-Serif" font-size="10.00"># img</text>
<text text-anchor="start" x="231" y="-395.5" font-family="Helvetica,sans-Serif" font-size="10.00"># show</text>
<text text-anchor="start" x="231" y="-384.5" font-family="Helvetica,sans-Serif" font-size="10.00"># name</text>
<polyline fill="none" stroke="black" points="223,-377.5 320,-377.5 "/>
<text text-anchor="start" x="231" y="-365.5" font-family="Helvetica,sans-Serif" font-size="10.00">+ PipeLineAction()</text>
<text text-anchor="start" x="231" y="-354.5" font-family="Helvetica,sans-Serif" font-size="10.00">+ PipeLineAction()</text>
<text text-anchor="start" x="231" y="-343.5" font-family="Helvetica,sans-Serif" font-size="10.00">+ setAction()</text>
<text text-anchor="start" x="231" y="-332.5" font-family="Helvetica,sans-Serif" font-size="10.00">+ getAction()</text>
<text text-anchor="start" x="231" y="-321.5" font-family="Helvetica,sans-Serif" font-size="10.00">+ showWindow()</text>
<text text-anchor="start" x="231" y="-310.5" font-family="Helvetica,sans-Serif" font-size="10.00">+ hideWindow()</text>
<text text-anchor="start" x="231" y="-299.5" font-family="Helvetica,sans-Serif" font-size="10.00">+ getName()</text>
</a>
</g>
</g>
<!-- Node2 -->
<g id="node2" class="node">
<title>Node2</title>
<g id="a_node2"><a xlink:href="classBlur.html" target="_top" xlink:title="Child&#45;classe, implements OpenCV&#39;s GaussianBlur.">
<polygon fill="white" stroke="black" points="0,-66.5 0,-189.5 89,-189.5 89,-66.5 0,-66.5"/>
<text text-anchor="middle" x="44.5" y="-177.5" font-family="Helvetica,sans-Serif" font-size="10.00">Blur</text>
<polyline fill="none" stroke="black" points="0,-170.5 89,-170.5 "/>
<text text-anchor="start" x="8" y="-158.5" font-family="Helvetica,sans-Serif" font-size="10.00">&#45; maxValue</text>
<text text-anchor="start" x="8" y="-147.5" font-family="Helvetica,sans-Serif" font-size="10.00">&#45; slider</text>
<text text-anchor="start" x="8" y="-136.5" font-family="Helvetica,sans-Serif" font-size="10.00">&#45; sigma</text>
<text text-anchor="start" x="8" y="-125.5" font-family="Helvetica,sans-Serif" font-size="10.00">&#45; kernelSize</text>
<polyline fill="none" stroke="black" points="0,-118.5 89,-118.5 "/>
<text text-anchor="start" x="8" y="-106.5" font-family="Helvetica,sans-Serif" font-size="10.00">+ Blur()</text>
<text text-anchor="start" x="8" y="-95.5" font-family="Helvetica,sans-Serif" font-size="10.00">+ setAction()</text>
<text text-anchor="start" x="8" y="-84.5" font-family="Helvetica,sans-Serif" font-size="10.00">+ showWindow()</text>
<text text-anchor="start" x="8" y="-73.5" font-family="Helvetica,sans-Serif" font-size="10.00">+ onChange()</text>
</a>
</g>
</g>
<!-- Node1&#45;&gt;Node2 -->
<g id="edge1" class="edge">
<title>Node1&#45;&gt;Node2</title>
<path fill="none" stroke="midnightblue" d="M213.67,-339.5C176.3,-321.18 128.95,-292.94 97.5,-256 81.31,-236.99 69.51,-212.34 61.21,-189.82"/>
<polygon fill="none" stroke="midnightblue" points="212.41,-342.78 222.94,-343.95 215.43,-336.47 212.41,-342.78"/>
</g>
<!-- Node3 -->
<g id="node3" class="node">
<title>Node3</title>
<g id="a_node3"><a xlink:href="classContour.html" target="_top" xlink:title="Child&#45;classe, implements OpenCV&#39;s contour finding.">
<polygon fill="white" stroke="black" points="107,-44.5 107,-211.5 196,-211.5 196,-44.5 107,-44.5"/>
<text text-anchor="middle" x="151.5" y="-199.5" font-family="Helvetica,sans-Serif" font-size="10.00">Contour</text>
<polyline fill="none" stroke="black" points="107,-192.5 196,-192.5 "/>
<text text-anchor="start" x="115" y="-180.5" font-family="Helvetica,sans-Serif" font-size="10.00">&#45; contours</text>
<text text-anchor="start" x="115" y="-169.5" font-family="Helvetica,sans-Serif" font-size="10.00">&#45; polylines</text>
<text text-anchor="start" x="115" y="-158.5" font-family="Helvetica,sans-Serif" font-size="10.00">&#45; green</text>
<text text-anchor="start" x="115" y="-147.5" font-family="Helvetica,sans-Serif" font-size="10.00">&#45; red</text>
<text text-anchor="start" x="115" y="-136.5" font-family="Helvetica,sans-Serif" font-size="10.00">&#45; accuracyMax</text>
<text text-anchor="start" x="115" y="-125.5" font-family="Helvetica,sans-Serif" font-size="10.00">&#45; areaMax</text>
<text text-anchor="start" x="115" y="-114.5" font-family="Helvetica,sans-Serif" font-size="10.00">&#45; accuracy</text>
<text text-anchor="start" x="115" y="-103.5" font-family="Helvetica,sans-Serif" font-size="10.00">&#45; area</text>
<polyline fill="none" stroke="black" points="107,-96.5 196,-96.5 "/>
<text text-anchor="start" x="115" y="-84.5" font-family="Helvetica,sans-Serif" font-size="10.00">+ Contour()</text>
<text text-anchor="start" x="115" y="-73.5" font-family="Helvetica,sans-Serif" font-size="10.00">+ setAction()</text>
<text text-anchor="start" x="115" y="-62.5" font-family="Helvetica,sans-Serif" font-size="10.00">+ getAction()</text>
<text text-anchor="start" x="115" y="-51.5" font-family="Helvetica,sans-Serif" font-size="10.00">+ showWindow()</text>
</a>
</g>
</g>
<!-- Node1&#45;&gt;Node3 -->
<g id="edge2" class="edge">
<title>Node1&#45;&gt;Node3</title>
<path fill="none" stroke="midnightblue" d="M219.67,-283.56C214.33,-274.38 209.17,-265.07 204.5,-256 197.23,-241.87 190.16,-226.52 183.68,-211.52"/>
<polygon fill="none" stroke="midnightblue" points="216.73,-285.47 224.82,-292.31 222.76,-281.91 216.73,-285.47"/>
</g>
<!-- Node4 -->
<g id="node4" class="node">
<title>Node4</title>
<g id="a_node4"><a xlink:href="classConvertColorSpace.html" target="_top" xlink:title="Child&#45;classe, converts from BGR to HSV color space.">
<polygon fill="white" stroke="black" points="214,-88.5 214,-167.5 329,-167.5 329,-88.5 214,-88.5"/>
<text text-anchor="middle" x="271.5" y="-155.5" font-family="Helvetica,sans-Serif" font-size="10.00">ConvertColorSpace</text>
<polyline fill="none" stroke="black" points="214,-148.5 329,-148.5 "/>
<text text-anchor="middle" x="271.5" y="-136.5" font-family="Helvetica,sans-Serif" font-size="10.00"> </text>
<polyline fill="none" stroke="black" points="214,-129.5 329,-129.5 "/>
<text text-anchor="start" x="222" y="-117.5" font-family="Helvetica,sans-Serif" font-size="10.00">+ ConvertColorSpace()</text>
<text text-anchor="start" x="222" y="-106.5" font-family="Helvetica,sans-Serif" font-size="10.00">+ setAction()</text>
<text text-anchor="start" x="222" y="-95.5" font-family="Helvetica,sans-Serif" font-size="10.00">+ showWindow()</text>
</a>
</g>
</g>
<!-- Node1&#45;&gt;Node4 -->
<g id="edge3" class="edge">
<title>Node1&#45;&gt;Node4</title>
<path fill="none" stroke="midnightblue" d="M271.5,-281.95C271.5,-243.11 271.5,-198.57 271.5,-167.61"/>
<polygon fill="none" stroke="midnightblue" points="268,-282.22 271.5,-292.22 275,-282.22 268,-282.22"/>
</g>
<!-- Node5 -->
<g id="node5" class="node">
<title>Node5</title>
<g id="a_node5"><a xlink:href="classMask.html" target="_top" xlink:title="Child&#45;classe, applies a mask to the input matrix.">
<polygon fill="white" stroke="black" points="347,-0.5 347,-255.5 476,-255.5 476,-0.5 347,-0.5"/>
<text text-anchor="middle" x="411.5" y="-243.5" font-family="Helvetica,sans-Serif" font-size="10.00">Mask</text>
<polyline fill="none" stroke="black" points="347,-236.5 476,-236.5 "/>
<text text-anchor="start" x="355" y="-224.5" font-family="Helvetica,sans-Serif" font-size="10.00">&#45; maxValueH</text>
<text text-anchor="start" x="355" y="-213.5" font-family="Helvetica,sans-Serif" font-size="10.00">&#45; maxValue</text>
<text text-anchor="start" x="355" y="-202.5" font-family="Helvetica,sans-Serif" font-size="10.00">&#45; maxValuePixel</text>
<text text-anchor="start" x="355" y="-191.5" font-family="Helvetica,sans-Serif" font-size="10.00">&#45; lowH</text>
<text text-anchor="start" x="355" y="-180.5" font-family="Helvetica,sans-Serif" font-size="10.00">&#45; lowS</text>
<text text-anchor="start" x="355" y="-169.5" font-family="Helvetica,sans-Serif" font-size="10.00">&#45; lowV</text>
<text text-anchor="start" x="355" y="-158.5" font-family="Helvetica,sans-Serif" font-size="10.00">&#45; highH</text>
<text text-anchor="start" x="355" y="-147.5" font-family="Helvetica,sans-Serif" font-size="10.00">&#45; highS</text>
<text text-anchor="start" x="355" y="-136.5" font-family="Helvetica,sans-Serif" font-size="10.00">&#45; highV</text>
<text text-anchor="start" x="355" y="-125.5" font-family="Helvetica,sans-Serif" font-size="10.00">&#45; pixelSize</text>
<polyline fill="none" stroke="black" points="347,-118.5 476,-118.5 "/>
<text text-anchor="start" x="355" y="-106.5" font-family="Helvetica,sans-Serif" font-size="10.00">+ Mask()</text>
<text text-anchor="start" x="355" y="-95.5" font-family="Helvetica,sans-Serif" font-size="10.00">+ Mask()</text>
<text text-anchor="start" x="355" y="-84.5" font-family="Helvetica,sans-Serif" font-size="10.00">+ setAction()</text>
<text text-anchor="start" x="355" y="-73.5" font-family="Helvetica,sans-Serif" font-size="10.00">+ showWindow()</text>
<text text-anchor="start" x="355" y="-62.5" font-family="Helvetica,sans-Serif" font-size="10.00">&#45; onLowHTreshTrackbar()</text>
<text text-anchor="start" x="355" y="-51.5" font-family="Helvetica,sans-Serif" font-size="10.00">&#45; onHighHTreshTrackbar()</text>
<text text-anchor="start" x="355" y="-40.5" font-family="Helvetica,sans-Serif" font-size="10.00">&#45; onLowSTreshTrackbar()</text>
<text text-anchor="start" x="355" y="-29.5" font-family="Helvetica,sans-Serif" font-size="10.00">&#45; onHighSTreshTrackbar()</text>
<text text-anchor="start" x="355" y="-18.5" font-family="Helvetica,sans-Serif" font-size="10.00">&#45; onLowVTreshTrackbar()</text>
<text text-anchor="start" x="355" y="-7.5" font-family="Helvetica,sans-Serif" font-size="10.00">&#45; onHighVTreshTrackbar()</text>
</a>
</g>
</g>
<!-- Node1&#45;&gt;Node5 -->
<g id="edge4" class="edge">
<title>Node1&#45;&gt;Node5</title>
<path fill="none" stroke="midnightblue" d="M321.61,-283.89C327.35,-274.51 333.09,-265.06 338.5,-256 341.24,-251.42 344.02,-246.73 346.82,-241.99"/>
<polygon fill="none" stroke="midnightblue" points="318.6,-282.11 316.35,-292.46 324.56,-285.77 318.6,-282.11"/>
</g>
<!-- Node6 -->
<g id="node6" class="node">
<title>Node6</title>
<g id="a_node6"><a xlink:href="classMoment.html" target="_top" xlink:title="Child&#45;classe, implements OpenCV&#39;s center of mass finding.">
<polygon fill="white" stroke="black" points="494,-61 494,-195 601,-195 601,-61 494,-61"/>
<text text-anchor="middle" x="547.5" y="-183" font-family="Helvetica,sans-Serif" font-size="10.00">Moment</text>
<polyline fill="none" stroke="black" points="494,-176 601,-176 "/>
<text text-anchor="start" x="502" y="-164" font-family="Helvetica,sans-Serif" font-size="10.00">&#45; m</text>
<text text-anchor="start" x="502" y="-153" font-family="Helvetica,sans-Serif" font-size="10.00">&#45; center</text>
<text text-anchor="start" x="502" y="-142" font-family="Helvetica,sans-Serif" font-size="10.00">&#45; areaMax</text>
<text text-anchor="start" x="502" y="-131" font-family="Helvetica,sans-Serif" font-size="10.00">&#45; area</text>
<polyline fill="none" stroke="black" points="494,-124 601,-124 "/>
<text text-anchor="start" x="502" y="-112" font-family="Helvetica,sans-Serif" font-size="10.00">+ Moment()</text>
<text text-anchor="start" x="502" y="-101" font-family="Helvetica,sans-Serif" font-size="10.00">+ setAction()</text>
<text text-anchor="start" x="502" y="-90" font-family="Helvetica,sans-Serif" font-size="10.00">+ getAction()</text>
<text text-anchor="start" x="502" y="-79" font-family="Helvetica,sans-Serif" font-size="10.00">+ getCenterOfMass()</text>
<text text-anchor="start" x="502" y="-68" font-family="Helvetica,sans-Serif" font-size="10.00">+ showWindow()</text>
</a>
</g>
</g>
<!-- Node1&#45;&gt;Node6 -->
<g id="edge5" class="edge">
<title>Node1&#45;&gt;Node6</title>
<path fill="none" stroke="midnightblue" d="M329.81,-346.22C376.81,-329.38 442.02,-300.06 485.5,-256 502.3,-238.97 515.3,-216.49 524.95,-195.19"/>
<polygon fill="none" stroke="midnightblue" points="328.65,-342.91 320.37,-349.52 330.97,-349.52 328.65,-342.91"/>
</g>
</g>
</svg>
        <g id="navigator" transform="translate(0 0)" fill="#404254">
                <rect fill="#f2f5e9" fill-opacity="0.5" stroke="#606060" stroke-width=".5" x="0" y="0" width="60" height="60"/>
                <use id="zoomplus" xlink:href="#zoomPlus" x="17" y="9" onmousedown="handleZoom(evt,'in')"/>
                <use id="zoomminus" xlink:href="#zoomMin" x="42" y="9" onmousedown="handleZoom(evt,'out')"/>
                <use id="reset" xlink:href="#resetDef" x="30" y="36" onmousedown="handleReset()"/>
                <g id="arrowUp" xlink:href="#dirArrow" transform="translate(30 24)" onmousedown="handlePan(0,-1)">
                  <use xlink:href="#rim" fill="#404040">
                        <set attributeName="fill" to="#808080" begin="arrowUp.mouseover" end="arrowUp.mouseout"/>
                  </use>
                  <path fill="none" stroke="white" stroke-width="1.5" d="M0,-3.0v7 M-2.5,-0.5L0,-3.0L2.5,-0.5"/>
                </g>
                <g id="arrowRight" xlink:href="#dirArrow" transform="rotate(90) translate(36 -43)" onmousedown="handlePan(1,0)">
                  <use xlink:href="#rim" fill="#404040">
                        <set attributeName="fill" to="#808080" begin="arrowRight.mouseover" end="arrowRight.mouseout"/>
                  </use>
                  <path fill="none" stroke="white" stroke-width="1.5" d="M0,-3.0v7 M-2.5,-0.5L0,-3.0L2.5,-0.5"/>
                </g>
                <g id="arrowDown" xlink:href="#dirArrow" transform="rotate(180) translate(-30 -48)" onmousedown="handlePan(0,1)">
                  <use xlink:href="#rim" fill="#404040">
                        <set attributeName="fill" to="#808080" begin="arrowDown.mouseover" end="arrowDown.mouseout"/>
                  </use>
                  <path fill="none" stroke="white" stroke-width="1.5" d="M0,-3.0v7 M-2.5,-0.5L0,-3.0L2.5,-0.5"/>
                </g>
                <g id="arrowLeft" xlink:href="#dirArrow" transform="rotate(270) translate(-36 17)" onmousedown="handlePan(-1,0)">
                  <use xlink:href="#rim" fill="#404040">
                        <set attributeName="fill" to="#808080" begin="arrowLeft.mouseover" end="arrowLeft.mouseout"/>
                  </use>
                  <path fill="none" stroke="white" stroke-width="1.5" d="M0,-3.0v7 M-2.5,-0.5L0,-3.0L2.5,-0.5"/>
                </g>
        </g>
        <svg viewBox="0 0 15 15" width="100%" height="30px" preserveAspectRatio="xMaxYMin meet">
         <g id="arrow_out" transform="scale(0.3 0.3)">
          <a xlink:href="classPipeLineAction__inherit__graph_org.svg" target="_base">
           <rect id="button" ry="5" rx="5" y="6" x="6" height="38" width="38"
                fill="#f2f5e9" fill-opacity="0.5" stroke="#606060" stroke-width="1.0"/>
           <path id="arrow"
             d="M 11.500037,31.436501 C 11.940474,20.09759 22.043105,11.32322 32.158766,21.979434 L 37.068811,17.246167 C 37.068811,17.246167 37.088388,32 37.088388,32 L 22.160133,31.978069 C 22.160133,31.978069 26.997745,27.140456 26.997745,27.140456 C 18.528582,18.264221 13.291696,25.230495 11.500037,31.436501 z"
             style="fill:#404040;"/>
          </a>
         </g>
        </svg>
</svg>
