<?xml version="1.0" encoding="UTF-8" standalone="no"?>
<!DOCTYPE svg PUBLIC "-//W3C//DTD SVG 1.1//EN"
 "http://www.w3.org/Graphics/SVG/1.1/DTD/svg11.dtd">
<!-- Generated by graphviz version 2.38.0 (20140413.2041)
 -->
<!-- Title: PanTiltController::setPosition Pages: 1 -->
<svg width="680pt" height="83pt"
 viewBox="0.00 0.00 680.00 83.00" xmlns="http://www.w3.org/2000/svg" xmlns:xlink="http://www.w3.org/1999/xlink">
<g id="graph0" class="graph" transform="scale(1 1) rotate(0) translate(4 79)">
<title>PanTiltController::setPosition</title>
<polygon fill="white" stroke="none" points="-4,4 -4,-79 676,-79 676,4 -4,4"/>
<!-- Node1 -->
<g id="node1" class="node"><title>Node1</title>
<polygon fill="#bfbfbf" stroke="black" points="0,-22.5 0,-52.5 100,-52.5 100,-22.5 0,-22.5"/>
<text text-anchor="start" x="8" y="-40.5" font-family="Helvetica,sans-Serif" font-size="10.00">PanTiltController::</text>
<text text-anchor="middle" x="50" y="-29.5" font-family="Helvetica,sans-Serif" font-size="10.00">setPosition</text>
</g>
<!-- Node2 -->
<g id="node2" class="node"><title>Node2</title>
<g id="a_node2"><a xlink:href="class_pan_tilt_controller.html#ab7ca3ce4412aa3c2fc48fd21de895d49" target="_top" xlink:title="Sets the position of the pan and tilt motor. ">
<polygon fill="white" stroke="black" points="150,-44.5 150,-74.5 250,-74.5 250,-44.5 150,-44.5"/>
<text text-anchor="start" x="158" y="-62.5" font-family="Helvetica,sans-Serif" font-size="10.00">PanTiltController::</text>
<text text-anchor="middle" x="200" y="-51.5" font-family="Helvetica,sans-Serif" font-size="10.00">setPositionOffSet</text>
</a>
</g>
</g>
<!-- Node1&#45;&gt;Node2 -->
<g id="edge1" class="edge"><title>Node1&#45;&gt;Node2</title>
<path fill="none" stroke="midnightblue" d="M110.203,-46.3005C123.382,-48.2596 137.214,-50.3156 149.933,-52.2063"/>
<polygon fill="midnightblue" stroke="midnightblue" points="110.688,-42.8341 100.282,-44.8257 109.659,-49.7581 110.688,-42.8341"/>
</g>
<!-- Node3 -->
<g id="node3" class="node"><title>Node3</title>
<g id="a_node3"><a xlink:href="class_pan_tilt_controller.html#a980df672a9acb8e59656996d293972db" target="_top" xlink:title="Homes the pan and tilt motors. ">
<polygon fill="white" stroke="black" points="136,-6 136,-25 264,-25 264,-6 136,-6"/>
<text text-anchor="middle" x="200" y="-13" font-family="Helvetica,sans-Serif" font-size="10.00">PanTiltController::home</text>
</a>
</g>
</g>
<!-- Node1&#45;&gt;Node3 -->
<g id="edge2" class="edge"><title>Node1&#45;&gt;Node3</title>
<path fill="none" stroke="midnightblue" d="M110.391,-28.6716C118.811,-27.42 127.494,-26.1293 135.98,-24.8679"/>
<polygon fill="midnightblue" stroke="midnightblue" points="109.659,-25.2419 100.282,-30.1743 110.688,-32.1659 109.659,-25.2419"/>
</g>
<!-- Node4 -->
<g id="node4" class="node"><title>Node4</title>
<g id="a_node4"><a xlink:href="class_pan_tilt_controller.html#aadda5450b8681c8fc4b1aa627686ab78" target="_top" xlink:title="attaches the pin number to the servo&#39;s and homes the servo&#39;s ">
<polygon fill="white" stroke="black" points="300,-0.5 300,-30.5 400,-30.5 400,-0.5 300,-0.5"/>
<text text-anchor="start" x="308" y="-18.5" font-family="Helvetica,sans-Serif" font-size="10.00">PanTiltController::</text>
<text text-anchor="middle" x="350" y="-7.5" font-family="Helvetica,sans-Serif" font-size="10.00">initServos</text>
</a>
</g>
</g>
<!-- Node3&#45;&gt;Node4 -->
<g id="edge3" class="edge"><title>Node3&#45;&gt;Node4</title>
<path fill="none" stroke="midnightblue" d="M274.333,-15.5C282.999,-15.5 291.677,-15.5 299.892,-15.5"/>
<polygon fill="midnightblue" stroke="midnightblue" points="274.195,-12.0001 264.195,-15.5 274.195,-19.0001 274.195,-12.0001"/>
</g>
<!-- Node5 -->
<g id="node5" class="node"><title>Node5</title>
<g id="a_node5"><a xlink:href="class_pan_tilt_controller.html#a9bf2969c6d318aab4c3508c60a87f8d3" target="_top" xlink:title="constructor of the class ">
<polygon fill="white" stroke="black" points="436,-0.5 436,-30.5 536,-30.5 536,-0.5 436,-0.5"/>
<text text-anchor="start" x="444" y="-18.5" font-family="Helvetica,sans-Serif" font-size="10.00">PanTiltController::</text>
<text text-anchor="middle" x="486" y="-7.5" font-family="Helvetica,sans-Serif" font-size="10.00">PanTiltController</text>
</a>
</g>
</g>
<!-- Node4&#45;&gt;Node5 -->
<g id="edge4" class="edge"><title>Node4&#45;&gt;Node5</title>
<path fill="none" stroke="midnightblue" d="M410.398,-15.5C418.909,-15.5 427.586,-15.5 435.87,-15.5"/>
<polygon fill="midnightblue" stroke="midnightblue" points="410.136,-12.0001 400.136,-15.5 410.136,-19.0001 410.136,-12.0001"/>
</g>
<!-- Node6 -->
<g id="node6" class="node"><title>Node6</title>
<g id="a_node6"><a xlink:href="class_pan_tilt_controller.html#ab6b65c6e12ebbd0ccf007f6c457e5f1a" target="_top" xlink:title="Creates a object if there isn&#39;t one already. ">
<polygon fill="white" stroke="black" points="572,-0.5 572,-30.5 672,-30.5 672,-0.5 572,-0.5"/>
<text text-anchor="start" x="580" y="-18.5" font-family="Helvetica,sans-Serif" font-size="10.00">PanTiltController::</text>
<text text-anchor="middle" x="622" y="-7.5" font-family="Helvetica,sans-Serif" font-size="10.00">initialize</text>
</a>
</g>
</g>
<!-- Node5&#45;&gt;Node6 -->
<g id="edge5" class="edge"><title>Node5&#45;&gt;Node6</title>
<path fill="none" stroke="midnightblue" d="M546.398,-15.5C554.909,-15.5 563.586,-15.5 571.87,-15.5"/>
<polygon fill="midnightblue" stroke="midnightblue" points="546.136,-12.0001 536.136,-15.5 546.136,-19.0001 546.136,-12.0001"/>
</g>
</g>
</svg>
