<?xml version="1.0" encoding="UTF-8" standalone="no"?>
<!DOCTYPE svg PUBLIC "-//W3C//DTD SVG 1.1//EN"
 "http://www.w3.org/Graphics/SVG/1.1/DTD/svg11.dtd">
<!-- Generated by graphviz version 2.44.0 ()
 -->
<!-- Title: CommandParser::parse Pages: 1 -->
<svg width="326pt" height="66pt"
 viewBox="0.00 0.00 326.00 66.00" xmlns="http://www.w3.org/2000/svg" xmlns:xlink="http://www.w3.org/1999/xlink">
<g id="graph0" class="graph" transform="scale(1 1) rotate(0) translate(4 62)">
<title>CommandParser::parse</title>
<polygon fill="white" stroke="transparent" points="-4,4 -4,-62 322,-62 322,4 -4,4"/>
<!-- Node1 -->
<g id="node1" class="node">
<title>Node1</title>
<g id="a_node1"><a xlink:title="Reads serial input and checks for commands.">
<polygon fill="#bfbfbf" stroke="black" points="0,-19.5 0,-38.5 118,-38.5 118,-19.5 0,-19.5"/>
<text text-anchor="middle" x="59" y="-26.5" font-family="Helvetica,sans-Serif" font-size="10.00">CommandParser::parse</text>
</a>
</g>
</g>
<!-- Node2 -->
<g id="node2" class="node">
<title>Node2</title>
<g id="a_node2"><a xlink:href="classCommandParser.html#a47a9bc04d34fa32105ae338dca58241d" target="_top" xlink:title="Checks the buffer for a command Checks the buffer to see if there is a known command....">
<polygon fill="white" stroke="black" points="154,-38.5 154,-57.5 318,-57.5 318,-38.5 154,-38.5"/>
<text text-anchor="middle" x="236" y="-45.5" font-family="Helvetica,sans-Serif" font-size="10.00">CommandParser::checkCommand</text>
</a>
</g>
</g>
<!-- Node1&#45;&gt;Node2 -->
<g id="edge1" class="edge">
<title>Node1&#45;&gt;Node2</title>
<path fill="none" stroke="midnightblue" d="M118.27,-35.33C126.49,-36.22 135.1,-37.15 143.75,-38.09"/>
<polygon fill="midnightblue" stroke="midnightblue" points="143.6,-41.6 153.92,-39.2 144.35,-34.64 143.6,-41.6"/>
</g>
<!-- Node3 -->
<g id="node3" class="node">
<title>Node3</title>
<g id="a_node3"><a xlink:href="classCommandParser.html#a851a06a586b025c1d6882f637bc16fc4" target="_top" xlink:title="Checks the serial port for input if the character is a line feed(LF) or carriage return(CR) the end o...">
<polygon fill="white" stroke="black" points="163,-0.5 163,-19.5 309,-19.5 309,-0.5 163,-0.5"/>
<text text-anchor="middle" x="236" y="-7.5" font-family="Helvetica,sans-Serif" font-size="10.00">CommandParser::createBuffer</text>
</a>
</g>
</g>
<!-- Node1&#45;&gt;Node3 -->
<g id="edge2" class="edge">
<title>Node1&#45;&gt;Node3</title>
<path fill="none" stroke="midnightblue" d="M118.27,-22.67C129.35,-21.47 141.13,-20.19 152.78,-18.93"/>
<polygon fill="midnightblue" stroke="midnightblue" points="153.4,-22.38 162.97,-17.82 152.65,-15.42 153.4,-22.38"/>
</g>
</g>
</svg>
