<?xml version="1.0" encoding="UTF-8" standalone="no"?>
<!DOCTYPE svg PUBLIC "-//W3C//DTD SVG 1.1//EN"
 "http://www.w3.org/Graphics/SVG/1.1/DTD/svg11.dtd">
<!-- Generated by graphviz version 2.38.0 (20140413.2041)
 -->
<!-- Title: SerialCom::publishSucces Pages: 1 -->
<svg width="529pt" height="28pt"
 viewBox="0.00 0.00 529.00 28.00" xmlns="http://www.w3.org/2000/svg" xmlns:xlink="http://www.w3.org/1999/xlink">
<g id="graph0" class="graph" transform="scale(1 1) rotate(0) translate(4 24)">
<title>SerialCom::publishSucces</title>
<polygon fill="white" stroke="none" points="-4,4 -4,-24 525,-24 525,4 -4,4"/>
<!-- Node1 -->
<g id="node1" class="node"><title>Node1</title>
<polygon fill="#bfbfbf" stroke="black" points="0,-0.5 0,-19.5 140,-19.5 140,-0.5 0,-0.5"/>
<text text-anchor="middle" x="70" y="-7.5" font-family="Helvetica,sans-Serif" font-size="10.00">SerialCom::publishSucces</text>
</g>
<!-- Node2 -->
<g id="node2" class="node"><title>Node2</title>
<g id="a_node2"><a xlink:href="class_serial_com.html#acf9ed461d5505333d9322d743facc7f8" target="_top" xlink:title="Constructor. ">
<polygon fill="white" stroke="black" points="176,-0.5 176,-19.5 298,-19.5 298,-0.5 176,-0.5"/>
<text text-anchor="middle" x="237" y="-7.5" font-family="Helvetica,sans-Serif" font-size="10.00">SerialCom::SerialCom</text>
</a>
</g>
</g>
<!-- Node1&#45;&gt;Node2 -->
<g id="edge1" class="edge"><title>Node1&#45;&gt;Node2</title>
<path fill="none" stroke="midnightblue" d="M150.146,-10C158.813,-10 167.528,-10 175.91,-10"/>
<polygon fill="midnightblue" stroke="midnightblue" points="150.019,-6.5001 140.019,-10 150.019,-13.5001 150.019,-6.5001"/>
</g>
<!-- Node3 -->
<g id="node3" class="node"><title>Node3</title>
<g id="a_node3"><a xlink:href="class_serial_com.html#a386d2a4649e3a00b9b2f6e6cef921bbd" target="_top" xlink:title="Creates a object if there isn&#39;t one already. ">
<polygon fill="white" stroke="black" points="334,-0.5 334,-19.5 444,-19.5 444,-0.5 334,-0.5"/>
<text text-anchor="middle" x="389" y="-7.5" font-family="Helvetica,sans-Serif" font-size="10.00">SerialCom::initialize</text>
</a>
</g>
</g>
<!-- Node2&#45;&gt;Node3 -->
<g id="edge2" class="edge"><title>Node2&#45;&gt;Node3</title>
<path fill="none" stroke="midnightblue" d="M308.422,-10C316.902,-10 325.46,-10 333.661,-10"/>
<polygon fill="midnightblue" stroke="midnightblue" points="308.146,-6.5001 298.146,-10 308.146,-13.5001 308.146,-6.5001"/>
</g>
<!-- Node4 -->
<g id="node4" class="node"><title>Node4</title>
<g id="a_node4"><a xlink:href="group__main.html#ga51af30a60f9f02777c6396b8247e356f" target="_top" xlink:title="Main function. ">
<polygon fill="white" stroke="black" points="480,-0.5 480,-19.5 521,-19.5 521,-0.5 480,-0.5"/>
<text text-anchor="middle" x="500.5" y="-7.5" font-family="Helvetica,sans-Serif" font-size="10.00">main</text>
</a>
</g>
</g>
<!-- Node3&#45;&gt;Node4 -->
<g id="edge3" class="edge"><title>Node3&#45;&gt;Node4</title>
<path fill="none" stroke="midnightblue" d="M454.285,-10C463.574,-10 472.486,-10 479.906,-10"/>
<polygon fill="midnightblue" stroke="midnightblue" points="454.108,-6.5001 444.108,-10 454.108,-13.5001 454.108,-6.5001"/>
</g>
</g>
</svg>
