<?xml version="1.0" encoding="UTF-8" standalone="no"?>
<!DOCTYPE svg PUBLIC "-//W3C//DTD SVG 1.1//EN"
 "http://www.w3.org/Graphics/SVG/1.1/DTD/svg11.dtd">
<!-- Generated by graphviz version 2.44.0 ()
 -->
<!-- Title: SerialCom::SerialCom Pages: 1 -->
<svg width="330pt" height="28pt"
 viewBox="0.00 0.00 330.00 28.00" xmlns="http://www.w3.org/2000/svg" xmlns:xlink="http://www.w3.org/1999/xlink">
<g id="graph0" class="graph" transform="scale(1 1) rotate(0) translate(4 24)">
<title>SerialCom::SerialCom</title>
<polygon fill="white" stroke="transparent" points="-4,4 -4,-24 326,-24 326,4 -4,4"/>
<!-- Node1 -->
<g id="node1" class="node">
<title>Node1</title>
<g id="a_node1"><a xlink:title="Constructor.">
<polygon fill="#bfbfbf" stroke="black" points="211,-0.5 211,-19.5 322,-19.5 322,-0.5 211,-0.5"/>
<text text-anchor="middle" x="266.5" y="-7.5" font-family="Helvetica,sans-Serif" font-size="10.00">SerialCom::SerialCom</text>
</a>
</g>
</g>
<!-- Node2 -->
<g id="node2" class="node">
<title>Node2</title>
<g id="a_node2"><a xlink:href="classSerialCom.html#a386d2a4649e3a00b9b2f6e6cef921bbd" target="_top" xlink:title="Creates a object if there isn&#39;t one already.">
<polygon fill="white" stroke="black" points="74,-0.5 74,-19.5 175,-19.5 175,-0.5 74,-0.5"/>
<text text-anchor="middle" x="124.5" y="-7.5" font-family="Helvetica,sans-Serif" font-size="10.00">SerialCom::initialize</text>
</a>
</g>
</g>
<!-- Node1&#45;&gt;Node2 -->
<g id="edge1" class="edge">
<title>Node1&#45;&gt;Node2</title>
<path fill="none" stroke="midnightblue" d="M200.88,-10C192.21,-10 183.44,-10 175.08,-10"/>
<polygon fill="midnightblue" stroke="midnightblue" points="200.97,-13.5 210.97,-10 200.97,-6.5 200.97,-13.5"/>
</g>
<!-- Node3 -->
<g id="node3" class="node">
<title>Node3</title>
<g id="a_node3"><a xlink:href="group__main.html#ga51af30a60f9f02777c6396b8247e356f" target="_top" xlink:title="Main function.">
<polygon fill="white" stroke="black" points="0,-0.5 0,-19.5 38,-19.5 38,-0.5 0,-0.5"/>
<text text-anchor="middle" x="19" y="-7.5" font-family="Helvetica,sans-Serif" font-size="10.00">main</text>
</a>
</g>
</g>
<!-- Node2&#45;&gt;Node3 -->
<g id="edge2" class="edge">
<title>Node2&#45;&gt;Node3</title>
<path fill="none" stroke="midnightblue" d="M63.81,-10C54.6,-10 45.74,-10 38.42,-10"/>
<polygon fill="midnightblue" stroke="midnightblue" points="63.87,-13.5 73.87,-10 63.87,-6.5 63.87,-13.5"/>
</g>
</g>
</svg>
