<?xml version="1.0" encoding="UTF-8" standalone="no"?>
<!DOCTYPE svg PUBLIC "-//W3C//DTD SVG 1.1//EN"
 "http://www.w3.org/Graphics/SVG/1.1/DTD/svg11.dtd">
<!-- Generated by graphviz version 2.44.0 ()
 -->
<!-- Title: Mask::showWindow Pages: 1 -->
<svg width="293pt" height="218pt"
 viewBox="0.00 0.00 293.00 218.00" xmlns="http://www.w3.org/2000/svg" xmlns:xlink="http://www.w3.org/1999/xlink">
<g id="graph0" class="graph" transform="scale(1 1) rotate(0) translate(4 214)">
<title>Mask::showWindow</title>
<polygon fill="white" stroke="transparent" points="-4,4 -4,-214 289,-214 289,4 -4,4"/>
<!-- Node1 -->
<g id="node1" class="node">
<title>Node1</title>
<g id="a_node1"><a xlink:title="shows the action to the user">
<polygon fill="#bfbfbf" stroke="black" points="0,-95.5 0,-114.5 103,-114.5 103,-95.5 0,-95.5"/>
<text text-anchor="middle" x="51.5" y="-102.5" font-family="Helvetica,sans-Serif" font-size="10.00">Mask::showWindow</text>
</a>
</g>
</g>
<!-- Node2 -->
<g id="node2" class="node">
<title>Node2</title>
<g id="a_node2"><a xlink:href="classMask.html#a031f51174e376d4071375baf7129fad2" target="_top" xlink:title="Handles the change trackbar event for the high hue trackbar.">
<polygon fill="white" stroke="black" points="139,-190.5 139,-209.5 285,-209.5 285,-190.5 139,-190.5"/>
<text text-anchor="middle" x="212" y="-197.5" font-family="Helvetica,sans-Serif" font-size="10.00">Mask::onHighHTreshTrackbar</text>
</a>
</g>
</g>
<!-- Node1&#45;&gt;Node2 -->
<g id="edge1" class="edge">
<title>Node1&#45;&gt;Node2</title>
<path fill="none" stroke="midnightblue" d="M60.77,-114.76C75.06,-130.97 106.01,-163.43 139,-181 143.27,-183.27 147.83,-185.29 152.5,-187.07"/>
<polygon fill="midnightblue" stroke="midnightblue" points="151.6,-190.46 162.19,-190.41 153.88,-183.85 151.6,-190.46"/>
</g>
<!-- Node3 -->
<g id="node3" class="node">
<title>Node3</title>
<g id="a_node3"><a xlink:href="classMask.html#a9051c37f02e41e42699fdcd67e55f027" target="_top" xlink:title="Handles the change trackbar event for the high saturation trackbar.">
<polygon fill="white" stroke="black" points="139,-152.5 139,-171.5 285,-171.5 285,-152.5 139,-152.5"/>
<text text-anchor="middle" x="212" y="-159.5" font-family="Helvetica,sans-Serif" font-size="10.00">Mask::onHighSTreshTrackbar</text>
</a>
</g>
</g>
<!-- Node1&#45;&gt;Node3 -->
<g id="edge2" class="edge">
<title>Node1&#45;&gt;Node3</title>
<path fill="none" stroke="midnightblue" d="M72.07,-114.65C89.38,-122.93 115.46,-134.78 139,-143 145.88,-145.4 153.22,-147.67 160.49,-149.74"/>
<polygon fill="midnightblue" stroke="midnightblue" points="159.73,-153.16 170.3,-152.44 161.59,-146.41 159.73,-153.16"/>
</g>
<!-- Node4 -->
<g id="node4" class="node">
<title>Node4</title>
<g id="a_node4"><a xlink:href="classMask.html#a160c56278711e34a1accfedbc875ef41" target="_top" xlink:title="Handles the change trackbar event for the high value trackbar.">
<polygon fill="white" stroke="black" points="139,-114.5 139,-133.5 285,-133.5 285,-114.5 139,-114.5"/>
<text text-anchor="middle" x="212" y="-121.5" font-family="Helvetica,sans-Serif" font-size="10.00">Mask::onHighVTreshTrackbar</text>
</a>
</g>
</g>
<!-- Node1&#45;&gt;Node4 -->
<g id="edge3" class="edge">
<title>Node1&#45;&gt;Node4</title>
<path fill="none" stroke="midnightblue" d="M103.09,-111.06C111.38,-112.06 120.16,-113.11 128.98,-114.17"/>
<polygon fill="midnightblue" stroke="midnightblue" points="128.59,-117.65 138.94,-115.36 129.43,-110.7 128.59,-117.65"/>
</g>
<!-- Node5 -->
<g id="node5" class="node">
<title>Node5</title>
<g id="a_node5"><a xlink:href="classMask.html#a418768a985b64d7d79ffe206c8e3152b" target="_top" xlink:title="Handles the change trackbar event for the low hue trackbar.">
<polygon fill="white" stroke="black" points="139.5,-76.5 139.5,-95.5 284.5,-95.5 284.5,-76.5 139.5,-76.5"/>
<text text-anchor="middle" x="212" y="-83.5" font-family="Helvetica,sans-Serif" font-size="10.00">Mask::onLowHTreshTrackbar</text>
</a>
</g>
</g>
<!-- Node1&#45;&gt;Node5 -->
<g id="edge4" class="edge">
<title>Node1&#45;&gt;Node5</title>
<path fill="none" stroke="midnightblue" d="M103.09,-98.94C111.45,-97.93 120.3,-96.87 129.19,-95.81"/>
<polygon fill="midnightblue" stroke="midnightblue" points="129.72,-99.27 139.23,-94.6 128.88,-92.32 129.72,-99.27"/>
</g>
<!-- Node6 -->
<g id="node6" class="node">
<title>Node6</title>
<g id="a_node6"><a xlink:href="classMask.html#acf24eedd986e3f2ce31b700412114097" target="_top" xlink:title="Handles the change trackbar event for the low saturation trackbar.">
<polygon fill="white" stroke="black" points="140,-38.5 140,-57.5 284,-57.5 284,-38.5 140,-38.5"/>
<text text-anchor="middle" x="212" y="-45.5" font-family="Helvetica,sans-Serif" font-size="10.00">Mask::onLowSTreshTrackbar</text>
</a>
</g>
</g>
<!-- Node1&#45;&gt;Node6 -->
<g id="edge5" class="edge">
<title>Node1&#45;&gt;Node6</title>
<path fill="none" stroke="midnightblue" d="M72.07,-95.35C89.38,-87.07 115.46,-75.22 139,-67 145.88,-64.6 153.22,-62.33 160.49,-60.26"/>
<polygon fill="midnightblue" stroke="midnightblue" points="161.59,-63.59 170.3,-57.56 159.73,-56.84 161.59,-63.59"/>
</g>
<!-- Node7 -->
<g id="node7" class="node">
<title>Node7</title>
<g id="a_node7"><a xlink:href="classMask.html#a2bcbab640374e6a719ed4584a4845dfb" target="_top" xlink:title="Handles the change trackbar event for the low value trackbar.">
<polygon fill="white" stroke="black" points="140,-0.5 140,-19.5 284,-19.5 284,-0.5 140,-0.5"/>
<text text-anchor="middle" x="212" y="-7.5" font-family="Helvetica,sans-Serif" font-size="10.00">Mask::onLowVTreshTrackbar</text>
</a>
</g>
</g>
<!-- Node1&#45;&gt;Node7 -->
<g id="edge6" class="edge">
<title>Node1&#45;&gt;Node7</title>
<path fill="none" stroke="midnightblue" d="M60.77,-95.24C75.06,-79.03 106.01,-46.57 139,-29 143.27,-26.73 147.83,-24.71 152.5,-22.93"/>
<polygon fill="midnightblue" stroke="midnightblue" points="153.88,-26.15 162.19,-19.59 151.6,-19.54 153.88,-26.15"/>
</g>
</g>
</svg>
