<?xml version="1.0" encoding="UTF-8" standalone="no"?>
<!DOCTYPE svg PUBLIC "-//W3C//DTD SVG 1.1//EN"
 "http://www.w3.org/Graphics/SVG/1.1/DTD/svg11.dtd">
<!-- Generated by graphviz version 2.38.0 (20140413.2041)
 -->
<!-- Title: Contour Pages: 1 -->
<svg width="113pt" height="358pt"
 viewBox="0.00 0.00 113.00 358.00" xmlns="http://www.w3.org/2000/svg" xmlns:xlink="http://www.w3.org/1999/xlink">
<g id="graph0" class="graph" transform="scale(1 1) rotate(0) translate(4 354)">
<title>Contour</title>
<polygon fill="white" stroke="none" points="-4,4 -4,-354 109,-354 109,4 -4,4"/>
<!-- Node1 -->
<g id="node1" class="node"><title>Node1</title>
<polygon fill="#bfbfbf" stroke="black" points="5,-0.5 5,-167.5 100,-167.5 100,-0.5 5,-0.5"/>
<text text-anchor="middle" x="52.5" y="-155.5" font-family="Helvetica,sans-Serif" font-size="10.00">Contour</text>
<polyline fill="none" stroke="black" points="5,-148.5 100,-148.5 "/>
<text text-anchor="start" x="13" y="-136.5" font-family="Helvetica,sans-Serif" font-size="10.00">&#45; contours</text>
<text text-anchor="start" x="13" y="-125.5" font-family="Helvetica,sans-Serif" font-size="10.00">&#45; polylines</text>
<text text-anchor="start" x="13" y="-114.5" font-family="Helvetica,sans-Serif" font-size="10.00">&#45; green</text>
<text text-anchor="start" x="13" y="-103.5" font-family="Helvetica,sans-Serif" font-size="10.00">&#45; red</text>
<text text-anchor="start" x="13" y="-92.5" font-family="Helvetica,sans-Serif" font-size="10.00">&#45; accuracyMax</text>
<text text-anchor="start" x="13" y="-81.5" font-family="Helvetica,sans-Serif" font-size="10.00">&#45; areaMax</text>
<text text-anchor="start" x="13" y="-70.5" font-family="Helvetica,sans-Serif" font-size="10.00">&#45; accuracy</text>
<text text-anchor="start" x="13" y="-59.5" font-family="Helvetica,sans-Serif" font-size="10.00">&#45; area</text>
<polyline fill="none" stroke="black" points="5,-52.5 100,-52.5 "/>
<text text-anchor="start" x="13" y="-40.5" font-family="Helvetica,sans-Serif" font-size="10.00">+ Contour()</text>
<text text-anchor="start" x="13" y="-29.5" font-family="Helvetica,sans-Serif" font-size="10.00">+ setAction()</text>
<text text-anchor="start" x="13" y="-18.5" font-family="Helvetica,sans-Serif" font-size="10.00">+ getAction()</text>
<text text-anchor="start" x="13" y="-7.5" font-family="Helvetica,sans-Serif" font-size="10.00">+ showWindow()</text>
</g>
<!-- Node2 -->
<g id="node2" class="node"><title>Node2</title>
<g id="a_node2"><a xlink:href="class_pipe_line_action.html" target="_top" xlink:title="Base&#45;class for all OpenCV pipeline actions. ">
<polygon fill="white" stroke="black" points="0,-204.5 0,-349.5 105,-349.5 105,-204.5 0,-204.5"/>
<text text-anchor="middle" x="52.5" y="-337.5" font-family="Helvetica,sans-Serif" font-size="10.00">PipeLineAction</text>
<polyline fill="none" stroke="black" points="0,-330.5 105,-330.5 "/>
<text text-anchor="start" x="8" y="-318.5" font-family="Helvetica,sans-Serif" font-size="10.00"># img</text>
<text text-anchor="start" x="8" y="-307.5" font-family="Helvetica,sans-Serif" font-size="10.00"># show</text>
<text text-anchor="start" x="8" y="-296.5" font-family="Helvetica,sans-Serif" font-size="10.00"># name</text>
<polyline fill="none" stroke="black" points="0,-289.5 105,-289.5 "/>
<text text-anchor="start" x="8" y="-277.5" font-family="Helvetica,sans-Serif" font-size="10.00">+ PipeLineAction()</text>
<text text-anchor="start" x="8" y="-266.5" font-family="Helvetica,sans-Serif" font-size="10.00">+ PipeLineAction()</text>
<text text-anchor="start" x="8" y="-255.5" font-family="Helvetica,sans-Serif" font-size="10.00">+ setAction()</text>
<text text-anchor="start" x="8" y="-244.5" font-family="Helvetica,sans-Serif" font-size="10.00">+ getAction()</text>
<text text-anchor="start" x="8" y="-233.5" font-family="Helvetica,sans-Serif" font-size="10.00">+ showWindow()</text>
<text text-anchor="start" x="8" y="-222.5" font-family="Helvetica,sans-Serif" font-size="10.00">+ hideWindow()</text>
<text text-anchor="start" x="8" y="-211.5" font-family="Helvetica,sans-Serif" font-size="10.00">+ getName()</text>
</a>
</g>
</g>
<!-- Node2&#45;&gt;Node1 -->
<g id="edge1" class="edge"><title>Node2&#45;&gt;Node1</title>
<path fill="none" stroke="midnightblue" d="M52.5,-194.134C52.5,-185.368 52.5,-176.445 52.5,-167.67"/>
<polygon fill="none" stroke="midnightblue" points="49.0001,-194.335 52.5,-204.335 56.0001,-194.335 49.0001,-194.335"/>
</g>
</g>
</svg>
