<?xml version="1.0" encoding="UTF-8" standalone="no"?>
<!DOCTYPE svg PUBLIC "-//W3C//DTD SVG 1.1//EN"
 "http://www.w3.org/Graphics/SVG/1.1/DTD/svg11.dtd">
<!-- Generated by graphviz version 2.44.0 ()
 -->
<!-- Title: PanTiltController::home Pages: 1 -->
<svg width="512pt" height="39pt"
 viewBox="0.00 0.00 512.00 39.00" xmlns="http://www.w3.org/2000/svg" xmlns:xlink="http://www.w3.org/1999/xlink">
<g id="graph0" class="graph" transform="scale(1 1) rotate(0) translate(4 35)">
<title>PanTiltController::home</title>
<polygon fill="white" stroke="transparent" points="-4,4 -4,-35 508,-35 508,4 -4,4"/>
<!-- Node1 -->
<g id="node1" class="node">
<title>Node1</title>
<g id="a_node1"><a xlink:title="Homes the pan and tilt motors.">
<polygon fill="#bfbfbf" stroke="black" points="387,-6 387,-25 504,-25 504,-6 387,-6"/>
<text text-anchor="middle" x="445.5" y="-13" font-family="Helvetica,sans-Serif" font-size="10.00">PanTiltController::home</text>
</a>
</g>
</g>
<!-- Node2 -->
<g id="node2" class="node">
<title>Node2</title>
<g id="a_node2"><a xlink:href="classPanTiltController.html#aadda5450b8681c8fc4b1aa627686ab78" target="_top" xlink:title="attaches the pin number to the servo&#39;s and homes the servo&#39;s">
<polygon fill="white" stroke="black" points="258,-0.5 258,-30.5 351,-30.5 351,-0.5 258,-0.5"/>
<text text-anchor="start" x="266" y="-18.5" font-family="Helvetica,sans-Serif" font-size="10.00">PanTiltController::</text>
<text text-anchor="middle" x="304.5" y="-7.5" font-family="Helvetica,sans-Serif" font-size="10.00">initServos</text>
</a>
</g>
</g>
<!-- Node1&#45;&gt;Node2 -->
<g id="edge1" class="edge">
<title>Node1&#45;&gt;Node2</title>
<path fill="none" stroke="midnightblue" d="M376.74,-15.5C368.16,-15.5 359.54,-15.5 351.42,-15.5"/>
<polygon fill="midnightblue" stroke="midnightblue" points="376.76,-19 386.76,-15.5 376.76,-12 376.76,-19"/>
</g>
<!-- Node3 -->
<g id="node3" class="node">
<title>Node3</title>
<g id="a_node3"><a xlink:href="classPanTiltController.html#a9bf2969c6d318aab4c3508c60a87f8d3" target="_top" xlink:title="constructor of the class">
<polygon fill="white" stroke="black" points="129,-0.5 129,-30.5 222,-30.5 222,-0.5 129,-0.5"/>
<text text-anchor="start" x="137" y="-18.5" font-family="Helvetica,sans-Serif" font-size="10.00">PanTiltController::</text>
<text text-anchor="middle" x="175.5" y="-7.5" font-family="Helvetica,sans-Serif" font-size="10.00">PanTiltController</text>
</a>
</g>
</g>
<!-- Node2&#45;&gt;Node3 -->
<g id="edge2" class="edge">
<title>Node2&#45;&gt;Node3</title>
<path fill="none" stroke="midnightblue" d="M247.5,-15.5C239.07,-15.5 230.46,-15.5 222.28,-15.5"/>
<polygon fill="midnightblue" stroke="midnightblue" points="247.65,-19 257.65,-15.5 247.65,-12 247.65,-19"/>
</g>
<!-- Node4 -->
<g id="node4" class="node">
<title>Node4</title>
<g id="a_node4"><a xlink:href="classPanTiltController.html#ab6b65c6e12ebbd0ccf007f6c457e5f1a" target="_top" xlink:title="Creates a object if there isn&#39;t one already.">
<polygon fill="white" stroke="black" points="0,-0.5 0,-30.5 93,-30.5 93,-0.5 0,-0.5"/>
<text text-anchor="start" x="8" y="-18.5" font-family="Helvetica,sans-Serif" font-size="10.00">PanTiltController::</text>
<text text-anchor="middle" x="46.5" y="-7.5" font-family="Helvetica,sans-Serif" font-size="10.00">initialize</text>
</a>
</g>
</g>
<!-- Node3&#45;&gt;Node4 -->
<g id="edge3" class="edge">
<title>Node3&#45;&gt;Node4</title>
<path fill="none" stroke="midnightblue" d="M118.5,-15.5C110.07,-15.5 101.46,-15.5 93.28,-15.5"/>
<polygon fill="midnightblue" stroke="midnightblue" points="118.65,-19 128.65,-15.5 118.65,-12 118.65,-19"/>
</g>
</g>
</svg>
