<?xml version="1.0" encoding="UTF-8" standalone="no"?>
<!DOCTYPE svg PUBLIC "-//W3C//DTD SVG 1.1//EN"
 "http://www.w3.org/Graphics/SVG/1.1/DTD/svg11.dtd">
<!-- Generated by graphviz version 2.38.0 (20140413.2041)
 -->
<!-- Title: Blur Pages: 1 -->
<svg width="113pt" height="314pt"
 viewBox="0.00 0.00 113.00 314.00" xmlns="http://www.w3.org/2000/svg" xmlns:xlink="http://www.w3.org/1999/xlink">
<g id="graph0" class="graph" transform="scale(1 1) rotate(0) translate(4 310)">
<title>Blur</title>
<polygon fill="white" stroke="none" points="-4,4 -4,-310 109,-310 109,4 -4,4"/>
<!-- Node1 -->
<g id="node1" class="node"><title>Node1</title>
<polygon fill="#bfbfbf" stroke="black" points="5,-0.5 5,-123.5 100,-123.5 100,-0.5 5,-0.5"/>
<text text-anchor="middle" x="52.5" y="-111.5" font-family="Helvetica,sans-Serif" font-size="10.00">Blur</text>
<polyline fill="none" stroke="black" points="5,-104.5 100,-104.5 "/>
<text text-anchor="start" x="13" y="-92.5" font-family="Helvetica,sans-Serif" font-size="10.00">&#45; maxValue</text>
<text text-anchor="start" x="13" y="-81.5" font-family="Helvetica,sans-Serif" font-size="10.00">&#45; slider</text>
<text text-anchor="start" x="13" y="-70.5" font-family="Helvetica,sans-Serif" font-size="10.00">&#45; sigma</text>
<text text-anchor="start" x="13" y="-59.5" font-family="Helvetica,sans-Serif" font-size="10.00">&#45; kernelSize</text>
<polyline fill="none" stroke="black" points="5,-52.5 100,-52.5 "/>
<text text-anchor="start" x="13" y="-40.5" font-family="Helvetica,sans-Serif" font-size="10.00">+ Blur()</text>
<text text-anchor="start" x="13" y="-29.5" font-family="Helvetica,sans-Serif" font-size="10.00">+ setAction()</text>
<text text-anchor="start" x="13" y="-18.5" font-family="Helvetica,sans-Serif" font-size="10.00">+ showWindow()</text>
<text text-anchor="start" x="13" y="-7.5" font-family="Helvetica,sans-Serif" font-size="10.00">+ onChange()</text>
</g>
<!-- Node2 -->
<g id="node2" class="node"><title>Node2</title>
<g id="a_node2"><a xlink:href="class_pipe_line_action.html" target="_top" xlink:title="Base&#45;class for all OpenCV pipeline actions. ">
<polygon fill="white" stroke="black" points="0,-160.5 0,-305.5 105,-305.5 105,-160.5 0,-160.5"/>
<text text-anchor="middle" x="52.5" y="-293.5" font-family="Helvetica,sans-Serif" font-size="10.00">PipeLineAction</text>
<polyline fill="none" stroke="black" points="0,-286.5 105,-286.5 "/>
<text text-anchor="start" x="8" y="-274.5" font-family="Helvetica,sans-Serif" font-size="10.00"># img</text>
<text text-anchor="start" x="8" y="-263.5" font-family="Helvetica,sans-Serif" font-size="10.00"># show</text>
<text text-anchor="start" x="8" y="-252.5" font-family="Helvetica,sans-Serif" font-size="10.00"># name</text>
<polyline fill="none" stroke="black" points="0,-245.5 105,-245.5 "/>
<text text-anchor="start" x="8" y="-233.5" font-family="Helvetica,sans-Serif" font-size="10.00">+ PipeLineAction()</text>
<text text-anchor="start" x="8" y="-222.5" font-family="Helvetica,sans-Serif" font-size="10.00">+ PipeLineAction()</text>
<text text-anchor="start" x="8" y="-211.5" font-family="Helvetica,sans-Serif" font-size="10.00">+ setAction()</text>
<text text-anchor="start" x="8" y="-200.5" font-family="Helvetica,sans-Serif" font-size="10.00">+ getAction()</text>
<text text-anchor="start" x="8" y="-189.5" font-family="Helvetica,sans-Serif" font-size="10.00">+ showWindow()</text>
<text text-anchor="start" x="8" y="-178.5" font-family="Helvetica,sans-Serif" font-size="10.00">+ hideWindow()</text>
<text text-anchor="start" x="8" y="-167.5" font-family="Helvetica,sans-Serif" font-size="10.00">+ getName()</text>
</a>
</g>
</g>
<!-- Node2&#45;&gt;Node1 -->
<g id="edge1" class="edge"><title>Node2&#45;&gt;Node1</title>
<path fill="none" stroke="midnightblue" d="M52.5,-150.232C52.5,-141.254 52.5,-132.235 52.5,-123.58"/>
<polygon fill="none" stroke="midnightblue" points="49.0001,-150.329 52.5,-160.329 56.0001,-150.329 49.0001,-150.329"/>
</g>
</g>
</svg>
