<?xml version="1.0" encoding="UTF-8" standalone="no"?>
<!DOCTYPE svg PUBLIC "-//W3C//DTD SVG 1.1//EN"
 "http://www.w3.org/Graphics/SVG/1.1/DTD/svg11.dtd">
<!-- Generated by graphviz version 2.38.0 (20140413.2041)
 -->
<!-- Title: SerialCom::initialize Pages: 1 -->
<svg width="452pt" height="66pt"
 viewBox="0.00 0.00 452.00 66.00" xmlns="http://www.w3.org/2000/svg" xmlns:xlink="http://www.w3.org/1999/xlink">
<g id="graph0" class="graph" transform="scale(1 1) rotate(0) translate(4 62)">
<title>SerialCom::initialize</title>
<polygon fill="white" stroke="none" points="-4,4 -4,-62 448,-62 448,4 -4,4"/>
<!-- Node1 -->
<g id="node1" class="node"><title>Node1</title>
<polygon fill="#bfbfbf" stroke="black" points="0,-19.5 0,-38.5 110,-38.5 110,-19.5 0,-19.5"/>
<text text-anchor="middle" x="55" y="-26.5" font-family="Helvetica,sans-Serif" font-size="10.00">SerialCom::initialize</text>
</g>
<!-- Node2 -->
<g id="node2" class="node"><title>Node2</title>
<g id="a_node2"><a xlink:href="class_serial_com.html#acf9ed461d5505333d9322d743facc7f8" target="_top" xlink:title="Constructor. ">
<polygon fill="white" stroke="black" points="146,-19.5 146,-38.5 268,-38.5 268,-19.5 146,-19.5"/>
<text text-anchor="middle" x="207" y="-26.5" font-family="Helvetica,sans-Serif" font-size="10.00">SerialCom::SerialCom</text>
</a>
</g>
</g>
<!-- Node1&#45;&gt;Node2 -->
<g id="edge1" class="edge"><title>Node1&#45;&gt;Node2</title>
<path fill="none" stroke="midnightblue" d="M110.153,-29C118.477,-29 127.173,-29 135.784,-29"/>
<polygon fill="midnightblue" stroke="midnightblue" points="135.827,-32.5001 145.827,-29 135.827,-25.5001 135.827,-32.5001"/>
</g>
<!-- Node3 -->
<g id="node3" class="node"><title>Node3</title>
<g id="a_node3"><a xlink:href="class_serial_com.html#ab4694d10387475e78b52a33157f5934e" target="_top" xlink:title="shows a error message on the console ">
<polygon fill="white" stroke="black" points="309.5,-38.5 309.5,-57.5 438.5,-57.5 438.5,-38.5 309.5,-38.5"/>
<text text-anchor="middle" x="374" y="-45.5" font-family="Helvetica,sans-Serif" font-size="10.00">SerialCom::publishError</text>
</a>
</g>
</g>
<!-- Node2&#45;&gt;Node3 -->
<g id="edge2" class="edge"><title>Node2&#45;&gt;Node3</title>
<path fill="none" stroke="midnightblue" d="M268.036,-35.9132C278.23,-37.0871 288.921,-38.3181 299.416,-39.5267"/>
<polygon fill="midnightblue" stroke="midnightblue" points="299.062,-43.009 309.397,-40.676 299.863,-36.0549 299.062,-43.009"/>
</g>
<!-- Node4 -->
<g id="node4" class="node"><title>Node4</title>
<g id="a_node4"><a xlink:href="class_serial_com.html#af9967e8dc494640b943b3035259279ab" target="_top" xlink:title="shows a succes message on the console ">
<polygon fill="white" stroke="black" points="304,-0.5 304,-19.5 444,-19.5 444,-0.5 304,-0.5"/>
<text text-anchor="middle" x="374" y="-7.5" font-family="Helvetica,sans-Serif" font-size="10.00">SerialCom::publishSucces</text>
</a>
</g>
</g>
<!-- Node2&#45;&gt;Node4 -->
<g id="edge3" class="edge"><title>Node2&#45;&gt;Node4</title>
<path fill="none" stroke="midnightblue" d="M268.036,-22.0868C276.38,-21.1259 285.057,-20.1268 293.687,-19.133"/>
<polygon fill="midnightblue" stroke="midnightblue" points="294.24,-22.5925 303.774,-17.9715 293.439,-15.6385 294.24,-22.5925"/>
</g>
</g>
</svg>
