<?xml version="1.0" encoding="UTF-8" standalone="no"?>
<!DOCTYPE svg PUBLIC "-//W3C//DTD SVG 1.1//EN"
 "http://www.w3.org/Graphics/SVG/1.1/DTD/svg11.dtd">
<!-- Generated by graphviz version 2.44.0 ()
 -->
<!-- Title: PanTiltController::limit Pages: 1 -->
<svg width="770pt" height="83pt"
 viewBox="0.00 0.00 770.00 83.00" xmlns="http://www.w3.org/2000/svg" xmlns:xlink="http://www.w3.org/1999/xlink">
<g id="graph0" class="graph" transform="scale(1 1) rotate(0) translate(4 79)">
<title>PanTiltController::limit</title>
<polygon fill="white" stroke="transparent" points="-4,4 -4,-79 766,-79 766,4 -4,4"/>
<!-- Node1 -->
<g id="node1" class="node">
<title>Node1</title>
<g id="a_node1"><a xlink:title="Limits an angle between 0° and 180°">
<polygon fill="#bfbfbf" stroke="black" points="669,-22.5 669,-52.5 762,-52.5 762,-22.5 669,-22.5"/>
<text text-anchor="start" x="677" y="-40.5" font-family="Helvetica,sans-Serif" font-size="10.00">PanTiltController::</text>
<text text-anchor="middle" x="715.5" y="-29.5" font-family="Helvetica,sans-Serif" font-size="10.00">limit</text>
</a>
</g>
</g>
<!-- Node2 -->
<g id="node2" class="node">
<title>Node2</title>
<g id="a_node2"><a xlink:href="classPanTiltController.html#a5a95d7d7997788f3117cdc50b44693dd" target="_top" xlink:title="Sets the position of the pan and tilt motor.">
<polygon fill="white" stroke="black" points="540,-22.5 540,-52.5 633,-52.5 633,-22.5 540,-22.5"/>
<text text-anchor="start" x="548" y="-40.5" font-family="Helvetica,sans-Serif" font-size="10.00">PanTiltController::</text>
<text text-anchor="middle" x="586.5" y="-29.5" font-family="Helvetica,sans-Serif" font-size="10.00">setPosition</text>
</a>
</g>
</g>
<!-- Node1&#45;&gt;Node2 -->
<g id="edge1" class="edge">
<title>Node1&#45;&gt;Node2</title>
<path fill="none" stroke="midnightblue" d="M658.5,-37.5C650.07,-37.5 641.46,-37.5 633.28,-37.5"/>
<polygon fill="midnightblue" stroke="midnightblue" points="658.65,-41 668.65,-37.5 658.65,-34 658.65,-41"/>
</g>
<!-- Node3 -->
<g id="node3" class="node">
<title>Node3</title>
<g id="a_node3"><a xlink:href="classPanTiltController.html#a980df672a9acb8e59656996d293972db" target="_top" xlink:title="Homes the pan and tilt motors.">
<polygon fill="white" stroke="black" points="387,-50 387,-69 504,-69 504,-50 387,-50"/>
<text text-anchor="middle" x="445.5" y="-57" font-family="Helvetica,sans-Serif" font-size="10.00">PanTiltController::home</text>
</a>
</g>
</g>
<!-- Node2&#45;&gt;Node3 -->
<g id="edge2" class="edge">
<title>Node2&#45;&gt;Node3</title>
<path fill="none" stroke="midnightblue" d="M529.89,-46.3C521.47,-47.63 512.76,-49.01 504.29,-50.35"/>
<polygon fill="midnightblue" stroke="midnightblue" points="530.66,-49.72 539.99,-44.7 529.56,-42.81 530.66,-49.72"/>
</g>
<!-- Node7 -->
<g id="node7" class="node">
<title>Node7</title>
<g id="a_node7"><a xlink:href="classPanTiltController.html#ab7ca3ce4412aa3c2fc48fd21de895d49" target="_top" xlink:title="Sets the position of the pan and tilt motor.">
<polygon fill="white" stroke="black" points="399,-0.5 399,-30.5 492,-30.5 492,-0.5 399,-0.5"/>
<text text-anchor="start" x="407" y="-18.5" font-family="Helvetica,sans-Serif" font-size="10.00">PanTiltController::</text>
<text text-anchor="middle" x="445.5" y="-7.5" font-family="Helvetica,sans-Serif" font-size="10.00">setPositionOffSet</text>
</a>
</g>
</g>
<!-- Node2&#45;&gt;Node7 -->
<g id="edge6" class="edge">
<title>Node2&#45;&gt;Node7</title>
<path fill="none" stroke="midnightblue" d="M530.06,-28.73C517.47,-26.73 504.24,-24.64 492.12,-22.72"/>
<polygon fill="midnightblue" stroke="midnightblue" points="529.56,-32.19 539.99,-30.3 530.66,-25.28 529.56,-32.19"/>
</g>
<!-- Node4 -->
<g id="node4" class="node">
<title>Node4</title>
<g id="a_node4"><a xlink:href="classPanTiltController.html#aadda5450b8681c8fc4b1aa627686ab78" target="_top" xlink:title="attaches the pin number to the servo&#39;s and homes the servo&#39;s">
<polygon fill="white" stroke="black" points="258,-44.5 258,-74.5 351,-74.5 351,-44.5 258,-44.5"/>
<text text-anchor="start" x="266" y="-62.5" font-family="Helvetica,sans-Serif" font-size="10.00">PanTiltController::</text>
<text text-anchor="middle" x="304.5" y="-51.5" font-family="Helvetica,sans-Serif" font-size="10.00">initServos</text>
</a>
</g>
</g>
<!-- Node3&#45;&gt;Node4 -->
<g id="edge3" class="edge">
<title>Node3&#45;&gt;Node4</title>
<path fill="none" stroke="midnightblue" d="M376.74,-59.5C368.16,-59.5 359.54,-59.5 351.42,-59.5"/>
<polygon fill="midnightblue" stroke="midnightblue" points="376.76,-63 386.76,-59.5 376.76,-56 376.76,-63"/>
</g>
<!-- Node5 -->
<g id="node5" class="node">
<title>Node5</title>
<g id="a_node5"><a xlink:href="classPanTiltController.html#a9bf2969c6d318aab4c3508c60a87f8d3" target="_top" xlink:title="constructor of the class">
<polygon fill="white" stroke="black" points="129,-44.5 129,-74.5 222,-74.5 222,-44.5 129,-44.5"/>
<text text-anchor="start" x="137" y="-62.5" font-family="Helvetica,sans-Serif" font-size="10.00">PanTiltController::</text>
<text text-anchor="middle" x="175.5" y="-51.5" font-family="Helvetica,sans-Serif" font-size="10.00">PanTiltController</text>
</a>
</g>
</g>
<!-- Node4&#45;&gt;Node5 -->
<g id="edge4" class="edge">
<title>Node4&#45;&gt;Node5</title>
<path fill="none" stroke="midnightblue" d="M247.5,-59.5C239.07,-59.5 230.46,-59.5 222.28,-59.5"/>
<polygon fill="midnightblue" stroke="midnightblue" points="247.65,-63 257.65,-59.5 247.65,-56 247.65,-63"/>
</g>
<!-- Node6 -->
<g id="node6" class="node">
<title>Node6</title>
<g id="a_node6"><a xlink:href="classPanTiltController.html#ab6b65c6e12ebbd0ccf007f6c457e5f1a" target="_top" xlink:title="Creates a object if there isn&#39;t one already.">
<polygon fill="white" stroke="black" points="0,-44.5 0,-74.5 93,-74.5 93,-44.5 0,-44.5"/>
<text text-anchor="start" x="8" y="-62.5" font-family="Helvetica,sans-Serif" font-size="10.00">PanTiltController::</text>
<text text-anchor="middle" x="46.5" y="-51.5" font-family="Helvetica,sans-Serif" font-size="10.00">initialize</text>
</a>
</g>
</g>
<!-- Node5&#45;&gt;Node6 -->
<g id="edge5" class="edge">
<title>Node5&#45;&gt;Node6</title>
<path fill="none" stroke="midnightblue" d="M118.5,-59.5C110.07,-59.5 101.46,-59.5 93.28,-59.5"/>
<polygon fill="midnightblue" stroke="midnightblue" points="118.65,-63 128.65,-59.5 118.65,-56 118.65,-63"/>
</g>
</g>
</svg>
