<?xml version="1.0" encoding="UTF-8" standalone="no"?>
<!DOCTYPE svg PUBLIC "-//W3C//DTD SVG 1.1//EN"
 "http://www.w3.org/Graphics/SVG/1.1/DTD/svg11.dtd">
<!-- Generated by graphviz version 2.38.0 (20140413.2041)
 -->
<!-- Title: CommandParser::parse Pages: 1 -->
<svg width="355pt" height="66pt"
 viewBox="0.00 0.00 355.00 66.00" xmlns="http://www.w3.org/2000/svg" xmlns:xlink="http://www.w3.org/1999/xlink">
<g id="graph0" class="graph" transform="scale(1 1) rotate(0) translate(4 62)">
<title>CommandParser::parse</title>
<polygon fill="white" stroke="none" points="-4,4 -4,-62 351,-62 351,4 -4,4"/>
<!-- Node1 -->
<g id="node1" class="node"><title>Node1</title>
<polygon fill="#bfbfbf" stroke="black" points="0,-19.5 0,-38.5 130,-38.5 130,-19.5 0,-19.5"/>
<text text-anchor="middle" x="65" y="-26.5" font-family="Helvetica,sans-Serif" font-size="10.00">CommandParser::parse</text>
</g>
<!-- Node2 -->
<g id="node2" class="node"><title>Node2</title>
<g id="a_node2"><a xlink:href="class_command_parser.html#a851a06a586b025c1d6882f637bc16fc4" target="_top" xlink:title="Checks the serial port for input if the character is a line feed(LF) or carriage return(CR) the end o...">
<polygon fill="white" stroke="black" points="175.5,-38.5 175.5,-57.5 337.5,-57.5 337.5,-38.5 175.5,-38.5"/>
<text text-anchor="middle" x="256.5" y="-45.5" font-family="Helvetica,sans-Serif" font-size="10.00">CommandParser::createBuffer</text>
</a>
</g>
</g>
<!-- Node1&#45;&gt;Node2 -->
<g id="edge1" class="edge"><title>Node1&#45;&gt;Node2</title>
<path fill="none" stroke="midnightblue" d="M130.156,-35.4325C141.367,-36.5566 153.219,-37.7449 164.983,-38.9244"/>
<polygon fill="midnightblue" stroke="midnightblue" points="164.982,-42.4417 175.281,-39.9569 165.68,-35.4767 164.982,-42.4417"/>
</g>
<!-- Node3 -->
<g id="node3" class="node"><title>Node3</title>
<g id="a_node3"><a xlink:href="class_command_parser.html#a47a9bc04d34fa32105ae338dca58241d" target="_top" xlink:title="Checks the buffer for a command Checks the buffer to see if there is a known command. If there isn&#39;t one, returns a command error. ">
<polygon fill="white" stroke="black" points="166,-0.5 166,-19.5 347,-19.5 347,-0.5 166,-0.5"/>
<text text-anchor="middle" x="256.5" y="-7.5" font-family="Helvetica,sans-Serif" font-size="10.00">CommandParser::checkCommand</text>
</a>
</g>
</g>
<!-- Node1&#45;&gt;Node3 -->
<g id="edge2" class="edge"><title>Node1&#45;&gt;Node3</title>
<path fill="none" stroke="midnightblue" d="M130.156,-22.5675C138.414,-21.7395 147.019,-20.8767 155.68,-20.0083"/>
<polygon fill="midnightblue" stroke="midnightblue" points="156.256,-23.4682 165.857,-18.9879 155.558,-16.5031 156.256,-23.4682"/>
</g>
</g>
</svg>
