<?xml version="1.0" encoding="UTF-8" standalone="no"?>
<!DOCTYPE svg PUBLIC "-//W3C//DTD SVG 1.1//EN"
 "http://www.w3.org/Graphics/SVG/1.1/DTD/svg11.dtd">
<!-- Generated by graphviz version 2.44.0 ()
 -->
<!-- Title: Moment Pages: 1 -->
<svg width="115pt" height="325pt"
 viewBox="0.00 0.00 115.00 325.00" xmlns="http://www.w3.org/2000/svg" xmlns:xlink="http://www.w3.org/1999/xlink">
<g id="graph0" class="graph" transform="scale(1 1) rotate(0) translate(4 321)">
<title>Moment</title>
<polygon fill="white" stroke="transparent" points="-4,4 -4,-321 111,-321 111,4 -4,4"/>
<!-- Node1 -->
<g id="node1" class="node">
<title>Node1</title>
<g id="a_node1"><a xlink:title="Child&#45;classe, implements OpenCV&#39;s center of mass finding.">
<polygon fill="#bfbfbf" stroke="black" points="0,-0.5 0,-134.5 107,-134.5 107,-0.5 0,-0.5"/>
<text text-anchor="middle" x="53.5" y="-122.5" font-family="Helvetica,sans-Serif" font-size="10.00">Moment</text>
<polyline fill="none" stroke="black" points="0,-115.5 107,-115.5 "/>
<text text-anchor="start" x="8" y="-103.5" font-family="Helvetica,sans-Serif" font-size="10.00">&#45; m</text>
<text text-anchor="start" x="8" y="-92.5" font-family="Helvetica,sans-Serif" font-size="10.00">&#45; center</text>
<text text-anchor="start" x="8" y="-81.5" font-family="Helvetica,sans-Serif" font-size="10.00">&#45; areaMax</text>
<text text-anchor="start" x="8" y="-70.5" font-family="Helvetica,sans-Serif" font-size="10.00">&#45; area</text>
<polyline fill="none" stroke="black" points="0,-63.5 107,-63.5 "/>
<text text-anchor="start" x="8" y="-51.5" font-family="Helvetica,sans-Serif" font-size="10.00">+ Moment()</text>
<text text-anchor="start" x="8" y="-40.5" font-family="Helvetica,sans-Serif" font-size="10.00">+ setAction()</text>
<text text-anchor="start" x="8" y="-29.5" font-family="Helvetica,sans-Serif" font-size="10.00">+ getAction()</text>
<text text-anchor="start" x="8" y="-18.5" font-family="Helvetica,sans-Serif" font-size="10.00">+ getCenterOfMass()</text>
<text text-anchor="start" x="8" y="-7.5" font-family="Helvetica,sans-Serif" font-size="10.00">+ showWindow()</text>
</a>
</g>
</g>
<!-- Node2 -->
<g id="node2" class="node">
<title>Node2</title>
<g id="a_node2"><a xlink:href="classPipeLineAction.html" target="_top" xlink:title="Base&#45;class for all OpenCV pipeline actions.">
<polygon fill="white" stroke="black" points="5,-171.5 5,-316.5 102,-316.5 102,-171.5 5,-171.5"/>
<text text-anchor="middle" x="53.5" y="-304.5" font-family="Helvetica,sans-Serif" font-size="10.00">PipeLineAction</text>
<polyline fill="none" stroke="black" points="5,-297.5 102,-297.5 "/>
<text text-anchor="start" x="13" y="-285.5" font-family="Helvetica,sans-Serif" font-size="10.00"># img</text>
<text text-anchor="start" x="13" y="-274.5" font-family="Helvetica,sans-Serif" font-size="10.00"># show</text>
<text text-anchor="start" x="13" y="-263.5" font-family="Helvetica,sans-Serif" font-size="10.00"># name</text>
<polyline fill="none" stroke="black" points="5,-256.5 102,-256.5 "/>
<text text-anchor="start" x="13" y="-244.5" font-family="Helvetica,sans-Serif" font-size="10.00">+ PipeLineAction()</text>
<text text-anchor="start" x="13" y="-233.5" font-family="Helvetica,sans-Serif" font-size="10.00">+ PipeLineAction()</text>
<text text-anchor="start" x="13" y="-222.5" font-family="Helvetica,sans-Serif" font-size="10.00">+ setAction()</text>
<text text-anchor="start" x="13" y="-211.5" font-family="Helvetica,sans-Serif" font-size="10.00">+ getAction()</text>
<text text-anchor="start" x="13" y="-200.5" font-family="Helvetica,sans-Serif" font-size="10.00">+ showWindow()</text>
<text text-anchor="start" x="13" y="-189.5" font-family="Helvetica,sans-Serif" font-size="10.00">+ hideWindow()</text>
<text text-anchor="start" x="13" y="-178.5" font-family="Helvetica,sans-Serif" font-size="10.00">+ getName()</text>
</a>
</g>
</g>
<!-- Node2&#45;&gt;Node1 -->
<g id="edge1" class="edge">
<title>Node2&#45;&gt;Node1</title>
<path fill="none" stroke="midnightblue" d="M53.5,-161.25C53.5,-152.33 53.5,-143.33 53.5,-134.63"/>
<polygon fill="none" stroke="midnightblue" points="50,-161.27 53.5,-171.27 57,-161.27 50,-161.27"/>
</g>
</g>
</svg>
