<?xml version="1.0" encoding="UTF-8" standalone="no"?>
<!DOCTYPE svg PUBLIC "-//W3C//DTD SVG 1.1//EN"
 "http://www.w3.org/Graphics/SVG/1.1/DTD/svg11.dtd">
<!-- Generated by graphviz version 2.38.0 (20140413.2041)
 -->
<!-- Title: SerialCom::publishError Pages: 1 -->
<svg width="518pt" height="66pt"
 viewBox="0.00 0.00 518.00 66.00" xmlns="http://www.w3.org/2000/svg" xmlns:xlink="http://www.w3.org/1999/xlink">
<g id="graph0" class="graph" transform="scale(1 1) rotate(0) translate(4 62)">
<title>SerialCom::publishError</title>
<polygon fill="white" stroke="none" points="-4,4 -4,-62 514,-62 514,4 -4,4"/>
<!-- Node1 -->
<g id="node1" class="node"><title>Node1</title>
<polygon fill="#bfbfbf" stroke="black" points="0,-19.5 0,-38.5 129,-38.5 129,-19.5 0,-19.5"/>
<text text-anchor="middle" x="64.5" y="-26.5" font-family="Helvetica,sans-Serif" font-size="10.00">SerialCom::publishError</text>
</g>
<!-- Node2 -->
<g id="node2" class="node"><title>Node2</title>
<g id="a_node2"><a xlink:href="class_serial_com.html#acf9ed461d5505333d9322d743facc7f8" target="_top" xlink:title="Constructor. ">
<polygon fill="white" stroke="black" points="165,-38.5 165,-57.5 287,-57.5 287,-38.5 165,-38.5"/>
<text text-anchor="middle" x="226" y="-45.5" font-family="Helvetica,sans-Serif" font-size="10.00">SerialCom::SerialCom</text>
</a>
</g>
</g>
<!-- Node1&#45;&gt;Node2 -->
<g id="edge1" class="edge"><title>Node1&#45;&gt;Node2</title>
<path fill="none" stroke="midnightblue" d="M139.416,-37.8051C147.956,-38.8224 156.586,-39.8504 164.911,-40.8421"/>
<polygon fill="midnightblue" stroke="midnightblue" points="139.8,-34.3261 129.456,-36.6185 138.971,-41.2769 139.8,-34.3261"/>
</g>
<!-- Node5 -->
<g id="node5" class="node"><title>Node5</title>
<g id="a_node5"><a xlink:href="class_serial_com.html#a21ffd47b01f7337633a46bdb4ff47841" target="_top" xlink:title="Sends a message(command) to the Arduino Uno. ">
<polygon fill="white" stroke="black" points="330.5,-0.5 330.5,-19.5 425.5,-19.5 425.5,-0.5 330.5,-0.5"/>
<text text-anchor="middle" x="378" y="-7.5" font-family="Helvetica,sans-Serif" font-size="10.00">SerialCom::write</text>
</a>
</g>
</g>
<!-- Node1&#45;&gt;Node5 -->
<g id="edge4" class="edge"><title>Node1&#45;&gt;Node5</title>
<path fill="none" stroke="midnightblue" d="M139.312,-24.4978C198.401,-20.8937 279.486,-15.9479 330.035,-12.8647"/>
<polygon fill="midnightblue" stroke="midnightblue" points="139.057,-21.0068 129.288,-25.1092 139.483,-27.9938 139.057,-21.0068"/>
</g>
<!-- Node3 -->
<g id="node3" class="node"><title>Node3</title>
<g id="a_node3"><a xlink:href="class_serial_com.html#a386d2a4649e3a00b9b2f6e6cef921bbd" target="_top" xlink:title="Creates a object if there isn&#39;t one already. ">
<polygon fill="white" stroke="black" points="323,-38.5 323,-57.5 433,-57.5 433,-38.5 323,-38.5"/>
<text text-anchor="middle" x="378" y="-45.5" font-family="Helvetica,sans-Serif" font-size="10.00">SerialCom::initialize</text>
</a>
</g>
</g>
<!-- Node2&#45;&gt;Node3 -->
<g id="edge2" class="edge"><title>Node2&#45;&gt;Node3</title>
<path fill="none" stroke="midnightblue" d="M297.422,-48C305.902,-48 314.46,-48 322.661,-48"/>
<polygon fill="midnightblue" stroke="midnightblue" points="297.146,-44.5001 287.146,-48 297.146,-51.5001 297.146,-44.5001"/>
</g>
<!-- Node4 -->
<g id="node4" class="node"><title>Node4</title>
<g id="a_node4"><a xlink:href="group__main.html#ga51af30a60f9f02777c6396b8247e356f" target="_top" xlink:title="Main function. ">
<polygon fill="white" stroke="black" points="469,-19.5 469,-38.5 510,-38.5 510,-19.5 469,-19.5"/>
<text text-anchor="middle" x="489.5" y="-26.5" font-family="Helvetica,sans-Serif" font-size="10.00">main</text>
</a>
</g>
</g>
<!-- Node3&#45;&gt;Node4 -->
<g id="edge3" class="edge"><title>Node3&#45;&gt;Node4</title>
<path fill="none" stroke="midnightblue" d="M442.988,-36.8971C452.385,-35.2666 461.407,-33.701 468.906,-32.3999"/>
<polygon fill="midnightblue" stroke="midnightblue" points="442.363,-33.4532 433.108,-38.6113 443.56,-40.3501 442.363,-33.4532"/>
</g>
<!-- Node5&#45;&gt;Node4 -->
<g id="edge5" class="edge"><title>Node5&#45;&gt;Node4</title>
<path fill="none" stroke="midnightblue" d="M435.743,-19.8459C447.657,-21.9131 459.445,-23.9585 468.847,-25.5898"/>
<polygon fill="midnightblue" stroke="midnightblue" points="436.207,-16.374 425.755,-18.1128 435.01,-23.271 436.207,-16.374"/>
</g>
</g>
</svg>
