<?xml version="1.0" encoding="UTF-8" standalone="no"?>
<!DOCTYPE svg PUBLIC "-//W3C//DTD SVG 1.1//EN"
 "http://www.w3.org/Graphics/SVG/1.1/DTD/svg11.dtd">
<!-- Generated by graphviz version 2.44.0 ()
 -->
<!-- Title: SerialCom::SerialCom Pages: 1 -->
<svg width="285pt" height="66pt"
 viewBox="0.00 0.00 285.00 66.00" xmlns="http://www.w3.org/2000/svg" xmlns:xlink="http://www.w3.org/1999/xlink">
<g id="graph0" class="graph" transform="scale(1 1) rotate(0) translate(4 62)">
<title>SerialCom::SerialCom</title>
<polygon fill="white" stroke="transparent" points="-4,4 -4,-62 281,-62 281,4 -4,4"/>
<!-- Node1 -->
<g id="node1" class="node">
<title>Node1</title>
<g id="a_node1"><a xlink:title="Constructor.">
<polygon fill="#bfbfbf" stroke="black" points="0,-19.5 0,-38.5 111,-38.5 111,-19.5 0,-19.5"/>
<text text-anchor="middle" x="55.5" y="-26.5" font-family="Helvetica,sans-Serif" font-size="10.00">SerialCom::SerialCom</text>
</a>
</g>
</g>
<!-- Node2 -->
<g id="node2" class="node">
<title>Node2</title>
<g id="a_node2"><a xlink:href="classSerialCom.html#ab4694d10387475e78b52a33157f5934e" target="_top" xlink:title="shows a error message on the console">
<polygon fill="white" stroke="black" points="153.5,-38.5 153.5,-57.5 270.5,-57.5 270.5,-38.5 153.5,-38.5"/>
<text text-anchor="middle" x="212" y="-45.5" font-family="Helvetica,sans-Serif" font-size="10.00">SerialCom::publishError</text>
</a>
</g>
</g>
<!-- Node1&#45;&gt;Node2 -->
<g id="edge1" class="edge">
<title>Node1&#45;&gt;Node2</title>
<path fill="none" stroke="midnightblue" d="M111.41,-35.75C121.73,-37.02 132.63,-38.36 143.28,-39.67"/>
<polygon fill="midnightblue" stroke="midnightblue" points="143.04,-43.17 153.4,-40.92 143.9,-36.22 143.04,-43.17"/>
</g>
<!-- Node3 -->
<g id="node3" class="node">
<title>Node3</title>
<g id="a_node3"><a xlink:href="classSerialCom.html#af9967e8dc494640b943b3035259279ab" target="_top" xlink:title="shows a succes message on the console">
<polygon fill="white" stroke="black" points="147,-0.5 147,-19.5 277,-19.5 277,-0.5 147,-0.5"/>
<text text-anchor="middle" x="212" y="-7.5" font-family="Helvetica,sans-Serif" font-size="10.00">SerialCom::publishSucces</text>
</a>
</g>
</g>
<!-- Node1&#45;&gt;Node3 -->
<g id="edge2" class="edge">
<title>Node1&#45;&gt;Node3</title>
<path fill="none" stroke="midnightblue" d="M111.41,-22.25C119.63,-21.24 128.23,-20.18 136.78,-19.13"/>
<polygon fill="midnightblue" stroke="midnightblue" points="137.27,-22.59 146.77,-17.9 136.42,-15.65 137.27,-22.59"/>
</g>
</g>
</svg>
