<?xml version="1.0" encoding="UTF-8" standalone="no"?>
<!DOCTYPE svg PUBLIC "-//W3C//DTD SVG 1.1//EN"
 "http://www.w3.org/Graphics/SVG/1.1/DTD/svg11.dtd">
<!-- Generated by graphviz version 2.44.0 ()
 -->
<!-- Title: src/OpenCVProcessing/GraphicControles Pages: 1 -->
<svg width="132pt" height="167pt"
 viewBox="0.00 0.00 132.00 167.00" xmlns="http://www.w3.org/2000/svg" xmlns:xlink="http://www.w3.org/1999/xlink">
<g id="graph0" class="graph" transform="scale(1 1) rotate(0) translate(4 163)">
<title>src/OpenCVProcessing/GraphicControles</title>
<polygon fill="white" stroke="transparent" points="-4,4 -4,-163 128,-163 128,4 -4,4"/>
<g id="clust1" class="cluster">
<title>clusterdir_7f12e2b4eac6f8f087265846c283bfed</title>
<g id="a_clust1"><a xlink:href="dir_7f12e2b4eac6f8f087265846c283bfed.html" target="_top" xlink:title="OpenCVProcessing">
<polygon fill="#ddddee" stroke="black" points="8,-8 8,-151 116,-151 116,-8 8,-8"/>
<text text-anchor="middle" x="62" y="-139" font-family="Helvetica,sans-Serif" font-size="10.00">OpenCVProcessing</text>
</a>
</g>
</g>
<!-- dir_b4745907079dfda03828ee88907dcab0 -->
<g id="node1" class="node">
<title>dir_b4745907079dfda03828ee88907dcab0</title>
<g id="a_node1"><a xlink:href="dir_b4745907079dfda03828ee88907dcab0.html" target="_top" xlink:title="PipeLineActions">
<polygon fill="none" stroke="black" points="106,-52 18,-52 18,-16 106,-16 106,-52"/>
<text text-anchor="middle" x="62" y="-31.5" font-family="Helvetica,sans-Serif" font-size="10.00">PipeLineActions</text>
</a>
</g>
</g>
<!-- dir_c87b13095837cd5b5cdcafe540a72e11 -->
<g id="node2" class="node">
<title>dir_c87b13095837cd5b5cdcafe540a72e11</title>
<g id="a_node2"><a xlink:href="dir_c87b13095837cd5b5cdcafe540a72e11.html" target="_top" xlink:title="GraphicControles">
<polygon fill="#eeeeff" stroke="black" points="108,-124 16,-124 16,-88 108,-88 108,-124"/>
<text text-anchor="middle" x="62" y="-103.5" font-family="Helvetica,sans-Serif" font-size="10.00">GraphicControles</text>
</a>
</g>
</g>
<!-- dir_c87b13095837cd5b5cdcafe540a72e11&#45;&gt;dir_b4745907079dfda03828ee88907dcab0 -->
<g id="edge1" class="edge">
<title>dir_c87b13095837cd5b5cdcafe540a72e11&#45;&gt;dir_b4745907079dfda03828ee88907dcab0</title>
<path fill="none" stroke="black" d="M62,-87.7C62,-79.98 62,-70.71 62,-62.11"/>
<polygon fill="black" stroke="black" points="65.5,-62.1 62,-52.1 58.5,-62.1 65.5,-62.1"/>
<g id="a_edge1&#45;headlabel"><a xlink:href="dir_000020_000021.html" target="_top" xlink:title="1">
<text text-anchor="middle" x="68.34" y="-63.2" font-family="Helvetica,sans-Serif" font-size="10.00">1</text>
</a>
</g>
</g>
</g>
</svg>
