<?xml version="1.0" encoding="UTF-8" standalone="no"?>
<!DOCTYPE svg PUBLIC "-//W3C//DTD SVG 1.1//EN"
 "http://www.w3.org/Graphics/SVG/1.1/DTD/svg11.dtd">
<!-- Generated by graphviz version 2.44.0 ()
 -->
<!-- Title: src Pages: 1 -->
<svg width="388pt" height="76pt"
 viewBox="0.00 0.00 388.00 76.00" xmlns="http://www.w3.org/2000/svg" xmlns:xlink="http://www.w3.org/1999/xlink">
<g id="graph0" class="graph" transform="scale(1 1) rotate(0) translate(4 72)">
<title>src</title>
<polygon fill="white" stroke="transparent" points="-4,4 -4,-72 384,-72 384,4 -4,4"/>
<g id="clust1" class="cluster">
<title>clusterdir_68267d1309a1af8e8297ef4c3efbcdba</title>
<g id="a_clust1"><a xlink:href="dir_68267d1309a1af8e8297ef4c3efbcdba.html" target="_top">
<polygon fill="#eeeeff" stroke="black" points="8,-8 8,-60 372,-60 372,-8 8,-8"/>
</a>
</g>
</g>
<!-- dir_68267d1309a1af8e8297ef4c3efbcdba -->
<g id="node1" class="node">
<title>dir_68267d1309a1af8e8297ef4c3efbcdba</title>
<text text-anchor="middle" x="337" y="-31.5" font-family="Helvetica,sans-Serif" font-size="10.00">src</text>
</g>
<!-- dir_48fc35343d9e044db3eb38b36e1c57b1 -->
<g id="node2" class="node">
<title>dir_48fc35343d9e044db3eb38b36e1c57b1</title>
<g id="a_node2"><a xlink:href="dir_48fc35343d9e044db3eb38b36e1c57b1.html" target="_top" xlink:title="ArduinoTracker">
<polygon fill="white" stroke="red" points="291.5,-52 208.5,-52 208.5,-16 291.5,-16 291.5,-52"/>
<text text-anchor="middle" x="250" y="-31.5" font-family="Helvetica,sans-Serif" font-size="10.00">ArduinoTracker</text>
</a>
</g>
</g>
<!-- dir_a5e53cdfc4dc3e34218e25b9dcddbbe5 -->
<g id="node3" class="node">
<title>dir_a5e53cdfc4dc3e34218e25b9dcddbbe5</title>
<g id="a_node3"><a xlink:href="dir_a5e53cdfc4dc3e34218e25b9dcddbbe5.html" target="_top" xlink:title="Libraries">
<polygon fill="white" stroke="red" points="190,-52 136,-52 136,-16 190,-16 190,-52"/>
<text text-anchor="middle" x="163" y="-31.5" font-family="Helvetica,sans-Serif" font-size="10.00">Libraries</text>
</a>
</g>
</g>
<!-- dir_7f12e2b4eac6f8f087265846c283bfed -->
<g id="node4" class="node">
<title>dir_7f12e2b4eac6f8f087265846c283bfed</title>
<g id="a_node4"><a xlink:href="dir_7f12e2b4eac6f8f087265846c283bfed.html" target="_top" xlink:title="OpenCVProcessing">
<polygon fill="white" stroke="red" points="118,-52 16,-52 16,-16 118,-16 118,-52"/>
<text text-anchor="middle" x="67" y="-31.5" font-family="Helvetica,sans-Serif" font-size="10.00">OpenCVProcessing</text>
</a>
</g>
</g>
</g>
</svg>
