<?xml version="1.0" encoding="UTF-8" standalone="no"?>
<!DOCTYPE svg PUBLIC "-//W3C//DTD SVG 1.1//EN"
 "http://www.w3.org/Graphics/SVG/1.1/DTD/svg11.dtd">
<!-- Generated by graphviz version 2.44.0 ()
 -->
<!-- Title: src/OpenCVProcessing Pages: 1 -->
<svg width="268pt" height="183pt"
 viewBox="0.00 0.00 268.00 183.00" xmlns="http://www.w3.org/2000/svg" xmlns:xlink="http://www.w3.org/1999/xlink">
<g id="graph0" class="graph" transform="scale(1 1) rotate(0) translate(4 179)">
<title>src/OpenCVProcessing</title>
<polygon fill="white" stroke="transparent" points="-4,4 -4,-179 264,-179 264,4 -4,4"/>
<g id="clust1" class="cluster">
<title>clusterdir_68267d1309a1af8e8297ef4c3efbcdba</title>
<g id="a_clust1"><a xlink:href="dir_68267d1309a1af8e8297ef4c3efbcdba.html" target="_top" xlink:title="src">
<polygon fill="#ddddee" stroke="black" points="8,-8 8,-167 252,-167 252,-8 8,-8"/>
<text text-anchor="middle" x="130" y="-155" font-family="Helvetica,sans-Serif" font-size="10.00">src</text>
</a>
</g>
</g>
<g id="clust2" class="cluster">
<title>clusterdir_7f12e2b4eac6f8f087265846c283bfed</title>
<g id="a_clust2"><a xlink:href="dir_7f12e2b4eac6f8f087265846c283bfed.html" target="_top">
<polygon fill="#eeeeff" stroke="black" points="16,-16 16,-140 244,-140 244,-16 16,-16"/>
</a>
</g>
</g>
<!-- dir_7f12e2b4eac6f8f087265846c283bfed -->
<g id="node1" class="node">
<title>dir_7f12e2b4eac6f8f087265846c283bfed</title>
<text text-anchor="middle" x="185" y="-111.5" font-family="Helvetica,sans-Serif" font-size="10.00">OpenCVProcessing</text>
</g>
<!-- dir_c87b13095837cd5b5cdcafe540a72e11 -->
<g id="node2" class="node">
<title>dir_c87b13095837cd5b5cdcafe540a72e11</title>
<g id="a_node2"><a xlink:href="dir_c87b13095837cd5b5cdcafe540a72e11.html" target="_top" xlink:title="GraphicControles">
<polygon fill="white" stroke="black" points="116,-132 24,-132 24,-96 116,-96 116,-132"/>
<text text-anchor="middle" x="70" y="-111.5" font-family="Helvetica,sans-Serif" font-size="10.00">GraphicControles</text>
</a>
</g>
</g>
<!-- dir_b4745907079dfda03828ee88907dcab0 -->
<g id="node3" class="node">
<title>dir_b4745907079dfda03828ee88907dcab0</title>
<g id="a_node3"><a xlink:href="dir_b4745907079dfda03828ee88907dcab0.html" target="_top" xlink:title="PipeLineActions">
<polygon fill="white" stroke="black" points="114,-60 26,-60 26,-24 114,-24 114,-60"/>
<text text-anchor="middle" x="70" y="-39.5" font-family="Helvetica,sans-Serif" font-size="10.00">PipeLineActions</text>
</a>
</g>
</g>
<!-- dir_c87b13095837cd5b5cdcafe540a72e11&#45;&gt;dir_b4745907079dfda03828ee88907dcab0 -->
<g id="edge1" class="edge">
<title>dir_c87b13095837cd5b5cdcafe540a72e11&#45;&gt;dir_b4745907079dfda03828ee88907dcab0</title>
<path fill="none" stroke="black" d="M70,-95.7C70,-87.98 70,-78.71 70,-70.11"/>
<polygon fill="black" stroke="black" points="73.5,-70.1 70,-60.1 66.5,-70.1 73.5,-70.1"/>
<g id="a_edge1&#45;headlabel"><a xlink:href="dir_000020_000021.html" target="_top" xlink:title="1">
<text text-anchor="middle" x="76.34" y="-71.2" font-family="Helvetica,sans-Serif" font-size="10.00">1</text>
</a>
</g>
</g>
</g>
</svg>
