<?xml version="1.0" encoding="UTF-8" standalone="no"?>
<!DOCTYPE svg PUBLIC "-//W3C//DTD SVG 1.1//EN"
 "http://www.w3.org/Graphics/SVG/1.1/DTD/svg11.dtd">
<!-- Generated by graphviz version 2.38.0 (20140413.2041)
 -->
<!-- Title: main Pages: 1 -->
<svg width="595pt" height="446pt"
 viewBox="0.00 0.00 595.00 446.00" xmlns="http://www.w3.org/2000/svg" xmlns:xlink="http://www.w3.org/1999/xlink">
<g id="graph0" class="graph" transform="scale(1 1) rotate(0) translate(4 442)">
<title>main</title>
<polygon fill="white" stroke="none" points="-4,4 -4,-442 591,-442 591,4 -4,4"/>
<!-- Node1 -->
<g id="node1" class="node"><title>Node1</title>
<polygon fill="#bfbfbf" stroke="black" points="0,-209.5 0,-228.5 41,-228.5 41,-209.5 0,-209.5"/>
<text text-anchor="middle" x="20.5" y="-216.5" font-family="Helvetica,sans-Serif" font-size="10.00">main</text>
</g>
<!-- Node2 -->
<g id="node2" class="node"><title>Node2</title>
<g id="a_node2"><a xlink:href="class_serial_com.html#a386d2a4649e3a00b9b2f6e6cef921bbd" target="_top" xlink:title="Creates a object if there isn&#39;t one already. ">
<polygon fill="white" stroke="black" points="110,-418.5 110,-437.5 220,-437.5 220,-418.5 110,-418.5"/>
<text text-anchor="middle" x="165" y="-425.5" font-family="Helvetica,sans-Serif" font-size="10.00">SerialCom::initialize</text>
</a>
</g>
</g>
<!-- Node1&#45;&gt;Node2 -->
<g id="edge1" class="edge"><title>Node1&#45;&gt;Node2</title>
<path fill="none" stroke="midnightblue" d="M21.3494,-228.678C21.4244,-259.153 25.9361,-354.062 77,-404 83.5812,-410.436 91.7237,-415.182 100.364,-418.675"/>
<polygon fill="midnightblue" stroke="midnightblue" points="99.2906,-422.007 109.885,-421.994 101.595,-415.397 99.2906,-422.007"/>
</g>
<!-- Node6 -->
<g id="node6" class="node"><title>Node6</title>
<g id="a_node6"><a xlink:href="class_serial_com.html#a21ffd47b01f7337633a46bdb4ff47841" target="_top" xlink:title="Sends a message(command) to the Arduino Uno. ">
<polygon fill="white" stroke="black" points="302.5,-380.5 302.5,-399.5 397.5,-399.5 397.5,-380.5 302.5,-380.5"/>
<text text-anchor="middle" x="350" y="-387.5" font-family="Helvetica,sans-Serif" font-size="10.00">SerialCom::write</text>
</a>
</g>
</g>
<!-- Node1&#45;&gt;Node6 -->
<g id="edge5" class="edge"><title>Node1&#45;&gt;Node6</title>
<path fill="none" stroke="midnightblue" d="M21.6663,-228.523C22.7141,-255.967 29.8648,-335.522 77,-371 109.692,-395.607 222.269,-395.644 291.93,-393.074"/>
<polygon fill="midnightblue" stroke="midnightblue" points="292.45,-396.556 302.303,-392.661 292.171,-389.562 292.45,-396.556"/>
</g>
<!-- Node7 -->
<g id="node7" class="node"><title>Node7</title>
<g id="a_node7"><a xlink:href="class_capture.html#a0de3a886006d88c6370537a4c94d5512" target="_top" xlink:title="gets the webcam feed ">
<polygon fill="white" stroke="black" points="115.5,-342.5 115.5,-361.5 214.5,-361.5 214.5,-342.5 115.5,-342.5"/>
<text text-anchor="middle" x="165" y="-349.5" font-family="Helvetica,sans-Serif" font-size="10.00">Capture::getFeed</text>
</a>
</g>
</g>
<!-- Node1&#45;&gt;Node7 -->
<g id="edge7" class="edge"><title>Node1&#45;&gt;Node7</title>
<path fill="none" stroke="midnightblue" d="M23.2684,-228.738C27.8415,-250.971 42.2202,-305.65 77,-333 85.2886,-339.518 95.3358,-343.911 105.616,-346.85"/>
<polygon fill="midnightblue" stroke="midnightblue" points="104.952,-350.29 115.495,-349.243 106.6,-343.487 104.952,-350.29"/>
</g>
<!-- Node8 -->
<g id="node8" class="node"><title>Node8</title>
<g id="a_node8"><a xlink:href="class_moment.html#a3935415cd459b88170c02b21f9bb967e" target="_top" xlink:title="gets the output of the action ">
<polygon fill="white" stroke="black" points="92,-304.5 92,-323.5 238,-323.5 238,-304.5 92,-304.5"/>
<text text-anchor="middle" x="165" y="-311.5" font-family="Helvetica,sans-Serif" font-size="10.00">Moment::getCenterOfMass</text>
</a>
</g>
</g>
<!-- Node1&#45;&gt;Node8 -->
<g id="edge8" class="edge"><title>Node1&#45;&gt;Node8</title>
<path fill="none" stroke="midnightblue" d="M25.7202,-228.689C33.3973,-245.104 51.266,-278.231 77,-295 80.1653,-297.063 83.5191,-298.905 86.9965,-300.549"/>
<polygon fill="midnightblue" stroke="midnightblue" points="85.8672,-303.87 96.4457,-304.458 88.543,-297.401 85.8672,-303.87"/>
</g>
<!-- Node9 -->
<g id="node9" class="node"><title>Node9</title>
<g id="a_node9"><a xlink:href="group__main.html#gae1f91200f50fffab557456b23bdfa58c" target="_top" xlink:title="Scale funtion. ">
<polygon fill="white" stroke="black" points="144.5,-266.5 144.5,-285.5 185.5,-285.5 185.5,-266.5 144.5,-266.5"/>
<text text-anchor="middle" x="165" y="-273.5" font-family="Helvetica,sans-Serif" font-size="10.00">scale</text>
</a>
</g>
</g>
<!-- Node1&#45;&gt;Node9 -->
<g id="edge9" class="edge"><title>Node1&#45;&gt;Node9</title>
<path fill="none" stroke="midnightblue" d="M32.6342,-228.559C43.3253,-237.246 60.2762,-249.777 77,-257 95.2181,-264.868 117.039,-269.623 134.27,-272.408"/>
<polygon fill="midnightblue" stroke="midnightblue" points="133.928,-275.895 144.332,-273.898 134.953,-268.971 133.928,-275.895"/>
</g>
<!-- Node10 -->
<g id="node10" class="node"><title>Node10</title>
<g id="a_node10"><a xlink:href="class_g_u_i.html#a3c94195c575e4f75b77ee938e6e1c832" target="_top" xlink:title="gets the tracking state ">
<polygon fill="white" stroke="black" points="111.5,-228.5 111.5,-247.5 218.5,-247.5 218.5,-228.5 111.5,-228.5"/>
<text text-anchor="middle" x="165" y="-235.5" font-family="Helvetica,sans-Serif" font-size="10.00">GUI::trackingActive</text>
</a>
</g>
</g>
<!-- Node1&#45;&gt;Node10 -->
<g id="edge10" class="edge"><title>Node1&#45;&gt;Node10</title>
<path fill="none" stroke="midnightblue" d="M41.0152,-221.602C56.6812,-223.691 79.587,-226.745 101.396,-229.653"/>
<polygon fill="midnightblue" stroke="midnightblue" points="100.934,-233.122 111.309,-230.975 101.859,-226.184 100.934,-233.122"/>
</g>
<!-- Node11 -->
<g id="node11" class="node"><title>Node11</title>
<g id="a_node11"><a xlink:href="class_serial_com.html#a5f10f6c75de58e1c95ac88744dcbeaa5" target="_top" xlink:title="Reads the serial port for incomming messages. ">
<polygon fill="white" stroke="black" points="104,-190.5 104,-209.5 226,-209.5 226,-190.5 104,-190.5"/>
<text text-anchor="middle" x="165" y="-197.5" font-family="Helvetica,sans-Serif" font-size="10.00">SerialCom::readString</text>
</a>
</g>
</g>
<!-- Node1&#45;&gt;Node11 -->
<g id="edge11" class="edge"><title>Node1&#45;&gt;Node11</title>
<path fill="none" stroke="midnightblue" d="M41.0152,-216.398C54.8411,-214.555 74.3059,-211.959 93.6791,-209.376"/>
<polygon fill="midnightblue" stroke="midnightblue" points="94.3216,-212.822 103.771,-208.03 93.3964,-205.883 94.3216,-212.822"/>
</g>
<!-- Node12 -->
<g id="node12" class="node"><title>Node12</title>
<g id="a_node12"><a xlink:href="class_serial_com.html#a096924019be31614a3328cc994265e88" target="_top" xlink:title="Shows if a new message is recieved from the Serial input. ">
<polygon fill="white" stroke="black" points="77,-152.5 77,-171.5 253,-171.5 253,-152.5 77,-152.5"/>
<text text-anchor="middle" x="165" y="-159.5" font-family="Helvetica,sans-Serif" font-size="10.00">SerialCom::newMessageAvailable</text>
</a>
</g>
</g>
<!-- Node1&#45;&gt;Node12 -->
<g id="edge12" class="edge"><title>Node1&#45;&gt;Node12</title>
<path fill="none" stroke="midnightblue" d="M32.6342,-209.441C43.3253,-200.754 60.2762,-188.223 77,-181 82.8679,-178.466 89.1096,-176.254 95.4514,-174.328"/>
<polygon fill="midnightblue" stroke="midnightblue" points="96.7718,-177.593 105.46,-171.529 94.8868,-170.852 96.7718,-177.593"/>
</g>
<!-- Node13 -->
<g id="node13" class="node"><title>Node13</title>
<g id="a_node13"><a xlink:href="class_g_u_i.html#a975c47da657d318d058db818060535ae" target="_top" xlink:title="adds a message to the GUI console ">
<polygon fill="white" stroke="black" points="114.5,-114.5 114.5,-133.5 215.5,-133.5 215.5,-114.5 114.5,-114.5"/>
<text text-anchor="middle" x="165" y="-121.5" font-family="Helvetica,sans-Serif" font-size="10.00">GUI::addMessage</text>
</a>
</g>
</g>
<!-- Node1&#45;&gt;Node13 -->
<g id="edge13" class="edge"><title>Node1&#45;&gt;Node13</title>
<path fill="none" stroke="midnightblue" d="M25.7202,-209.311C33.3973,-192.896 51.266,-159.769 77,-143 85.1714,-137.675 94.5987,-133.821 104.167,-131.036"/>
<polygon fill="midnightblue" stroke="midnightblue" points="105.31,-134.357 114.142,-128.504 103.588,-127.572 105.31,-134.357"/>
</g>
<!-- Node14 -->
<g id="node14" class="node"><title>Node14</title>
<g id="a_node14"><a xlink:href="class_serial_com.html#a54d5e4b5bf7bbe7a16cfc2b3b3e4e5ae" target="_top" xlink:title="Returns last message. ">
<polygon fill="white" stroke="black" points="89.5,-76.5 89.5,-95.5 240.5,-95.5 240.5,-76.5 89.5,-76.5"/>
<text text-anchor="middle" x="165" y="-83.5" font-family="Helvetica,sans-Serif" font-size="10.00">SerialCom::getLastMessage</text>
</a>
</g>
</g>
<!-- Node1&#45;&gt;Node14 -->
<g id="edge14" class="edge"><title>Node1&#45;&gt;Node14</title>
<path fill="none" stroke="midnightblue" d="M23.2684,-209.262C27.8415,-187.029 42.2202,-132.35 77,-105 79.2027,-103.268 81.5296,-101.686 83.952,-100.241"/>
<polygon fill="midnightblue" stroke="midnightblue" points="85.7664,-103.245 93.0904,-95.5892 82.5908,-97.0068 85.7664,-103.245"/>
</g>
<!-- Node15 -->
<g id="node15" class="node"><title>Node15</title>
<g id="a_node15"><a xlink:href="class_g_u_i.html#a42202565084f404560810d3ed5da672a" target="_top" xlink:title="shows the output Matrix to the user ">
<polygon fill="white" stroke="black" points="116.5,-38.5 116.5,-57.5 213.5,-57.5 213.5,-38.5 116.5,-38.5"/>
<text text-anchor="middle" x="165" y="-45.5" font-family="Helvetica,sans-Serif" font-size="10.00">GUI::showOutput</text>
</a>
</g>
</g>
<!-- Node1&#45;&gt;Node15 -->
<g id="edge15" class="edge"><title>Node1&#45;&gt;Node15</title>
<path fill="none" stroke="midnightblue" d="M21.9533,-209.416C23.7695,-182.492 32.7755,-105.621 77,-67 85.2915,-59.7591 95.701,-55.0763 106.409,-52.0888"/>
<polygon fill="midnightblue" stroke="midnightblue" points="107.326,-55.4691 116.274,-49.7969 105.742,-48.6506 107.326,-55.4691"/>
</g>
<!-- Node16 -->
<g id="node16" class="node"><title>Node16</title>
<g id="a_node16"><a xlink:href="class_g_u_i.html#aca1eb90fb85b5645a5278af014ee98dd" target="_top" xlink:title="shows pipeline action windows depending on the state of the corresponding menu button ...">
<polygon fill="white" stroke="black" points="113,-0.5 113,-19.5 217,-19.5 217,-0.5 113,-0.5"/>
<text text-anchor="middle" x="165" y="-7.5" font-family="Helvetica,sans-Serif" font-size="10.00">GUI::showWindows</text>
</a>
</g>
</g>
<!-- Node1&#45;&gt;Node16 -->
<g id="edge16" class="edge"><title>Node1&#45;&gt;Node16</title>
<path fill="none" stroke="midnightblue" d="M21.1497,-209.387C20.5744,-178.233 23.2319,-79.1712 77,-29 84.2908,-22.1969 93.4305,-17.6159 103.025,-14.569"/>
<polygon fill="midnightblue" stroke="midnightblue" points="103.944,-17.9462 112.719,-12.008 102.156,-11.1784 103.944,-17.9462"/>
</g>
<!-- Node3 -->
<g id="node3" class="node"><title>Node3</title>
<g id="a_node3"><a xlink:href="class_serial_com.html#acf9ed461d5505333d9322d743facc7f8" target="_top" xlink:title="Constructor. ">
<polygon fill="white" stroke="black" points="289,-418.5 289,-437.5 411,-437.5 411,-418.5 289,-418.5"/>
<text text-anchor="middle" x="350" y="-425.5" font-family="Helvetica,sans-Serif" font-size="10.00">SerialCom::SerialCom</text>
</a>
</g>
</g>
<!-- Node2&#45;&gt;Node3 -->
<g id="edge2" class="edge"><title>Node2&#45;&gt;Node3</title>
<path fill="none" stroke="midnightblue" d="M220.411,-428C238.629,-428 259.21,-428 278.478,-428"/>
<polygon fill="midnightblue" stroke="midnightblue" points="278.719,-431.5 288.718,-428 278.718,-424.5 278.719,-431.5"/>
</g>
<!-- Node4 -->
<g id="node4" class="node"><title>Node4</title>
<g id="a_node4"><a xlink:href="class_serial_com.html#ab4694d10387475e78b52a33157f5934e" target="_top" xlink:title="shows a error message on the console ">
<polygon fill="white" stroke="black" points="452.5,-380.5 452.5,-399.5 581.5,-399.5 581.5,-380.5 452.5,-380.5"/>
<text text-anchor="middle" x="517" y="-387.5" font-family="Helvetica,sans-Serif" font-size="10.00">SerialCom::publishError</text>
</a>
</g>
</g>
<!-- Node3&#45;&gt;Node4 -->
<g id="edge3" class="edge"><title>Node3&#45;&gt;Node4</title>
<path fill="none" stroke="midnightblue" d="M392.636,-418.411C414.508,-413.374 441.506,-407.156 464.664,-401.823"/>
<polygon fill="midnightblue" stroke="midnightblue" points="465.704,-405.175 474.663,-399.52 464.133,-398.354 465.704,-405.175"/>
</g>
<!-- Node5 -->
<g id="node5" class="node"><title>Node5</title>
<g id="a_node5"><a xlink:href="class_serial_com.html#af9967e8dc494640b943b3035259279ab" target="_top" xlink:title="shows a succes message on the console ">
<polygon fill="white" stroke="black" points="447,-418.5 447,-437.5 587,-437.5 587,-418.5 447,-418.5"/>
<text text-anchor="middle" x="517" y="-425.5" font-family="Helvetica,sans-Serif" font-size="10.00">SerialCom::publishSucces</text>
</a>
</g>
</g>
<!-- Node3&#45;&gt;Node5 -->
<g id="edge4" class="edge"><title>Node3&#45;&gt;Node5</title>
<path fill="none" stroke="midnightblue" d="M411.036,-428C419.38,-428 428.057,-428 436.687,-428"/>
<polygon fill="midnightblue" stroke="midnightblue" points="436.774,-431.5 446.774,-428 436.774,-424.5 436.774,-431.5"/>
</g>
<!-- Node6&#45;&gt;Node4 -->
<g id="edge6" class="edge"><title>Node6&#45;&gt;Node4</title>
<path fill="none" stroke="midnightblue" d="M397.841,-390C411.62,-390 427.043,-390 442.081,-390"/>
<polygon fill="midnightblue" stroke="midnightblue" points="442.406,-393.5 452.406,-390 442.406,-386.5 442.406,-393.5"/>
</g>
</g>
</svg>
