<?xml version="1.0" encoding="UTF-8" standalone="no"?>
<!DOCTYPE svg PUBLIC "-//W3C//DTD SVG 1.1//EN"
 "http://www.w3.org/Graphics/SVG/1.1/DTD/svg11.dtd">
<!-- Generated by graphviz version 2.44.0 ()
 -->
<!-- Title: main Pages: 1 -->
<svg width="559pt" height="445pt"
 viewBox="0.00 0.00 559.00 444.72" xmlns="http://www.w3.org/2000/svg" xmlns:xlink="http://www.w3.org/1999/xlink">
<g id="graph0" class="graph" transform="scale(1 1) rotate(0) translate(4 440.72)">
<title>main</title>
<polygon fill="white" stroke="transparent" points="-4,4 -4,-440.72 555,-440.72 555,4 -4,4"/>
<!-- Node1 -->
<g id="node1" class="node">
<title>Node1</title>
<g id="a_node1"><a xlink:title="Main function.">
<polygon fill="#bfbfbf" stroke="black" points="0,-208.22 0,-227.22 38,-227.22 38,-208.22 0,-208.22"/>
<text text-anchor="middle" x="19" y="-215.22" font-family="Helvetica,sans-Serif" font-size="10.00">main</text>
</a>
</g>
</g>
<!-- Node2 -->
<g id="node2" class="node">
<title>Node2</title>
<g id="a_node2"><a xlink:href="classGUI.html#a975c47da657d318d058db818060535ae" target="_top" xlink:title="adds a message to the GUI console">
<polygon fill="white" stroke="black" points="108.5,-417.22 108.5,-436.22 203.5,-436.22 203.5,-417.22 108.5,-417.22"/>
<text text-anchor="middle" x="156" y="-424.22" font-family="Helvetica,sans-Serif" font-size="10.00">GUI::addMessage</text>
</a>
</g>
</g>
<!-- Node1&#45;&gt;Node2 -->
<g id="edge1" class="edge">
<title>Node1&#45;&gt;Node2</title>
<path fill="none" stroke="midnightblue" d="M19.6,-227.29C18.85,-258.32 20.92,-357.05 74,-407.72 80.83,-414.23 89.45,-418.66 98.5,-421.64"/>
<polygon fill="midnightblue" stroke="midnightblue" points="97.87,-425.1 108.43,-424.34 99.7,-418.34 97.87,-425.1"/>
</g>
<!-- Node3 -->
<g id="node3" class="node">
<title>Node3</title>
<g id="a_node3"><a xlink:href="classMoment.html#a3935415cd459b88170c02b21f9bb967e" target="_top" xlink:title="gets the output of the action">
<polygon fill="white" stroke="black" points="89.5,-379.22 89.5,-398.22 222.5,-398.22 222.5,-379.22 89.5,-379.22"/>
<text text-anchor="middle" x="156" y="-386.22" font-family="Helvetica,sans-Serif" font-size="10.00">Moment::getCenterOfMass</text>
</a>
</g>
</g>
<!-- Node1&#45;&gt;Node3 -->
<g id="edge2" class="edge">
<title>Node1&#45;&gt;Node3</title>
<path fill="none" stroke="midnightblue" d="M20.38,-227.26C21.99,-254.07 30.38,-330.69 74,-369.72 75.98,-371.49 78.09,-373.1 80.3,-374.57"/>
<polygon fill="midnightblue" stroke="midnightblue" points="78.86,-377.77 89.3,-379.56 82.26,-371.65 78.86,-377.77"/>
</g>
<!-- Node4 -->
<g id="node4" class="node">
<title>Node4</title>
<g id="a_node4"><a xlink:href="classCapture.html#a0de3a886006d88c6370537a4c94d5512" target="_top" xlink:title="gets the webcam feed">
<polygon fill="white" stroke="black" points="111,-341.22 111,-360.22 201,-360.22 201,-341.22 111,-341.22"/>
<text text-anchor="middle" x="156" y="-348.22" font-family="Helvetica,sans-Serif" font-size="10.00">Capture::getFeed</text>
</a>
</g>
</g>
<!-- Node1&#45;&gt;Node4 -->
<g id="edge3" class="edge">
<title>Node1&#45;&gt;Node4</title>
<path fill="none" stroke="midnightblue" d="M21.66,-227.41C26,-249.55 39.76,-304.06 74,-331.72 81.75,-337.98 91.21,-342.25 100.89,-345.14"/>
<polygon fill="midnightblue" stroke="midnightblue" points="100.04,-348.53 110.59,-347.59 101.76,-341.75 100.04,-348.53"/>
</g>
<!-- Node5 -->
<g id="node5" class="node">
<title>Node5</title>
<g id="a_node5"><a xlink:href="classSerialCom.html#a54d5e4b5bf7bbe7a16cfc2b3b3e4e5ae" target="_top" xlink:title="Returns last message.">
<polygon fill="white" stroke="black" points="86.5,-303.22 86.5,-322.22 225.5,-322.22 225.5,-303.22 86.5,-303.22"/>
<text text-anchor="middle" x="156" y="-310.22" font-family="Helvetica,sans-Serif" font-size="10.00">SerialCom::getLastMessage</text>
</a>
</g>
</g>
<!-- Node1&#45;&gt;Node5 -->
<g id="edge4" class="edge">
<title>Node1&#45;&gt;Node5</title>
<path fill="none" stroke="midnightblue" d="M24.06,-227.36C31.46,-243.71 48.74,-276.74 74,-293.72 76.97,-295.71 80.12,-297.5 83.39,-299.1"/>
<polygon fill="midnightblue" stroke="midnightblue" points="82.3,-302.44 92.87,-303.13 85.04,-295.99 82.3,-302.44"/>
</g>
<!-- Node6 -->
<g id="node6" class="node">
<title>Node6</title>
<g id="a_node6"><a xlink:href="classSerialCom.html#a386d2a4649e3a00b9b2f6e6cef921bbd" target="_top" xlink:title="Creates a object if there isn&#39;t one already.">
<polygon fill="white" stroke="black" points="105.5,-265.22 105.5,-284.22 206.5,-284.22 206.5,-265.22 105.5,-265.22"/>
<text text-anchor="middle" x="156" y="-272.22" font-family="Helvetica,sans-Serif" font-size="10.00">SerialCom::initialize</text>
</a>
</g>
</g>
<!-- Node1&#45;&gt;Node6 -->
<g id="edge5" class="edge">
<title>Node1&#45;&gt;Node6</title>
<path fill="none" stroke="midnightblue" d="M30.81,-227.23C41.2,-235.89 57.68,-248.39 74,-255.72 80.7,-258.72 87.94,-261.29 95.24,-263.46"/>
<polygon fill="midnightblue" stroke="midnightblue" points="94.61,-266.92 105.18,-266.2 96.46,-260.17 94.61,-266.92"/>
</g>
<!-- Node10 -->
<g id="node10" class="node">
<title>Node10</title>
<g id="a_node10"><a xlink:href="classSerialCom.html#a096924019be31614a3328cc994265e88" target="_top" xlink:title="Shows if a new message is recieved from the Serial input.">
<polygon fill="white" stroke="black" points="74,-227.22 74,-246.22 238,-246.22 238,-227.22 74,-227.22"/>
<text text-anchor="middle" x="156" y="-234.22" font-family="Helvetica,sans-Serif" font-size="10.00">SerialCom::newMessageAvailable</text>
</a>
</g>
</g>
<!-- Node1&#45;&gt;Node10 -->
<g id="edge9" class="edge">
<title>Node1&#45;&gt;Node10</title>
<path fill="none" stroke="midnightblue" d="M38.21,-220.28C48.67,-221.75 62.62,-223.71 77.22,-225.77"/>
<polygon fill="midnightblue" stroke="midnightblue" points="77.01,-229.27 87.4,-227.2 77.98,-222.34 77.01,-229.27"/>
</g>
<!-- Node11 -->
<g id="node11" class="node">
<title>Node11</title>
<g id="a_node11"><a xlink:href="classSerialCom.html#a5f10f6c75de58e1c95ac88744dcbeaa5" target="_top" xlink:title="Reads the serial port for incomming messages.">
<polygon fill="white" stroke="black" points="101,-189.22 101,-208.22 211,-208.22 211,-189.22 101,-189.22"/>
<text text-anchor="middle" x="156" y="-196.22" font-family="Helvetica,sans-Serif" font-size="10.00">SerialCom::readString</text>
</a>
</g>
</g>
<!-- Node1&#45;&gt;Node11 -->
<g id="edge10" class="edge">
<title>Node1&#45;&gt;Node11</title>
<path fill="none" stroke="midnightblue" d="M38.21,-215.15C51.87,-213.23 71.47,-210.47 90.72,-207.76"/>
<polygon fill="midnightblue" stroke="midnightblue" points="91.3,-211.22 100.71,-206.36 90.32,-204.28 91.3,-211.22"/>
</g>
<!-- Node12 -->
<g id="node12" class="node">
<title>Node12</title>
<g id="a_node12"><a xlink:href="group__main.html#gae1f91200f50fffab557456b23bdfa58c" target="_top" xlink:title="Scale funtion.">
<polygon fill="white" stroke="black" points="136,-151.22 136,-170.22 176,-170.22 176,-151.22 136,-151.22"/>
<text text-anchor="middle" x="156" y="-158.22" font-family="Helvetica,sans-Serif" font-size="10.00">scale</text>
</a>
</g>
</g>
<!-- Node1&#45;&gt;Node12 -->
<g id="edge11" class="edge">
<title>Node1&#45;&gt;Node12</title>
<path fill="none" stroke="midnightblue" d="M30.81,-208.2C41.2,-199.55 57.68,-187.04 74,-179.72 90.28,-172.41 109.7,-167.73 125.44,-164.85"/>
<polygon fill="midnightblue" stroke="midnightblue" points="126.39,-168.24 135.67,-163.13 125.23,-161.33 126.39,-168.24"/>
</g>
<!-- Node13 -->
<g id="node13" class="node">
<title>Node13</title>
<g id="a_node13"><a xlink:href="classGUI.html#a42202565084f404560810d3ed5da672a" target="_top" xlink:title="shows the output Matrix to the user">
<polygon fill="white" stroke="black" points="110,-113.22 110,-132.22 202,-132.22 202,-113.22 110,-113.22"/>
<text text-anchor="middle" x="156" y="-120.22" font-family="Helvetica,sans-Serif" font-size="10.00">GUI::showOutput</text>
</a>
</g>
</g>
<!-- Node1&#45;&gt;Node13 -->
<g id="edge12" class="edge">
<title>Node1&#45;&gt;Node13</title>
<path fill="none" stroke="midnightblue" d="M24.06,-208.07C31.46,-191.72 48.74,-158.69 74,-141.72 81.75,-136.51 90.75,-132.72 99.87,-129.97"/>
<polygon fill="midnightblue" stroke="midnightblue" points="100.98,-133.29 109.76,-127.36 99.2,-126.52 100.98,-133.29"/>
</g>
<!-- Node14 -->
<g id="node14" class="node">
<title>Node14</title>
<g id="a_node14"><a xlink:href="classGUI.html#aca1eb90fb85b5645a5278af014ee98dd" target="_top" xlink:title="shows pipeline action windows depending on the state of the corresponding menu button">
<polygon fill="white" stroke="black" points="105,-75.22 105,-94.22 207,-94.22 207,-75.22 105,-75.22"/>
<text text-anchor="middle" x="156" y="-82.22" font-family="Helvetica,sans-Serif" font-size="10.00">GUI::showWindows</text>
</a>
</g>
</g>
<!-- Node1&#45;&gt;Node14 -->
<g id="edge13" class="edge">
<title>Node1&#45;&gt;Node14</title>
<path fill="none" stroke="midnightblue" d="M21.66,-208.02C26,-185.88 39.76,-131.37 74,-103.72 80.16,-98.74 87.4,-95.02 94.97,-92.25"/>
<polygon fill="midnightblue" stroke="midnightblue" points="96.18,-95.54 104.69,-89.23 94.1,-88.86 96.18,-95.54"/>
</g>
<!-- Node15 -->
<g id="node15" class="node">
<title>Node15</title>
<g id="a_node15"><a xlink:href="classGUI.html#a3c94195c575e4f75b77ee938e6e1c832" target="_top" xlink:title="gets the tracking state">
<polygon fill="white" stroke="black" points="105.5,-37.22 105.5,-56.22 206.5,-56.22 206.5,-37.22 105.5,-37.22"/>
<text text-anchor="middle" x="156" y="-44.22" font-family="Helvetica,sans-Serif" font-size="10.00">GUI::trackingActive</text>
</a>
</g>
</g>
<!-- Node1&#45;&gt;Node15 -->
<g id="edge14" class="edge">
<title>Node1&#45;&gt;Node15</title>
<path fill="none" stroke="midnightblue" d="M20.38,-208.17C21.99,-181.36 30.38,-104.74 74,-65.72 80.2,-60.17 87.71,-56.16 95.62,-53.27"/>
<polygon fill="midnightblue" stroke="midnightblue" points="96.88,-56.55 105.42,-50.28 94.83,-49.85 96.88,-56.55"/>
</g>
<!-- Node16 -->
<g id="node16" class="node">
<title>Node16</title>
<g id="a_node16"><a xlink:href="classSerialCom.html#a21ffd47b01f7337633a46bdb4ff47841" target="_top" xlink:title="Sends a message(command) to the Arduino Uno.">
<polygon fill="white" stroke="black" points="286,-113.22 286,-132.22 373,-132.22 373,-113.22 286,-113.22"/>
<text text-anchor="middle" x="329.5" y="-120.22" font-family="Helvetica,sans-Serif" font-size="10.00">SerialCom::write</text>
</a>
</g>
</g>
<!-- Node1&#45;&gt;Node16 -->
<g id="edge15" class="edge">
<title>Node1&#45;&gt;Node16</title>
<path fill="none" stroke="midnightblue" d="M21.24,-207.89C25.99,-172.19 44.17,-50.25 74,-27.72 132.16,16.22 171,0.99 238,-27.72 274.27,-43.26 302.9,-81.28 317.62,-104.23"/>
<polygon fill="midnightblue" stroke="midnightblue" points="314.82,-106.36 323.05,-113.03 320.78,-102.68 314.82,-106.36"/>
</g>
<!-- Node7 -->
<g id="node7" class="node">
<title>Node7</title>
<g id="a_node7"><a xlink:href="classSerialCom.html#acf9ed461d5505333d9322d743facc7f8" target="_top" xlink:title="Constructor.">
<polygon fill="white" stroke="black" points="274,-236.22 274,-255.22 385,-255.22 385,-236.22 274,-236.22"/>
<text text-anchor="middle" x="329.5" y="-243.22" font-family="Helvetica,sans-Serif" font-size="10.00">SerialCom::SerialCom</text>
</a>
</g>
</g>
<!-- Node6&#45;&gt;Node7 -->
<g id="edge6" class="edge">
<title>Node6&#45;&gt;Node7</title>
<path fill="none" stroke="midnightblue" d="M206.6,-266.33C224.47,-263.31 244.89,-259.85 263.84,-256.65"/>
<polygon fill="midnightblue" stroke="midnightblue" points="264.62,-260.07 273.9,-254.95 263.46,-253.17 264.62,-260.07"/>
</g>
<!-- Node8 -->
<g id="node8" class="node">
<title>Node8</title>
<g id="a_node8"><a xlink:href="classSerialCom.html#ab4694d10387475e78b52a33157f5934e" target="_top" xlink:title="shows a error message on the console">
<polygon fill="white" stroke="black" points="427.5,-170.22 427.5,-189.22 544.5,-189.22 544.5,-170.22 427.5,-170.22"/>
<text text-anchor="middle" x="486" y="-177.22" font-family="Helvetica,sans-Serif" font-size="10.00">SerialCom::publishError</text>
</a>
</g>
</g>
<!-- Node7&#45;&gt;Node8 -->
<g id="edge7" class="edge">
<title>Node7&#45;&gt;Node8</title>
<path fill="none" stroke="midnightblue" d="M352.97,-236.12C379.36,-224.85 423.33,-206.06 453.21,-193.3"/>
<polygon fill="midnightblue" stroke="midnightblue" points="454.94,-196.37 462.76,-189.22 452.19,-189.93 454.94,-196.37"/>
</g>
<!-- Node9 -->
<g id="node9" class="node">
<title>Node9</title>
<g id="a_node9"><a xlink:href="classSerialCom.html#af9967e8dc494640b943b3035259279ab" target="_top" xlink:title="shows a succes message on the console">
<polygon fill="white" stroke="black" points="421,-236.22 421,-255.22 551,-255.22 551,-236.22 421,-236.22"/>
<text text-anchor="middle" x="486" y="-243.22" font-family="Helvetica,sans-Serif" font-size="10.00">SerialCom::publishSucces</text>
</a>
</g>
</g>
<!-- Node7&#45;&gt;Node9 -->
<g id="edge8" class="edge">
<title>Node7&#45;&gt;Node9</title>
<path fill="none" stroke="midnightblue" d="M385.41,-245.72C393.55,-245.72 402.05,-245.72 410.5,-245.72"/>
<polygon fill="midnightblue" stroke="midnightblue" points="410.77,-249.22 420.77,-245.72 410.77,-242.22 410.77,-249.22"/>
</g>
<!-- Node16&#45;&gt;Node8 -->
<g id="edge16" class="edge">
<title>Node16&#45;&gt;Node8</title>
<path fill="none" stroke="midnightblue" d="M356.36,-132.26C381.87,-141.67 421.07,-156.13 449.49,-166.62"/>
<polygon fill="midnightblue" stroke="midnightblue" points="448.46,-169.97 459.06,-170.14 450.89,-163.4 448.46,-169.97"/>
</g>
</g>
</svg>
