<?xml version="1.0" encoding="UTF-8" standalone="no"?>
<!DOCTYPE svg PUBLIC "-//W3C//DTD SVG 1.1//EN"
 "http://www.w3.org/Graphics/SVG/1.1/DTD/svg11.dtd">
<!-- Generated by graphviz version 2.44.0 ()
 -->
<!-- Title: Classes Pages: 1 -->
<svg width="328pt" height="64pt"
 viewBox="0.00 0.00 328.00 64.00" xmlns="http://www.w3.org/2000/svg" xmlns:xlink="http://www.w3.org/1999/xlink">
<g id="graph0" class="graph" transform="scale(1 1) rotate(0) translate(4 60)">
<title>Classes</title>
<polygon fill="white" stroke="transparent" points="-4,4 -4,-60 324,-60 324,4 -4,4"/>
<!-- Node2 -->
<g id="node1" class="node">
<title>Node2</title>
<g id="a_node1"><a xlink:href="group__tracking.html" target="_top" xlink:title="This is the group contains arduino software.">
<polygon fill="white" stroke="black" points="125,-42.5 0,-42.5 0,-12.5 125,-12.5 125,-42.5"/>
<text text-anchor="start" x="8" y="-30.5" font-family="Helvetica,sans-Serif" font-size="10.00">The Arduino Uno tracking</text>
<text text-anchor="middle" x="62.5" y="-19.5" font-family="Helvetica,sans-Serif" font-size="10.00"> module</text>
</a>
</g>
</g>
<!-- Node1 -->
<g id="node4" class="node">
<title>Node1</title>
<g id="a_node4"><a xlink:title="all classes used">
<polygon fill="#bfbfbf" stroke="black" points="213,-37 161,-37 161,-18 213,-18 213,-37"/>
<text text-anchor="middle" x="187" y="-25" font-family="Helvetica,sans-Serif" font-size="10.00">Classes</text>
</a>
</g>
</g>
<!-- Node2&#45;&gt;Node1 -->
<g id="edge1" class="edge">
<title>Node2&#45;&gt;Node1</title>
<path fill="none" stroke="black" d="M135.13,-27.5C144.29,-27.5 153.12,-27.5 160.79,-27.5"/>
<polygon fill="black" stroke="black" points="135.11,-24 125.11,-27.5 135.11,-31 135.11,-24"/>
</g>
<!-- Node3 -->
<g id="node2" class="node">
<title>Node3</title>
<g id="a_node2"><a xlink:href="group__Unoheader.html" target="_top" xlink:title="all header files">
<polygon fill="white" stroke="black" points="320,-56 249,-56 249,-37 320,-37 320,-56"/>
<text text-anchor="middle" x="284.5" y="-44" font-family="Helvetica,sans-Serif" font-size="10.00">Header Files</text>
</a>
</g>
</g>
<!-- Node4 -->
<g id="node3" class="node">
<title>Node4</title>
<g id="a_node3"><a xlink:href="group__Unocpp.html" target="_top" xlink:title="all C++ files">
<polygon fill="white" stroke="black" points="314,-19 255,-19 255,0 314,0 314,-19"/>
<text text-anchor="middle" x="284.5" y="-7" font-family="Helvetica,sans-Serif" font-size="10.00">C++ Files</text>
</a>
</g>
</g>
<!-- Node1&#45;&gt;Node3 -->
<g id="edge2" class="edge">
<title>Node1&#45;&gt;Node3</title>
<path fill="none" stroke="black" d="M223.02,-34.47C231.46,-36.15 240.47,-37.94 248.88,-39.61"/>
<polygon fill="black" stroke="black" points="223.58,-31.01 213.09,-32.49 222.22,-37.88 223.58,-31.01"/>
</g>
<!-- Node1&#45;&gt;Node4 -->
<g id="edge3" class="edge">
<title>Node1&#45;&gt;Node4</title>
<path fill="none" stroke="black" d="M223.16,-20.87C233.59,-18.91 244.89,-16.78 254.86,-14.9"/>
<polygon fill="black" stroke="black" points="222.27,-17.48 213.09,-22.77 223.57,-24.36 222.27,-17.48"/>
</g>
</g>
</svg>
