<?xml version="1.0" encoding="UTF-8" standalone="no"?>
<!DOCTYPE svg PUBLIC "-//W3C//DTD SVG 1.1//EN"
 "http://www.w3.org/Graphics/SVG/1.1/DTD/svg11.dtd">
<!-- Generated by graphviz version 2.44.0 ()
 -->
<!-- Title: GUI classes Pages: 1 -->
<svg width="344pt" height="64pt"
 viewBox="0.00 0.00 344.00 64.00" xmlns="http://www.w3.org/2000/svg" xmlns:xlink="http://www.w3.org/1999/xlink">
<g id="graph0" class="graph" transform="scale(1 1) rotate(0) translate(4 60)">
<title>GUI classes</title>
<polygon fill="white" stroke="transparent" points="-4,4 -4,-60 340,-60 340,4 -4,4"/>
<!-- Node4 -->
<g id="node1" class="node">
<title>Node4</title>
<g id="a_node1"><a xlink:href="group__graphiccpp.html" target="_top" xlink:title="all C++ files">
<polygon fill="white" stroke="black" points="330,-56 271,-56 271,-37 330,-37 330,-56"/>
<text text-anchor="middle" x="300.5" y="-44" font-family="Helvetica,sans-Serif" font-size="10.00">C++ Files</text>
</a>
</g>
</g>
<!-- Node3 -->
<g id="node2" class="node">
<title>Node3</title>
<g id="a_node2"><a xlink:href="group__graphicheader.html" target="_top" xlink:title="all header files">
<polygon fill="white" stroke="black" points="336,-19 265,-19 265,0 336,0 336,-19"/>
<text text-anchor="middle" x="300.5" y="-7" font-family="Helvetica,sans-Serif" font-size="10.00">Header Files</text>
</a>
</g>
</g>
<!-- Node1 -->
<g id="node3" class="node">
<title>Node1</title>
<g id="a_node3"><a xlink:title="all classes used for the graphic user interface">
<polygon fill="#bfbfbf" stroke="black" points="229,-37 158,-37 158,-18 229,-18 229,-37"/>
<text text-anchor="middle" x="193.5" y="-25" font-family="Helvetica,sans-Serif" font-size="10.00">GUI classes</text>
</a>
</g>
</g>
<!-- Node1&#45;&gt;Node4 -->
<g id="edge3" class="edge">
<title>Node1&#45;&gt;Node4</title>
<path fill="none" stroke="black" d="M239.23,-35.59C249.93,-37.53 261.07,-39.55 270.82,-41.31"/>
<polygon fill="black" stroke="black" points="239.64,-32.11 229.17,-33.77 238.39,-39 239.64,-32.11"/>
</g>
<!-- Node1&#45;&gt;Node3 -->
<g id="edge2" class="edge">
<title>Node1&#45;&gt;Node3</title>
<path fill="none" stroke="black" d="M239.1,-19.85C247.71,-18.38 256.62,-16.85 264.86,-15.44"/>
<polygon fill="black" stroke="black" points="238.44,-16.42 229.17,-21.56 239.62,-23.32 238.44,-16.42"/>
</g>
<!-- Node2 -->
<g id="node4" class="node">
<title>Node2</title>
<g id="a_node4"><a xlink:href="group__processing.html" target="_top" xlink:title="This is the group containing als the image processing parts.">
<polygon fill="white" stroke="black" points="122,-42.5 0,-42.5 0,-12.5 122,-12.5 122,-42.5"/>
<text text-anchor="start" x="8" y="-30.5" font-family="Helvetica,sans-Serif" font-size="10.00">The OpenCV proccesing</text>
<text text-anchor="middle" x="61" y="-19.5" font-family="Helvetica,sans-Serif" font-size="10.00"> module</text>
</a>
</g>
</g>
<!-- Node2&#45;&gt;Node1 -->
<g id="edge1" class="edge">
<title>Node2&#45;&gt;Node1</title>
<path fill="none" stroke="black" d="M132.56,-27.5C141.29,-27.5 149.89,-27.5 157.74,-27.5"/>
<polygon fill="black" stroke="black" points="132.28,-24 122.28,-27.5 132.28,-31 132.28,-24"/>
</g>
</g>
</svg>
