<?xml version="1.0" encoding="UTF-8" standalone="no"?>
<!DOCTYPE svg PUBLIC "-//W3C//DTD SVG 1.1//EN"
 "http://www.w3.org/Graphics/SVG/1.1/DTD/svg11.dtd">
<!-- Generated by graphviz version 2.44.0 ()
 -->
<!-- Title: The Arduino Uno tracking module Pages: 1 -->
<svg width="413pt" height="64pt"
 viewBox="0.00 0.00 413.00 64.00" xmlns="http://www.w3.org/2000/svg" xmlns:xlink="http://www.w3.org/1999/xlink">
<g id="graph0" class="graph" transform="scale(1 1) rotate(0) translate(4 60)">
<title>The Arduino Uno tracking module</title>
<polygon fill="white" stroke="transparent" points="-4,4 -4,-60 409,-60 409,4 -4,4"/>
<!-- Node1 -->
<g id="node1" class="node">
<title>Node1</title>
<g id="a_node1"><a xlink:title="This is the group contains arduino software.">
<polygon fill="#bfbfbf" stroke="black" points="292,-42.5 167,-42.5 167,-12.5 292,-12.5 292,-42.5"/>
<text text-anchor="start" x="175" y="-30.5" font-family="Helvetica,sans-Serif" font-size="10.00">The Arduino Uno tracking</text>
<text text-anchor="middle" x="229.5" y="-19.5" font-family="Helvetica,sans-Serif" font-size="10.00"> module</text>
</a>
</g>
</g>
<!-- Node3 -->
<g id="node3" class="node">
<title>Node3</title>
<g id="a_node3"><a xlink:href="group__mainUno.html" target="_top" xlink:title="The main entry point for the openCV processing console application.">
<polygon fill="white" stroke="black" points="405,-56 328,-56 328,-37 405,-37 405,-56"/>
<text text-anchor="middle" x="366.5" y="-44" font-family="Helvetica,sans-Serif" font-size="10.00">Main Function</text>
</a>
</g>
</g>
<!-- Node1&#45;&gt;Node3 -->
<g id="edge2" class="edge">
<title>Node1&#45;&gt;Node3</title>
<path fill="none" stroke="black" d="M302.14,-37.58C311.05,-38.84 319.86,-40.08 327.95,-41.22"/>
<polygon fill="black" stroke="black" points="302.46,-34.09 292.07,-36.17 301.49,-41.03 302.46,-34.09"/>
</g>
<!-- Node4 -->
<g id="node4" class="node">
<title>Node4</title>
<g id="a_node4"><a xlink:href="group__classes.html" target="_top" xlink:title="all classes used">
<polygon fill="white" stroke="black" points="392.5,-19 340.5,-19 340.5,0 392.5,0 392.5,-19"/>
<text text-anchor="middle" x="366.5" y="-7" font-family="Helvetica,sans-Serif" font-size="10.00">Classes</text>
</a>
</g>
</g>
<!-- Node1&#45;&gt;Node4 -->
<g id="edge3" class="edge">
<title>Node1&#45;&gt;Node4</title>
<path fill="none" stroke="black" d="M302.12,-17.95C315.91,-16.11 329.47,-14.3 340.49,-12.83"/>
<polygon fill="black" stroke="black" points="301.52,-14.5 292.07,-19.29 302.45,-21.44 301.52,-14.5"/>
</g>
<!-- Node2 -->
<g id="node2" class="node">
<title>Node2</title>
<g id="a_node2"><a xlink:href="group__WCT.html" target="_top" xlink:title="using Arduino Uno and OpenCV">
<polygon fill="white" stroke="black" points="131,-37 0,-37 0,-18 131,-18 131,-37"/>
<text text-anchor="middle" x="65.5" y="-25" font-family="Helvetica,sans-Serif" font-size="10.00">Webcam tracking software</text>
</a>
</g>
</g>
<!-- Node2&#45;&gt;Node1 -->
<g id="edge1" class="edge">
<title>Node2&#45;&gt;Node1</title>
<path fill="none" stroke="black" d="M141.7,-27.5C150.16,-27.5 158.69,-27.5 166.95,-27.5"/>
<polygon fill="black" stroke="black" points="141.46,-24 131.46,-27.5 141.46,-31 141.46,-24"/>
</g>
</g>
</svg>
