<?xml version="1.0" encoding="UTF-8" standalone="no"?>
<!DOCTYPE svg PUBLIC "-//W3C//DTD SVG 1.1//EN"
 "http://www.w3.org/Graphics/SVG/1.1/DTD/svg11.dtd">
<!-- Generated by graphviz version 2.38.0 (20140413.2041)
 -->
<!-- Title: PipeLine classes Pages: 1 -->
<svg width="381pt" height="66pt"
 viewBox="0.00 0.00 381.00 66.00" xmlns="http://www.w3.org/2000/svg" xmlns:xlink="http://www.w3.org/1999/xlink">
<g id="graph0" class="graph" transform="scale(1 1) rotate(0) translate(4 62)">
<title>PipeLine classes</title>
<polygon fill="white" stroke="none" points="-4,4 -4,-62 377,-62 377,4 -4,4"/>
<!-- Node2 -->
<g id="node1" class="node"><title>Node2</title>
<g id="a_node1"><a xlink:href="group__pipe_lineheader.html" target="_top" xlink:title="all header files ">
<polygon fill="white" stroke="black" points="298,-38.5 298,-57.5 373,-57.5 373,-38.5 298,-38.5"/>
<text text-anchor="middle" x="335.5" y="-45.5" font-family="Helvetica,sans-Serif" font-size="10.00">Header Files</text>
</a>
</g>
</g>
<!-- Node0 -->
<g id="node2" class="node"><title>Node0</title>
<polygon fill="#bfbfbf" stroke="black" points="167,-19.5 167,-38.5 262,-38.5 262,-19.5 167,-19.5"/>
<text text-anchor="middle" x="214.5" y="-26.5" font-family="Helvetica,sans-Serif" font-size="10.00">PipeLine classes</text>
</g>
<!-- Node0&#45;&gt;Node2 -->
<g id="edge2" class="edge"><title>Node0&#45;&gt;Node2</title>
<path fill="none" stroke="black" d="M272.314,-38.0711C281.005,-39.4589 289.774,-40.8588 297.875,-42.1522"/>
<polygon fill="black" stroke="black" points="272.617,-34.5753 262.19,-36.4548 271.513,-41.4877 272.617,-34.5753"/>
</g>
<!-- Node3 -->
<g id="node4" class="node"><title>Node3</title>
<g id="a_node4"><a xlink:href="group__pipe_linecpp.html" target="_top" xlink:title="all C++ files ">
<polygon fill="white" stroke="black" points="304,-0.5 304,-19.5 367,-19.5 367,-0.5 304,-0.5"/>
<text text-anchor="middle" x="335.5" y="-7.5" font-family="Helvetica,sans-Serif" font-size="10.00">C++ Files</text>
</a>
</g>
</g>
<!-- Node0&#45;&gt;Node3 -->
<g id="edge3" class="edge"><title>Node0&#45;&gt;Node3</title>
<path fill="none" stroke="black" d="M272.108,-19.9617C282.993,-18.2238 294.007,-16.4652 303.689,-14.9194"/>
<polygon fill="black" stroke="black" points="271.513,-16.5123 262.19,-21.5452 272.617,-23.4247 271.513,-16.5123"/>
</g>
<!-- Node1 -->
<g id="node3" class="node"><title>Node1</title>
<g id="a_node3"><a xlink:href="group__processing.html" target="_top" xlink:title="This is the group containing als the image processing parts. ">
<polygon fill="white" stroke="black" points="0,-14 0,-44 131,-44 131,-14 0,-14"/>
<text text-anchor="start" x="8" y="-32" font-family="Helvetica,sans-Serif" font-size="10.00">The OpenCV proccesing</text>
<text text-anchor="middle" x="65.5" y="-21" font-family="Helvetica,sans-Serif" font-size="10.00"> module</text>
</a>
</g>
</g>
<!-- Node1&#45;&gt;Node0 -->
<g id="edge1" class="edge"><title>Node1&#45;&gt;Node0</title>
<path fill="none" stroke="black" d="M141.442,-29C150.006,-29 158.544,-29 166.59,-29"/>
<polygon fill="black" stroke="black" points="141.404,-25.5001 131.404,-29 141.404,-32.5001 141.404,-25.5001"/>
</g>
</g>
</svg>
