<?xml version="1.0" encoding="UTF-8" standalone="no"?>
<!DOCTYPE svg PUBLIC "-//W3C//DTD SVG 1.1//EN"
 "http://www.w3.org/Graphics/SVG/1.1/DTD/svg11.dtd">
<!-- Generated by graphviz version 2.38.0 (20140413.2041)
 -->
<!-- Title: Webcam tracking software Pages: 1 -->
<svg width="323pt" height="88pt"
 viewBox="0.00 0.00 323.00 88.00" xmlns="http://www.w3.org/2000/svg" xmlns:xlink="http://www.w3.org/1999/xlink">
<g id="graph0" class="graph" transform="scale(1 1) rotate(0) translate(4 84)">
<title>Webcam tracking software</title>
<polygon fill="white" stroke="none" points="-4,4 -4,-84 319,-84 319,4 -4,4"/>
<!-- Node1 -->
<g id="node1" class="node"><title>Node1</title>
<g id="a_node1"><a xlink:href="group__tracking.html" target="_top" xlink:title="This is the group contains arduino software. ">
<polygon fill="white" stroke="black" points="178,-49.5 178,-79.5 315,-79.5 315,-49.5 178,-49.5"/>
<text text-anchor="start" x="186" y="-67.5" font-family="Helvetica,sans-Serif" font-size="10.00">The Arduino Uno tracking</text>
<text text-anchor="middle" x="246.5" y="-56.5" font-family="Helvetica,sans-Serif" font-size="10.00"> module</text>
</a>
</g>
</g>
<!-- Node0 -->
<g id="node2" class="node"><title>Node0</title>
<polygon fill="#bfbfbf" stroke="black" points="0,-30 0,-49 142,-49 142,-30 0,-30"/>
<text text-anchor="middle" x="71" y="-37" font-family="Helvetica,sans-Serif" font-size="10.00">Webcam tracking software</text>
</g>
<!-- Node0&#45;&gt;Node1 -->
<g id="edge1" class="edge"><title>Node0&#45;&gt;Node1</title>
<path fill="none" stroke="black" d="M148.271,-50.49C158.127,-51.9102 168.166,-53.3568 177.869,-54.7549"/>
<polygon fill="black" stroke="black" points="148.485,-46.9848 138.088,-49.0227 147.486,-53.9132 148.485,-46.9848"/>
</g>
<!-- Node2 -->
<g id="node3" class="node"><title>Node2</title>
<g id="a_node3"><a xlink:href="group__processing.html" target="_top" xlink:title="This is the group containing als the image processing parts. ">
<polygon fill="white" stroke="black" points="181,-0.5 181,-30.5 312,-30.5 312,-0.5 181,-0.5"/>
<text text-anchor="start" x="189" y="-18.5" font-family="Helvetica,sans-Serif" font-size="10.00">The OpenCV proccesing</text>
<text text-anchor="middle" x="246.5" y="-7.5" font-family="Helvetica,sans-Serif" font-size="10.00"> module</text>
</a>
</g>
</g>
<!-- Node0&#45;&gt;Node2 -->
<g id="edge2" class="edge"><title>Node0&#45;&gt;Node2</title>
<path fill="none" stroke="black" d="M151.008,-28.571C161.011,-27.1872 171.153,-25.7843 180.896,-24.4366"/>
<polygon fill="black" stroke="black" points="150.496,-25.1083 141.07,-29.9456 151.456,-32.0423 150.496,-25.1083"/>
</g>
</g>
</svg>
