<?xml version="1.0" encoding="UTF-8" standalone="no"?>
<!DOCTYPE svg PUBLIC "-//W3C//DTD SVG 1.1//EN"
 "http://www.w3.org/Graphics/SVG/1.1/DTD/svg11.dtd">
<!-- Generated by graphviz version 2.38.0 (20140413.2041)
 -->
<!-- Title: The OpenCV proccesing module Pages: 1 -->
<svg width="475pt" height="142pt"
 viewBox="0.00 0.00 475.00 142.00" xmlns="http://www.w3.org/2000/svg" xmlns:xlink="http://www.w3.org/1999/xlink">
<g id="graph0" class="graph" transform="scale(1 1) rotate(0) translate(4 138)">
<title>The OpenCV proccesing module</title>
<polygon fill="white" stroke="none" points="-4,4 -4,-138 471,-138 471,4 -4,4"/>
<!-- Node1 -->
<g id="node1" class="node"><title>Node1</title>
<g id="a_node1"><a xlink:href="group___w_c_t.html" target="_top" xlink:title="using Arduino Uno and OpenCV ">
<polygon fill="white" stroke="black" points="0,-57.5 0,-76.5 142,-76.5 142,-57.5 0,-57.5"/>
<text text-anchor="middle" x="71" y="-64.5" font-family="Helvetica,sans-Serif" font-size="10.00">Webcam tracking software</text>
</a>
</g>
</g>
<!-- Node0 -->
<g id="node4" class="node"><title>Node0</title>
<polygon fill="#bfbfbf" stroke="black" points="178,-52 178,-82 309,-82 309,-52 178,-52"/>
<text text-anchor="start" x="186" y="-70" font-family="Helvetica,sans-Serif" font-size="10.00">The OpenCV proccesing</text>
<text text-anchor="middle" x="243.5" y="-59" font-family="Helvetica,sans-Serif" font-size="10.00"> module</text>
</g>
<!-- Node1&#45;&gt;Node0 -->
<g id="edge1" class="edge"><title>Node1&#45;&gt;Node0</title>
<path fill="none" stroke="black" d="M152.591,-67C161.043,-67 169.557,-67 177.798,-67"/>
<polygon fill="black" stroke="black" points="152.333,-63.5001 142.333,-67 152.333,-70.5001 152.333,-63.5001"/>
</g>
<!-- Node4 -->
<g id="node2" class="node"><title>Node4</title>
<g id="a_node2"><a xlink:href="group__pipe_line.html" target="_top" xlink:title="all classes used for the OpenCV pipeLine ">
<polygon fill="white" stroke="black" points="358.5,-114.5 358.5,-133.5 453.5,-133.5 453.5,-114.5 358.5,-114.5"/>
<text text-anchor="middle" x="406" y="-121.5" font-family="Helvetica,sans-Serif" font-size="10.00">PipeLine classes</text>
</a>
</g>
</g>
<!-- Node3 -->
<g id="node3" class="node"><title>Node3</title>
<g id="a_node3"><a xlink:href="group__graphic.html" target="_top" xlink:title="all classes used for the graphic user interface ">
<polygon fill="white" stroke="black" points="370,-76.5 370,-95.5 442,-95.5 442,-76.5 370,-76.5"/>
<text text-anchor="middle" x="406" y="-83.5" font-family="Helvetica,sans-Serif" font-size="10.00">GUI classes</text>
</a>
</g>
</g>
<!-- Node0&#45;&gt;Node4 -->
<g id="edge4" class="edge"><title>Node0&#45;&gt;Node4</title>
<path fill="none" stroke="black" d="M292.457,-85.7452C309.03,-92.0599 327.765,-99.0177 345,-105 354.29,-108.225 364.464,-111.53 373.752,-114.461"/>
<polygon fill="black" stroke="black" points="293.567,-82.4224 282.976,-82.1137 291.063,-88.9593 293.567,-82.4224"/>
</g>
<!-- Node0&#45;&gt;Node3 -->
<g id="edge3" class="edge"><title>Node0&#45;&gt;Node3</title>
<path fill="none" stroke="black" d="M319.6,-75.8903C337.169,-77.9702 355.069,-80.0892 369.912,-81.8463"/>
<polygon fill="black" stroke="black" points="319.661,-72.3732 309.319,-74.6733 318.838,-79.3247 319.661,-72.3732"/>
</g>
<!-- Node5 -->
<g id="node5" class="node"><title>Node5</title>
<g id="a_node5"><a xlink:href="group__serial.html" target="_top" xlink:title="Serial communication with an Arduino Uno. ">
<polygon fill="white" stroke="black" points="345,-38.5 345,-57.5 467,-57.5 467,-38.5 345,-38.5"/>
<text text-anchor="middle" x="406" y="-45.5" font-family="Helvetica,sans-Serif" font-size="10.00">Serial Communication</text>
</a>
</g>
</g>
<!-- Node0&#45;&gt;Node5 -->
<g id="edge5" class="edge"><title>Node0&#45;&gt;Node5</title>
<path fill="none" stroke="black" d="M319.314,-58.1435C327.881,-57.1293 336.531,-56.1054 344.871,-55.1181"/>
<polygon fill="black" stroke="black" points="318.838,-54.6753 309.319,-59.3267 319.661,-61.6268 318.838,-54.6753"/>
</g>
<!-- Node2 -->
<g id="node6" class="node"><title>Node2</title>
<g id="a_node6"><a xlink:href="group__main.html" target="_top" xlink:title="This group is the main entry point for the openCV processing console application. ...">
<polygon fill="white" stroke="black" points="365,-0.5 365,-19.5 447,-19.5 447,-0.5 365,-0.5"/>
<text text-anchor="middle" x="406" y="-7.5" font-family="Helvetica,sans-Serif" font-size="10.00">Main Function</text>
</a>
</g>
</g>
<!-- Node0&#45;&gt;Node2 -->
<g id="edge2" class="edge"><title>Node0&#45;&gt;Node2</title>
<path fill="none" stroke="black" d="M292.457,-48.2548C309.03,-41.9401 327.765,-34.9823 345,-29 354.29,-25.7754 364.464,-22.4698 373.752,-19.5387"/>
<polygon fill="black" stroke="black" points="291.063,-45.0407 282.976,-51.8863 293.567,-51.5776 291.063,-45.0407"/>
</g>
</g>
</svg>
