<?xml version="1.0" encoding="UTF-8" standalone="no"?>
<!DOCTYPE svg PUBLIC "-//W3C//DTD SVG 1.1//EN"
 "http://www.w3.org/Graphics/SVG/1.1/DTD/svg11.dtd">
<!-- Generated by graphviz version 2.38.0 (20140413.2041)
 -->
<!-- Title: The Arduino Uno tracking module Pages: 1 -->
<svg width="441pt" height="66pt"
 viewBox="0.00 0.00 441.00 66.00" xmlns="http://www.w3.org/2000/svg" xmlns:xlink="http://www.w3.org/1999/xlink">
<g id="graph0" class="graph" transform="scale(1 1) rotate(0) translate(4 62)">
<title>The Arduino Uno tracking module</title>
<polygon fill="white" stroke="none" points="-4,4 -4,-62 437,-62 437,4 -4,4"/>
<!-- Node0 -->
<g id="node1" class="node"><title>Node0</title>
<polygon fill="#bfbfbf" stroke="black" points="178,-14 178,-44 315,-44 315,-14 178,-14"/>
<text text-anchor="start" x="186" y="-32" font-family="Helvetica,sans-Serif" font-size="10.00">The Arduino Uno tracking</text>
<text text-anchor="middle" x="246.5" y="-21" font-family="Helvetica,sans-Serif" font-size="10.00"> module</text>
</g>
<!-- Node2 -->
<g id="node3" class="node"><title>Node2</title>
<g id="a_node3"><a xlink:href="group__main_uno.html" target="_top" xlink:title="The main entry point for the openCV processing console application. ">
<polygon fill="white" stroke="black" points="351,-38.5 351,-57.5 433,-57.5 433,-38.5 351,-38.5"/>
<text text-anchor="middle" x="392" y="-45.5" font-family="Helvetica,sans-Serif" font-size="10.00">Main Function</text>
</a>
</g>
</g>
<!-- Node0&#45;&gt;Node2 -->
<g id="edge2" class="edge"><title>Node0&#45;&gt;Node2</title>
<path fill="none" stroke="black" d="M325.074,-39.2711C333.934,-40.4443 342.676,-41.6017 350.753,-42.6711"/>
<polygon fill="black" stroke="black" points="325.421,-35.7866 315.048,-37.9436 324.502,-42.726 325.421,-35.7866"/>
</g>
<!-- Node3 -->
<g id="node4" class="node"><title>Node3</title>
<g id="a_node4"><a xlink:href="group__classes.html" target="_top" xlink:title="all classes used ">
<polygon fill="white" stroke="black" points="365.5,-0.5 365.5,-19.5 418.5,-19.5 418.5,-0.5 365.5,-0.5"/>
<text text-anchor="middle" x="392" y="-7.5" font-family="Helvetica,sans-Serif" font-size="10.00">Classes</text>
</a>
</g>
</g>
<!-- Node0&#45;&gt;Node3 -->
<g id="edge3" class="edge"><title>Node0&#45;&gt;Node3</title>
<path fill="none" stroke="black" d="M325.115,-18.7235C339.623,-16.8025 353.81,-14.9241 365.28,-13.4054"/>
<polygon fill="black" stroke="black" points="324.502,-15.274 315.048,-20.0564 325.421,-22.2134 324.502,-15.274"/>
</g>
<!-- Node1 -->
<g id="node2" class="node"><title>Node1</title>
<g id="a_node2"><a xlink:href="group___w_c_t.html" target="_top" xlink:title="using Arduino Uno and OpenCV ">
<polygon fill="white" stroke="black" points="0,-19.5 0,-38.5 142,-38.5 142,-19.5 0,-19.5"/>
<text text-anchor="middle" x="71" y="-26.5" font-family="Helvetica,sans-Serif" font-size="10.00">Webcam tracking software</text>
</a>
</g>
</g>
<!-- Node1&#45;&gt;Node0 -->
<g id="edge1" class="edge"><title>Node1&#45;&gt;Node0</title>
<path fill="none" stroke="black" d="M152.149,-29C160.788,-29 169.515,-29 177.984,-29"/>
<polygon fill="black" stroke="black" points="152.069,-25.5001 142.069,-29 152.069,-32.5001 152.069,-25.5001"/>
</g>
</g>
</svg>
