<?xml version="1.0" encoding="UTF-8" standalone="no"?>
<!DOCTYPE svg PUBLIC "-//W3C//DTD SVG 1.1//EN"
 "http://www.w3.org/Graphics/SVG/1.1/DTD/svg11.dtd">
<!-- Generated by graphviz version 2.44.0 ()
 -->
<!-- Title: PipeLine classes Pages: 1 -->
<svg width="364pt" height="64pt"
 viewBox="0.00 0.00 364.00 64.00" xmlns="http://www.w3.org/2000/svg" xmlns:xlink="http://www.w3.org/1999/xlink">
<g id="graph0" class="graph" transform="scale(1 1) rotate(0) translate(4 60)">
<title>PipeLine classes</title>
<polygon fill="white" stroke="transparent" points="-4,4 -4,-60 360,-60 360,4 -4,4"/>
<!-- Node3 -->
<g id="node1" class="node">
<title>Node3</title>
<g id="a_node1"><a xlink:href="group__pipeLineheader.html" target="_top" xlink:title="all header files">
<polygon fill="white" stroke="black" points="356,-56 285,-56 285,-37 356,-37 356,-56"/>
<text text-anchor="middle" x="320.5" y="-44" font-family="Helvetica,sans-Serif" font-size="10.00">Header Files</text>
</a>
</g>
</g>
<!-- Node1 -->
<g id="node2" class="node">
<title>Node1</title>
<g id="a_node2"><a xlink:title="all classes used for the OpenCV pipeLine">
<polygon fill="#bfbfbf" stroke="black" points="249,-37 158,-37 158,-18 249,-18 249,-37"/>
<text text-anchor="middle" x="203.5" y="-25" font-family="Helvetica,sans-Serif" font-size="10.00">PipeLine classes</text>
</a>
</g>
</g>
<!-- Node1&#45;&gt;Node3 -->
<g id="edge2" class="edge">
<title>Node1&#45;&gt;Node3</title>
<path fill="none" stroke="black" d="M259.43,-36.57C268.13,-38.01 276.92,-39.46 284.98,-40.8"/>
<polygon fill="black" stroke="black" points="259.73,-33.08 249.29,-34.9 258.59,-39.98 259.73,-33.08"/>
</g>
<!-- Node4 -->
<g id="node4" class="node">
<title>Node4</title>
<g id="a_node4"><a xlink:href="group__pipeLinecpp.html" target="_top" xlink:title="all C++ files">
<polygon fill="white" stroke="black" points="350,-19 291,-19 291,0 350,0 350,-19"/>
<text text-anchor="middle" x="320.5" y="-7" font-family="Helvetica,sans-Serif" font-size="10.00">C++ Files</text>
</a>
</g>
</g>
<!-- Node1&#45;&gt;Node4 -->
<g id="edge3" class="edge">
<title>Node1&#45;&gt;Node4</title>
<path fill="none" stroke="black" d="M259.26,-18.93C270.21,-17.21 281.3,-15.48 290.92,-13.97"/>
<polygon fill="black" stroke="black" points="258.63,-15.48 249.29,-20.49 259.71,-22.4 258.63,-15.48"/>
</g>
<!-- Node2 -->
<g id="node3" class="node">
<title>Node2</title>
<g id="a_node3"><a xlink:href="group__processing.html" target="_top" xlink:title="This is the group containing als the image processing parts.">
<polygon fill="white" stroke="black" points="122,-42.5 0,-42.5 0,-12.5 122,-12.5 122,-42.5"/>
<text text-anchor="start" x="8" y="-30.5" font-family="Helvetica,sans-Serif" font-size="10.00">The OpenCV proccesing</text>
<text text-anchor="middle" x="61" y="-19.5" font-family="Helvetica,sans-Serif" font-size="10.00"> module</text>
</a>
</g>
</g>
<!-- Node2&#45;&gt;Node1 -->
<g id="edge1" class="edge">
<title>Node2&#45;&gt;Node1</title>
<path fill="none" stroke="black" d="M132.5,-27.5C141.13,-27.5 149.75,-27.5 157.85,-27.5"/>
<polygon fill="black" stroke="black" points="132.4,-24 122.4,-27.5 132.4,-31 132.4,-24"/>
</g>
</g>
</svg>
