<?xml version="1.0" encoding="UTF-8" standalone="no"?>
<!DOCTYPE svg PUBLIC "-//W3C//DTD SVG 1.1//EN"
 "http://www.w3.org/Graphics/SVG/1.1/DTD/svg11.dtd">
<!-- Generated by graphviz version 2.38.0 (20140413.2041)
 -->
<!-- Title: GUI classes Pages: 1 -->
<svg width="358pt" height="66pt"
 viewBox="0.00 0.00 358.00 66.00" xmlns="http://www.w3.org/2000/svg" xmlns:xlink="http://www.w3.org/1999/xlink">
<g id="graph0" class="graph" transform="scale(1 1) rotate(0) translate(4 62)">
<title>GUI classes</title>
<polygon fill="white" stroke="none" points="-4,4 -4,-62 354,-62 354,4 -4,4"/>
<!-- Node3 -->
<g id="node1" class="node"><title>Node3</title>
<g id="a_node1"><a xlink:href="group__graphiccpp.html" target="_top" xlink:title="all C++ files ">
<polygon fill="white" stroke="black" points="281,-38.5 281,-57.5 344,-57.5 344,-38.5 281,-38.5"/>
<text text-anchor="middle" x="312.5" y="-45.5" font-family="Helvetica,sans-Serif" font-size="10.00">C++ Files</text>
</a>
</g>
</g>
<!-- Node2 -->
<g id="node2" class="node"><title>Node2</title>
<g id="a_node2"><a xlink:href="group__graphicheader.html" target="_top" xlink:title="all header files ">
<polygon fill="white" stroke="black" points="275,-0.5 275,-19.5 350,-19.5 350,-0.5 275,-0.5"/>
<text text-anchor="middle" x="312.5" y="-7.5" font-family="Helvetica,sans-Serif" font-size="10.00">Header Files</text>
</a>
</g>
</g>
<!-- Node0 -->
<g id="node3" class="node"><title>Node0</title>
<polygon fill="#bfbfbf" stroke="black" points="167,-19.5 167,-38.5 239,-38.5 239,-19.5 167,-19.5"/>
<text text-anchor="middle" x="203" y="-26.5" font-family="Helvetica,sans-Serif" font-size="10.00">GUI classes</text>
</g>
<!-- Node0&#45;&gt;Node3 -->
<g id="edge3" class="edge"><title>Node0&#45;&gt;Node3</title>
<path fill="none" stroke="black" d="M249.242,-36.9963C259.923,-38.8841 271.064,-40.8532 280.92,-42.5951"/>
<polygon fill="black" stroke="black" points="249.656,-33.5153 239.2,-35.2213 248.438,-40.4084 249.656,-33.5153"/>
</g>
<!-- Node0&#45;&gt;Node2 -->
<g id="edge2" class="edge"><title>Node0&#45;&gt;Node2</title>
<path fill="none" stroke="black" d="M249.056,-21.0366C257.616,-19.5236 266.479,-17.9572 274.744,-16.4964"/>
<polygon fill="black" stroke="black" points="248.438,-17.5916 239.2,-22.7787 249.656,-24.4847 248.438,-17.5916"/>
</g>
<!-- Node1 -->
<g id="node4" class="node"><title>Node1</title>
<g id="a_node4"><a xlink:href="group__processing.html" target="_top" xlink:title="This is the group containing als the image processing parts. ">
<polygon fill="white" stroke="black" points="0,-14 0,-44 131,-44 131,-14 0,-14"/>
<text text-anchor="start" x="8" y="-32" font-family="Helvetica,sans-Serif" font-size="10.00">The OpenCV proccesing</text>
<text text-anchor="middle" x="65.5" y="-21" font-family="Helvetica,sans-Serif" font-size="10.00"> module</text>
</a>
</g>
</g>
<!-- Node1&#45;&gt;Node0 -->
<g id="edge1" class="edge"><title>Node1&#45;&gt;Node0</title>
<path fill="none" stroke="black" d="M141.138,-29C150.02,-29 158.743,-29 166.686,-29"/>
<polygon fill="black" stroke="black" points="141.075,-25.5001 131.075,-29 141.075,-32.5001 141.075,-25.5001"/>
</g>
</g>
</svg>
