<?xml version="1.0" encoding="UTF-8" standalone="no"?>
<!DOCTYPE svg PUBLIC "-//W3C//DTD SVG 1.1//EN"
 "http://www.w3.org/Graphics/SVG/1.1/DTD/svg11.dtd">
<!-- Generated by graphviz version 2.44.0 ()
 -->
<!-- Title: The OpenCV proccesing module Pages: 1 -->
<svg width="444pt" height="138pt"
 viewBox="0.00 0.00 444.00 138.00" xmlns="http://www.w3.org/2000/svg" xmlns:xlink="http://www.w3.org/1999/xlink">
<g id="graph0" class="graph" transform="scale(1 1) rotate(0) translate(4 134)">
<title>The OpenCV proccesing module</title>
<polygon fill="white" stroke="transparent" points="-4,4 -4,-134 440,-134 440,4 -4,4"/>
<!-- Node2 -->
<g id="node1" class="node">
<title>Node2</title>
<g id="a_node1"><a xlink:href="group__WCT.html" target="_top" xlink:title="using Arduino Uno and OpenCV">
<polygon fill="white" stroke="black" points="131,-74 0,-74 0,-55 131,-55 131,-74"/>
<text text-anchor="middle" x="65.5" y="-62" font-family="Helvetica,sans-Serif" font-size="10.00">Webcam tracking software</text>
</a>
</g>
</g>
<!-- Node1 -->
<g id="node4" class="node">
<title>Node1</title>
<g id="a_node4"><a xlink:title="This is the group containing als the image processing parts.">
<polygon fill="#bfbfbf" stroke="black" points="289,-79.5 167,-79.5 167,-49.5 289,-49.5 289,-79.5"/>
<text text-anchor="start" x="175" y="-67.5" font-family="Helvetica,sans-Serif" font-size="10.00">The OpenCV proccesing</text>
<text text-anchor="middle" x="228" y="-56.5" font-family="Helvetica,sans-Serif" font-size="10.00"> module</text>
</a>
</g>
</g>
<!-- Node2&#45;&gt;Node1 -->
<g id="edge1" class="edge">
<title>Node2&#45;&gt;Node1</title>
<path fill="none" stroke="black" d="M141.59,-64.5C150.07,-64.5 158.62,-64.5 166.87,-64.5"/>
<polygon fill="black" stroke="black" points="141.32,-61 131.32,-64.5 141.32,-68 141.32,-61"/>
</g>
<!-- Node5 -->
<g id="node2" class="node">
<title>Node5</title>
<g id="a_node2"><a xlink:href="group__pipeLine.html" target="_top" xlink:title="all classes used for the OpenCV pipeLine">
<polygon fill="white" stroke="black" points="426,-130 335,-130 335,-111 426,-111 426,-130"/>
<text text-anchor="middle" x="380.5" y="-118" font-family="Helvetica,sans-Serif" font-size="10.00">PipeLine classes</text>
</a>
</g>
</g>
<!-- Node4 -->
<g id="node3" class="node">
<title>Node4</title>
<g id="a_node3"><a xlink:href="group__graphic.html" target="_top" xlink:title="all classes used for the graphic user interface">
<polygon fill="white" stroke="black" points="416,-93 345,-93 345,-74 416,-74 416,-93"/>
<text text-anchor="middle" x="380.5" y="-81" font-family="Helvetica,sans-Serif" font-size="10.00">GUI classes</text>
</a>
</g>
</g>
<!-- Node1&#45;&gt;Node5 -->
<g id="edge4" class="edge">
<title>Node1&#45;&gt;Node5</title>
<path fill="none" stroke="black" d="M275.23,-83.43C290.95,-89.7 308.67,-96.58 325,-102.5 332.87,-105.35 341.44,-108.27 349.41,-110.91"/>
<polygon fill="black" stroke="black" points="276.32,-80.09 265.74,-79.62 273.71,-86.59 276.32,-80.09"/>
</g>
<!-- Node1&#45;&gt;Node4 -->
<g id="edge3" class="edge">
<title>Node1&#45;&gt;Node4</title>
<path fill="none" stroke="black" d="M299.58,-73.41C315.26,-75.39 331.21,-77.4 344.7,-79.11"/>
<polygon fill="black" stroke="black" points="299.71,-69.9 289.35,-72.12 298.83,-76.84 299.71,-69.9"/>
</g>
<!-- Node6 -->
<g id="node5" class="node">
<title>Node6</title>
<g id="a_node5"><a xlink:href="group__serial.html" target="_top" xlink:title="Serial communication with an Arduino Uno.">
<polygon fill="white" stroke="black" points="436,-56 325,-56 325,-37 436,-37 436,-56"/>
<text text-anchor="middle" x="380.5" y="-44" font-family="Helvetica,sans-Serif" font-size="10.00">Serial Communication</text>
</a>
</g>
</g>
<!-- Node1&#45;&gt;Node6 -->
<g id="edge5" class="edge">
<title>Node1&#45;&gt;Node6</title>
<path fill="none" stroke="black" d="M299.38,-56.08C307.98,-55.05 316.66,-54.02 324.98,-53.02"/>
<polygon fill="black" stroke="black" points="298.86,-52.62 289.35,-57.28 299.69,-59.57 298.86,-52.62"/>
</g>
<!-- Node3 -->
<g id="node6" class="node">
<title>Node3</title>
<g id="a_node6"><a xlink:href="group__main.html" target="_top" xlink:title="This group is the main entry point for the openCV processing console application.">
<polygon fill="white" stroke="black" points="419,-19 342,-19 342,0 419,0 419,-19"/>
<text text-anchor="middle" x="380.5" y="-7" font-family="Helvetica,sans-Serif" font-size="10.00">Main Function</text>
</a>
</g>
</g>
<!-- Node1&#45;&gt;Node3 -->
<g id="edge2" class="edge">
<title>Node1&#45;&gt;Node3</title>
<path fill="none" stroke="black" d="M278.22,-45.79C293.21,-40.16 309.76,-34.01 325,-28.5 333.67,-25.36 343.15,-22.03 351.73,-19.04"/>
<polygon fill="black" stroke="black" points="276.75,-42.6 268.62,-49.4 279.22,-49.16 276.75,-42.6"/>
</g>
</g>
</svg>
