<?xml version="1.0" encoding="UTF-8" standalone="no"?>
<!DOCTYPE svg PUBLIC "-//W3C//DTD SVG 1.1//EN"
 "http://www.w3.org/Graphics/SVG/1.1/DTD/svg11.dtd">
<!-- Generated by graphviz version 2.44.0 ()
 -->
<!-- Title: Webcam tracking software Pages: 1 -->
<svg width="300pt" height="86pt"
 viewBox="0.00 0.00 300.00 86.00" xmlns="http://www.w3.org/2000/svg" xmlns:xlink="http://www.w3.org/1999/xlink">
<g id="graph0" class="graph" transform="scale(1 1) rotate(0) translate(4 82)">
<title>Webcam tracking software</title>
<polygon fill="white" stroke="transparent" points="-4,4 -4,-82 296,-82 296,4 -4,4"/>
<!-- Node2 -->
<g id="node1" class="node">
<title>Node2</title>
<g id="a_node1"><a xlink:href="group__tracking.html" target="_top" xlink:title="This is the group contains arduino software.">
<polygon fill="white" stroke="black" points="292,-78 167,-78 167,-48 292,-48 292,-78"/>
<text text-anchor="start" x="175" y="-66" font-family="Helvetica,sans-Serif" font-size="10.00">The Arduino Uno tracking</text>
<text text-anchor="middle" x="229.5" y="-55" font-family="Helvetica,sans-Serif" font-size="10.00"> module</text>
</a>
</g>
</g>
<!-- Node1 -->
<g id="node2" class="node">
<title>Node1</title>
<g id="a_node2"><a xlink:title="using Arduino Uno and OpenCV">
<polygon fill="#bfbfbf" stroke="black" points="131,-48.5 0,-48.5 0,-29.5 131,-29.5 131,-48.5"/>
<text text-anchor="middle" x="65.5" y="-36.5" font-family="Helvetica,sans-Serif" font-size="10.00">Webcam tracking software</text>
</a>
</g>
</g>
<!-- Node1&#45;&gt;Node2 -->
<g id="edge1" class="edge">
<title>Node1&#45;&gt;Node2</title>
<path fill="none" stroke="black" d="M141.06,-50.05C149.7,-51.33 158.43,-52.62 166.87,-53.87"/>
<polygon fill="black" stroke="black" points="141.4,-46.56 130.99,-48.55 140.37,-53.48 141.4,-46.56"/>
</g>
<!-- Node3 -->
<g id="node3" class="node">
<title>Node3</title>
<g id="a_node3"><a xlink:href="group__processing.html" target="_top" xlink:title="This is the group containing als the image processing parts.">
<polygon fill="white" stroke="black" points="290.5,-30 168.5,-30 168.5,0 290.5,0 290.5,-30"/>
<text text-anchor="start" x="176.5" y="-18" font-family="Helvetica,sans-Serif" font-size="10.00">The OpenCV proccesing</text>
<text text-anchor="middle" x="229.5" y="-7" font-family="Helvetica,sans-Serif" font-size="10.00"> module</text>
</a>
</g>
</g>
<!-- Node1&#45;&gt;Node3 -->
<g id="edge2" class="edge">
<title>Node1&#45;&gt;Node3</title>
<path fill="none" stroke="black" d="M140.93,-27.97C150.14,-26.61 159.48,-25.23 168.44,-23.9"/>
<polygon fill="black" stroke="black" points="140.37,-24.52 130.99,-29.45 141.4,-31.44 140.37,-24.52"/>
</g>
</g>
</svg>
