<?xml version="1.0" encoding="UTF-8" standalone="no"?>
<!DOCTYPE svg PUBLIC "-//W3C//DTD SVG 1.1//EN"
 "http://www.w3.org/Graphics/SVG/1.1/DTD/svg11.dtd">
<!-- Generated by graphviz version 2.38.0 (20140413.2041)
 -->
<!-- Title: Classes Pages: 1 -->
<svg width="345pt" height="66pt"
 viewBox="0.00 0.00 345.00 66.00" xmlns="http://www.w3.org/2000/svg" xmlns:xlink="http://www.w3.org/1999/xlink">
<g id="graph0" class="graph" transform="scale(1 1) rotate(0) translate(4 62)">
<title>Classes</title>
<polygon fill="white" stroke="none" points="-4,4 -4,-62 341,-62 341,4 -4,4"/>
<!-- Node1 -->
<g id="node1" class="node"><title>Node1</title>
<g id="a_node1"><a xlink:href="group__tracking.html" target="_top" xlink:title="This is the group contains arduino software. ">
<polygon fill="white" stroke="black" points="0,-14 0,-44 137,-44 137,-14 0,-14"/>
<text text-anchor="start" x="8" y="-32" font-family="Helvetica,sans-Serif" font-size="10.00">The Arduino Uno tracking</text>
<text text-anchor="middle" x="68.5" y="-21" font-family="Helvetica,sans-Serif" font-size="10.00"> module</text>
</a>
</g>
</g>
<!-- Node0 -->
<g id="node4" class="node"><title>Node0</title>
<polygon fill="#bfbfbf" stroke="black" points="173,-19.5 173,-38.5 226,-38.5 226,-19.5 173,-19.5"/>
<text text-anchor="middle" x="199.5" y="-26.5" font-family="Helvetica,sans-Serif" font-size="10.00">Classes</text>
</g>
<!-- Node1&#45;&gt;Node0 -->
<g id="edge1" class="edge"><title>Node1&#45;&gt;Node0</title>
<path fill="none" stroke="black" d="M147.152,-29C156.387,-29 165.245,-29 172.927,-29"/>
<polygon fill="black" stroke="black" points="147.022,-25.5001 137.022,-29 147.022,-32.5001 147.022,-25.5001"/>
</g>
<!-- Node2 -->
<g id="node2" class="node"><title>Node2</title>
<g id="a_node2"><a xlink:href="group___unoheader.html" target="_top" xlink:title="all header files ">
<polygon fill="white" stroke="black" points="262,-38.5 262,-57.5 337,-57.5 337,-38.5 262,-38.5"/>
<text text-anchor="middle" x="299.5" y="-45.5" font-family="Helvetica,sans-Serif" font-size="10.00">Header Files</text>
</a>
</g>
</g>
<!-- Node3 -->
<g id="node3" class="node"><title>Node3</title>
<g id="a_node3"><a xlink:href="group___unocpp.html" target="_top" xlink:title="all C++ files ">
<polygon fill="white" stroke="black" points="268,-0.5 268,-19.5 331,-19.5 331,-0.5 268,-0.5"/>
<text text-anchor="middle" x="299.5" y="-7.5" font-family="Helvetica,sans-Serif" font-size="10.00">C++ Files</text>
</a>
</g>
</g>
<!-- Node0&#45;&gt;Node2 -->
<g id="edge2" class="edge"><title>Node0&#45;&gt;Node2</title>
<path fill="none" stroke="black" d="M236.117,-35.9054C244.498,-37.5303 253.445,-39.2648 261.869,-40.8981"/>
<polygon fill="black" stroke="black" points="236.732,-32.4594 226.248,-33.992 235.399,-39.3315 236.732,-32.4594"/>
</g>
<!-- Node0&#45;&gt;Node3 -->
<g id="edge3" class="edge"><title>Node0&#45;&gt;Node3</title>
<path fill="none" stroke="black" d="M236.209,-22.0767C246.529,-20.0759 257.7,-17.9102 267.694,-15.9726"/>
<polygon fill="black" stroke="black" points="235.399,-18.6685 226.248,-24.008 236.732,-25.5406 235.399,-18.6685"/>
</g>
</g>
</svg>
