<?xml version="1.0" encoding="UTF-8" standalone="no"?>
<!DOCTYPE svg PUBLIC "-//W3C//DTD SVG 1.1//EN"
 "http://www.w3.org/Graphics/SVG/1.1/DTD/svg11.dtd">
<!-- Generated by graphviz version 2.44.0 ()
 -->
<!-- Title: Graphical Class Hierarchy Pages: 1 -->
<svg width="228pt" height="180pt"
 viewBox="0.00 0.00 228.00 180.00" xmlns="http://www.w3.org/2000/svg" xmlns:xlink="http://www.w3.org/1999/xlink">
<g id="graph0" class="graph" transform="scale(1 1) rotate(0) translate(4 176)">
<title>Graphical Class Hierarchy</title>
<polygon fill="white" stroke="transparent" points="-4,4 -4,-176 224,-176 224,4 -4,4"/>
<!-- Node0 -->
<g id="node1" class="node">
<title>Node0</title>
<g id="a_node1"><a xlink:href="classPipeLineAction.html" target="_top" xlink:title="Base&#45;class for all OpenCV pipeline actions.">
<polygon fill="white" stroke="black" points="0,-76.5 0,-95.5 83,-95.5 83,-76.5 0,-76.5"/>
<text text-anchor="middle" x="41.5" y="-83.5" font-family="Helvetica,sans-Serif" font-size="10.00">PipeLineAction</text>
</a>
</g>
</g>
<!-- Node1 -->
<g id="node2" class="node">
<title>Node1</title>
<g id="a_node2"><a xlink:href="classBlur.html" target="_top" xlink:title="Child&#45;classe, implements OpenCV&#39;s GaussianBlur.">
<polygon fill="white" stroke="black" points="152.5,-152.5 152.5,-171.5 186.5,-171.5 186.5,-152.5 152.5,-152.5"/>
<text text-anchor="middle" x="169.5" y="-159.5" font-family="Helvetica,sans-Serif" font-size="10.00">Blur</text>
</a>
</g>
</g>
<!-- Node0&#45;&gt;Node1 -->
<g id="edge1" class="edge">
<title>Node0&#45;&gt;Node1</title>
<path fill="none" stroke="midnightblue" d="M61.17,-102.21C76.08,-114.56 97.9,-131.38 119,-143 129.64,-148.86 142.47,-153.73 152.4,-157.07"/>
<polygon fill="midnightblue" stroke="midnightblue" points="63.15,-99.29 53.25,-95.52 58.63,-104.64 63.15,-99.29"/>
</g>
<!-- Node2 -->
<g id="node3" class="node">
<title>Node2</title>
<g id="a_node3"><a xlink:href="classContour.html" target="_top" xlink:title="Child&#45;classe, implements OpenCV&#39;s contour finding.">
<polygon fill="white" stroke="black" points="144.5,-114.5 144.5,-133.5 194.5,-133.5 194.5,-114.5 144.5,-114.5"/>
<text text-anchor="middle" x="169.5" y="-121.5" font-family="Helvetica,sans-Serif" font-size="10.00">Contour</text>
</a>
</g>
</g>
<!-- Node0&#45;&gt;Node2 -->
<g id="edge2" class="edge">
<title>Node0&#45;&gt;Node2</title>
<path fill="none" stroke="midnightblue" d="M84.08,-98.54C104.04,-104.56 127.25,-111.56 144.27,-116.69"/>
<polygon fill="midnightblue" stroke="midnightblue" points="84.88,-95.13 74.3,-95.59 82.86,-101.83 84.88,-95.13"/>
</g>
<!-- Node3 -->
<g id="node4" class="node">
<title>Node3</title>
<g id="a_node4"><a xlink:href="classConvertColorSpace.html" target="_top" xlink:title="Child&#45;classe, converts from BGR to HSV color space.">
<polygon fill="white" stroke="black" points="119,-76.5 119,-95.5 220,-95.5 220,-76.5 119,-76.5"/>
<text text-anchor="middle" x="169.5" y="-83.5" font-family="Helvetica,sans-Serif" font-size="10.00">ConvertColorSpace</text>
</a>
</g>
</g>
<!-- Node0&#45;&gt;Node3 -->
<g id="edge3" class="edge">
<title>Node0&#45;&gt;Node3</title>
<path fill="none" stroke="midnightblue" d="M93.16,-86C101.59,-86 110.34,-86 118.75,-86"/>
<polygon fill="midnightblue" stroke="midnightblue" points="93.06,-82.5 83.06,-86 93.06,-89.5 93.06,-82.5"/>
</g>
<!-- Node4 -->
<g id="node5" class="node">
<title>Node4</title>
<g id="a_node5"><a xlink:href="classMask.html" target="_top" xlink:title="Child&#45;classe, applies a mask to the input matrix.">
<polygon fill="white" stroke="black" points="149,-38.5 149,-57.5 190,-57.5 190,-38.5 149,-38.5"/>
<text text-anchor="middle" x="169.5" y="-45.5" font-family="Helvetica,sans-Serif" font-size="10.00">Mask</text>
</a>
</g>
</g>
<!-- Node0&#45;&gt;Node4 -->
<g id="edge4" class="edge">
<title>Node0&#45;&gt;Node4</title>
<path fill="none" stroke="midnightblue" d="M84.01,-73.48C105.86,-66.89 131.62,-59.12 148.91,-53.91"/>
<polygon fill="midnightblue" stroke="midnightblue" points="82.86,-70.17 74.3,-76.41 84.88,-76.87 82.86,-70.17"/>
</g>
<!-- Node5 -->
<g id="node6" class="node">
<title>Node5</title>
<g id="a_node6"><a xlink:href="classMoment.html" target="_top" xlink:title="Child&#45;classe, implements OpenCV&#39;s center of mass finding.">
<polygon fill="white" stroke="black" points="143.5,-0.5 143.5,-19.5 195.5,-19.5 195.5,-0.5 143.5,-0.5"/>
<text text-anchor="middle" x="169.5" y="-7.5" font-family="Helvetica,sans-Serif" font-size="10.00">Moment</text>
</a>
</g>
</g>
<!-- Node0&#45;&gt;Node5 -->
<g id="edge5" class="edge">
<title>Node0&#45;&gt;Node5</title>
<path fill="none" stroke="midnightblue" d="M61.17,-69.79C76.08,-57.44 97.9,-40.62 119,-29 126.66,-24.78 135.45,-21.08 143.48,-18.09"/>
<polygon fill="midnightblue" stroke="midnightblue" points="58.63,-67.36 53.25,-76.48 63.15,-72.71 58.63,-67.36"/>
</g>
</g>
</svg>
