<?xml version="1.0" encoding="UTF-8" standalone="no"?>
<!DOCTYPE svg PUBLIC "-//W3C//DTD SVG 1.1//EN"
 "http://www.w3.org/Graphics/SVG/1.1/DTD/svg11.dtd">
<!-- Generated by graphviz version 2.38.0 (20140413.2041)
 -->
<!-- Title: Graphical Class Hierarchy Pages: 1 -->
<svg width="239pt" height="180pt"
 viewBox="0.00 0.00 239.00 180.00" xmlns="http://www.w3.org/2000/svg" xmlns:xlink="http://www.w3.org/1999/xlink">
<g id="graph0" class="graph" transform="scale(1 1) rotate(0) translate(4 176)">
<title>Graphical Class Hierarchy</title>
<polygon fill="white" stroke="none" points="-4,4 -4,-176 235,-176 235,4 -4,4"/>
<!-- Node1 -->
<g id="node1" class="node"><title>Node1</title>
<g id="a_node1"><a xlink:href="class_pipe_line_action.html" target="_top" xlink:title="Base&#45;class for all OpenCV pipeline actions. ">
<polygon fill="white" stroke="black" points="0,-76.5 0,-95.5 86,-95.5 86,-76.5 0,-76.5"/>
<text text-anchor="middle" x="43" y="-83.5" font-family="Helvetica,sans-Serif" font-size="10.00">PipeLineAction</text>
</a>
</g>
</g>
<!-- Node2 -->
<g id="node2" class="node"><title>Node2</title>
<g id="a_node2"><a xlink:href="class_blur.html" target="_top" xlink:title="Child&#45;classe, implements OpenCV&#39;s GaussianBlur. ">
<polygon fill="white" stroke="black" points="159,-152.5 159,-171.5 194,-171.5 194,-152.5 159,-152.5"/>
<text text-anchor="middle" x="176.5" y="-159.5" font-family="Helvetica,sans-Serif" font-size="10.00">Blur</text>
</a>
</g>
</g>
<!-- Node1&#45;&gt;Node2 -->
<g id="edge1" class="edge"><title>Node1&#45;&gt;Node2</title>
<path fill="none" stroke="midnightblue" d="M63.0068,-102.331C78.1918,-114.755 100.431,-131.601 122,-143 133.677,-149.171 147.788,-154.088 158.586,-157.372"/>
<polygon fill="midnightblue" stroke="midnightblue" points="64.8608,-99.3192 54.9397,-95.6011 60.3767,-104.694 64.8608,-99.3192"/>
</g>
<!-- Node3 -->
<g id="node3" class="node"><title>Node3</title>
<g id="a_node3"><a xlink:href="class_contour.html" target="_top" xlink:title="Child&#45;classe, implements OpenCV&#39;s contour finding. ">
<polygon fill="white" stroke="black" points="149,-114.5 149,-133.5 204,-133.5 204,-114.5 149,-114.5"/>
<text text-anchor="middle" x="176.5" y="-121.5" font-family="Helvetica,sans-Serif" font-size="10.00">Contour</text>
</a>
</g>
</g>
<!-- Node1&#45;&gt;Node3 -->
<g id="edge2" class="edge"><title>Node1&#45;&gt;Node3</title>
<path fill="none" stroke="midnightblue" d="M86.9084,-98.3994C107.354,-104.308 131.164,-111.188 148.948,-116.327"/>
<polygon fill="midnightblue" stroke="midnightblue" points="87.7616,-95.0028 77.183,-95.589 85.8183,-101.728 87.7616,-95.0028"/>
</g>
<!-- Node4 -->
<g id="node4" class="node"><title>Node4</title>
<g id="a_node4"><a xlink:href="class_convert_color_space.html" target="_top" xlink:title="Child&#45;classe, converts from BGR to HSV color space. ">
<polygon fill="white" stroke="black" points="122,-76.5 122,-95.5 231,-95.5 231,-76.5 122,-76.5"/>
<text text-anchor="middle" x="176.5" y="-83.5" font-family="Helvetica,sans-Serif" font-size="10.00">ConvertColorSpace</text>
</a>
</g>
</g>
<!-- Node1&#45;&gt;Node4 -->
<g id="edge3" class="edge"><title>Node1&#45;&gt;Node4</title>
<path fill="none" stroke="midnightblue" d="M96.599,-86C104.86,-86 113.409,-86 121.697,-86"/>
<polygon fill="midnightblue" stroke="midnightblue" points="96.3313,-82.5001 86.3313,-86 96.3312,-89.5001 96.3313,-82.5001"/>
</g>
<!-- Node5 -->
<g id="node5" class="node"><title>Node5</title>
<g id="a_node5"><a xlink:href="class_mask.html" target="_top" xlink:title="Child&#45;classe, applies a mask to the input matrix. ">
<polygon fill="white" stroke="black" points="156,-38.5 156,-57.5 197,-57.5 197,-38.5 156,-38.5"/>
<text text-anchor="middle" x="176.5" y="-45.5" font-family="Helvetica,sans-Serif" font-size="10.00">Mask</text>
</a>
</g>
</g>
<!-- Node1&#45;&gt;Node5 -->
<g id="edge4" class="edge"><title>Node1&#45;&gt;Node5</title>
<path fill="none" stroke="midnightblue" d="M86.832,-73.6227C110.064,-66.9094 137.658,-58.9353 155.822,-53.6864"/>
<polygon fill="midnightblue" stroke="midnightblue" points="85.8183,-70.2724 77.183,-76.411 87.7616,-76.9972 85.8183,-70.2724"/>
</g>
<!-- Node6 -->
<g id="node6" class="node"><title>Node6</title>
<g id="a_node6"><a xlink:href="class_moment.html" target="_top" xlink:title="Child&#45;classe, implements OpenCV&#39;s center of mass finding. ">
<polygon fill="white" stroke="black" points="148.5,-0.5 148.5,-19.5 204.5,-19.5 204.5,-0.5 148.5,-0.5"/>
<text text-anchor="middle" x="176.5" y="-7.5" font-family="Helvetica,sans-Serif" font-size="10.00">Moment</text>
</a>
</g>
</g>
<!-- Node1&#45;&gt;Node6 -->
<g id="edge5" class="edge"><title>Node1&#45;&gt;Node6</title>
<path fill="none" stroke="midnightblue" d="M63.0068,-69.6695C78.1918,-57.2453 100.431,-40.3985 122,-29 130.279,-24.6249 139.781,-20.8805 148.458,-17.9011"/>
<polygon fill="midnightblue" stroke="midnightblue" points="60.3767,-67.3055 54.9397,-76.3989 64.8608,-72.6808 60.3767,-67.3055"/>
</g>
</g>
</svg>
